<ttFont>
<head>
    <!-- Most of this table will be recalculated by the compiler -->
    <tableVersion value="1.0"/>
    <fontRevision value="1.002"/>
    <checkSumAdjustment value="0xc8e1fdaf"/>
    <magicNumber value="0x5f0f3cf5"/>
    <flags value="00000000 00001011"/>
    <unitsPerEm value="1000"/>
    <created value="Thu Jan 14 16:25:56 2016"/>
    <modified value="Thu Jan  2 08:44:59 2020"/>
    <xMin value="-1637"/>
    <yMin value="-294"/>
    <xMax value="663"/>
    <yMax value="1150"/>
    <macStyle value="00000000 00000000"/>
    <lowestRecPPEM value="8"/>
    <fontDirectionHint value="2"/>
    <indexToLocFormat value="0"/>
    <glyphDataFormat value="0"/>
  </head>
          <CharString index="0">
            -92 -54 -71 -88 -89 54 -71 92 92 53 71 89 89 -53 70 -92 hvcurveto
            return
          </CharString>
          <CharString index="1">
            -213 -181 -84 -146 0 -146 0 -142 82 -143 210 -180 rrcurveto
            77 69 rlineto
            -192 156 -67 122 0 123 0 122 64 119 198 160 rrcurveto
            return
          </CharString>
          <CharString index="2">
            213 181 84 147 0 145 0 142 -83 143 -210 180 rrcurveto
            -77 -69 rlineto
            193 -156 66 -123 0 -122 0 -121 -64 -120 -198 -159 rrcurveto
            return
          </CharString>
          <CharString index="3">
            144 89 133 200 195 -73 118 -145 -144 -90 -133 -200 -195 73 -118 146 hvcurveto
            return
          </CharString>
          <CharString index="4">
            116 8 rlineto
            -53 206 -55 204 -61 207 rrcurveto
            -159 hlineto
            return
          </CharString>
          <CharString index="5">
            -62 -207 -54 -208 -53 -206 rrcurveto
            114 hlineto
            14 57 13 58 14 57 rrcurveto
            184 hlineto
            14 -59 14 -59 14 -58 rrcurveto
            return
          </CharString>
          <CharString index="6">
            8 hlineto
            23 -89 23 -91 22 -91 rrcurveto
            -144 hlineto
            22 91 23 90 23 90 rrcurveto
            return
          </CharString>
          <CharString index="7">
            -237 -12 -67 71 0 163 0 135 43 73 255 -5 rrcurveto
            -6 110 rlineto
            -308 -6 -103 -149 0 -173 rrcurveto
            return
          </CharString>
          <CharString index="8">
            0 -188 93 -143 320 26 rrcurveto
            return
          </CharString>
          <CharString index="9">
            0 242 -114 98 -319 -42 rrcurveto
            return
          </CharString>
          <CharString index="10">
            -620 vlineto
            299 -42 134 122 0 242 rrcurveto
            return
          </CharString>
          <CharString index="11">
            442 vlineto
            154 17 50 -78 0 -166 rrcurveto
            return
          </CharString>
          <CharString index="12">
            -278 174 233 84 -233 170 272 96 -387 -620 384 hlineto
            return
          </CharString>
          <CharString index="13">
            -1 80 0 95 0 127 rrcurveto
            -106 hlineto
            1 -76 3 -90 1 -63 -160 -3 -57 83 0 151 0 128 40 89 254 -10 rrcurveto
            -7 110 rlineto
            -309 -9 -95 -146 0 -181 0 -222 140 -128 296 65 rrcurveto
            return
          </CharString>
          <CharString index="14">
            143 89 -401 -89 143 -442 -143 -89 398 hlineto
            8 89 -148 0 rlineto
            return
          </CharString>
          <CharString index="15">
            124 14 -190 312 176 301 -122 0 -144 -259 -56 0 0 259 -114 0 rlineto
            return
          </CharString>
          <CharString index="16">
            10 96 -280 0 0 524 -115 0 0 -620 rlineto
            return
          </CharString>
          <CharString index="17">
            98 620 -106 hlineto
            5 -409 -4 0 -199 409 -108 0 0 -620 106 0 -4 414 5 0 rlineto
            return
          </CharString>
          <CharString index="18">
            152 97 121 223 hvcurveto
            -1 198 -79 110 -141 0 rrcurveto
            -152 -97 -121 -223 -198 80 -110 141 hvcurveto
            return
          </CharString>
          <CharString index="19">
            78 42 -80 -159 -150 -36 -73 -76 -78 -42 80 159 150 36 73 76 hvcurveto
            return
          </CharString>
          <CharString index="20">
            123 15 -146 268 rlineto
            58 42 43 54 0 78 0 129 -96 82 -307 -40 rrcurveto
            return
          </CharString>
          <CharString index="21">
            -619 113 214 vlineto
            98 2 rlineto
            return
          </CharString>
          <CharString index="22">
            121 16 56 -43 0 -82 0 -54 -27 -44 -41 -28 rrcurveto
            -109 -3 rlineto
            return
          </CharString>
          <CharString index="23">
            -103 vlineto
            299 -12 107 103 0 98 0 148 -289 41 0 93 0 45 50 27 201 -14 rrcurveto
            -6 103 rlineto
            -258 14 -106 -98 0 -93 0 -143 289 -36 0 -101 0 -52 -76 -36 -211 16 rrcurveto
            return
          </CharString>
          <CharString index="24">
            177 96 -467 hlineto
            -8 -96 182 0 0 -524 116 0 rlineto
            return
          </CharString>
          <CharString index="25">
            133 82 87 144 hvcurveto
            405 -115 -425 vlineto
            -80 -29 -32 -63 -60 -37 39 89 vhcurveto
            409 -115 -414 vlineto
            -142 76 -80 128 vhcurveto
            return
          </CharString>
          <CharString index="26">
            112 hlineto
            14 117 20 236 13 267 rrcurveto
            -107 hlineto
            -3 -63 -11 -375 -4 -31 rrcurveto
            -3 hlineto
            -27 101 -22 82 -27 100 rrcurveto
            -61 hlineto
            -26 -100 -18 -75 -27 -108 rrcurveto
            -4 hlineto
            -3 31 -17 375 -2 63 rrcurveto
            -111 hlineto
            13 -267 19 -236 14 -117 rrcurveto
            110 0 77 297 rlineto
            return
          </CharString>
          <CharString index="27">
            196 414 -118 0 -133 -307 rlineto
            return
          </CharString>
          <CharString index="28">
            -137 309 -122 -4 198 -414 0 -204 rlineto
            return
          </CharString>
          <CharString index="29">
            8 100 -305 -2 297 425 0 97 -413 0 -8 -100 296 2 -298 -425 0 -97 rlineto
            return
          </CharString>
          <CharString index="30">
            331 0 10 88 -235 0 0 700 230 0 0 89 -336 0 rlineto
            return
          </CharString>
          <CharString index="31">
            -6 -89 338 0 0 878 -334 0 0 -90 228 0 0 -699 rlineto
            return
          </CharString>
          <CharString index="32">
            -54 40 -101 85 -56 55 rrcurveto
            -75 -90 rlineto
            69 -48 115 -60 71 -30 rrcurveto
            return
          </CharString>
          <CharString index="33">
            -51 -33 26 44 hvcurveto
            0 55 41 33 154 -16 1 -41 0 -33 2 -29 rrcurveto
            -35 -24 -41 -15 -38 0 rrcurveto
            return
          </CharString>
          <CharString index="34">
            102 5 rlineto
            -5 69 -4 79 0 97 0 194 -75 62 -300 5 rrcurveto
            -11 -94 rlineto
            214 -7 55 -23 6 -96 -210 9 -94 -80 0 -100 rrcurveto
            return
          </CharString>
          <CharString index="35">
            -81 61 -49 89 vhcurveto
            72 0 53 33 38 37 rrcurveto
            3 -24 5 -32 1 -4 rrcurveto
            return
          </CharString>
          <CharString index="36">
            0 -154 82 -117 311 26 rrcurveto
            return
          </CharString>
          <CharString index="37">
            11 92 rlineto
            -224 -13 -70 52 0 128 0 96 38 57 249 -8 rrcurveto
            -7 105 rlineto
            -298 -1 -92 -124 0 -139 rrcurveto
            return
          </CharString>
          <CharString index="38">
            103 6 rlineto
            -5 110 -2 153 0 233 rrcurveto
            0 212 rlineto
            return
          </CharString>
          <CharString index="39">
            -111 -10 0 -191 rlineto
            -8 1 -7 0 -8 0 rrcurveto
            -158 -129 -105 -184 -148 77 -87 105 hvcurveto
            57 0 46 27 34 33 rrcurveto
            return
          </CharString>
          <CharString index="40">
            11 93 rlineto
            -220 5 -75 33 -12 100 rrcurveto
            321 9 rlineto
            18 173 -67 110 -140 0 -131 0 -112 -118 0 -153 0 -162 85 -93 322 3 rrcurveto
            return
          </CharString>
          <CharString index="41">
            69 0 31 -49 3 -79 -62 -2 -101 -3 -53 -2 5 93 40 42 68 0 rrcurveto
            return
          </CharString>
          <CharString index="42">
            284 14 68 114 0 182 0 81 -1 215 -2 55 -50 15 -50 9 -50 0 rrcurveto
            -147 -123 -101 -158 -128 79 -79 104 hvcurveto
            53 0 42 18 33 24 -3 -126 -26 -17 -221 -18 rrcurveto
            return
          </CharString>
          <CharString index="43">
            -65 -51 47 99 92 49 47 71 hvcurveto
            26 0 27 -5 28 -8 rrcurveto
            -251 vlineto
            -27 -13 -29 -8 -29 0 rrcurveto
            return
          </CharString>
          <CharString index="44">
            9 140 -117 0 -7 -140 rlineto
            return
          </CharString>
          <CharString index="45">
            -173 414 -278 hlineto
            -9 -79 175 -8 0 -327 -173 0 0 -84 rlineto
            return
          </CharString>
          <CharString index="46">
            119 14 -173 256 rlineto
            57 74 53 78 49 77 rrcurveto
            return
          </CharString>
          <CharString index="47">
            -114 9 rlineto
            -44 -74 -44 -68 -51 -65 rrcurveto
            -59 -1 0 418 rlineto
            return
          </CharString>
          <CharString index="48">
            -111 -10 0 -701 111 0 0 213 59 2 rlineto
            return
          </CharString>
          <CharString index="49">
            9 84 -154 0 0 615 -251 0 rlineto
            return
          </CharString>
          <CharString index="50">
            149 -8 0 -528 -154 0 0 -84 rlineto
            return
          </CharString>
          <CharString index="51">
            51 33 -28 -88 hvcurveto
            -300 111 339 vlineto
            121 -56 51 -87 vhcurveto
            -69 0 -51 -32 -40 -36 rrcurveto
            return
          </CharString>
          <CharString index="52">
            -6 57 -103 -6 rlineto
            6 -113 2 -157 0 -224 rrcurveto
            112 hlineto
            return
          </CharString>
          <CharString index="53">
            0 160 -2 130 -2 93 rrcurveto
            31 20 32 13 38 0 rrcurveto
            return
          </CharString>
          <CharString index="54">
            133 110 109 166 162 -86 91 -125 -132 -111 -114 -162 -161 88 -91 123 hvcurveto
            return
          </CharString>
          <CharString index="55">
            -72 -46 62 121 109 44 55 67 72 46 -62 -120 -110 -44 -55 -67 hvcurveto
            return
          </CharString>
          <CharString index="56">
            9 84 -151 0 rlineto
            -2 106 -1 84 -2 75 56 27 69 18 86 5 rrcurveto
            return
          </CharString>
          <CharString index="57">
            -94 -12 -71 -41 -45 -52 -2 25 -6 56 -1 5 rrcurveto
            -206 0 -9 -79 118 -8 rlineto
            2 -88 1 -104 2 -135 rrcurveto
            -121 -84 hlineto
            return
          </CharString>
          <CharString index="58">
            -261 18 -92 -82 0 -86 0 -125 266 -18 0 -71 0 -39 -61 -23 -198 13 rrcurveto
            -4 -95 rlineto
            287 -13 92 77 0 86 rrcurveto
            return
          </CharString>
          <CharString index="59">
            0 125 -267 29 0 67 0 35 57 22 185 -16 rrcurveto
            return
          </CharString>
          <CharString index="60">
            12 92 rlineto
            -152 3 -47 18 0 78 rrcurveto
            230 188 85 -188 144 vlineto
            return
          </CharString>
          <CharString index="61">
            -110 -10 0 -134 -92 0 -10 -85 102 0 0 -247 rlineto
            0 -128 73 -50 224 4 rrcurveto
            return
          </CharString>
          <CharString index="62">
            103 5 rlineto
            -6 114 -2 157 0 224 rrcurveto
            -111 hlineto
            return
          </CharString>
          <CharString index="63">
            0 -161 1 -129 2 -92 -30 -21 -33 -13 -37 0 rrcurveto
            -51 -32 28 88 hvcurveto
            0 303 rlineto
            return
          </CharString>
          <CharString index="64">
            -111 -7 0 -335 rlineto
            -122 55 -50 87 vhcurveto
            69 0 50 32 40 35 rrcurveto
            return
          </CharString>
          <CharString index="65">
            100 hlineto
            16 108 23 201 10 189 rrcurveto
            -104 hlineto
            return
          </CharString>
          <CharString index="66">
            -4 -132 -4 -102 -5 -134 rrcurveto
            -3 hlineto
            -13 44 -48 139 -12 36 rrcurveto
            -64 hlineto
            -11 -35 -46 -138 -13 -44 rrcurveto
            -4 hlineto
            -6 134 -5 101 -4 131 rrcurveto
            -107 hlineto
            9 -189 21 -201 18 -108 rrcurveto
            97 0 78 247 rlineto
            return
          </CharString>
          <CharString index="67">
            179 16 53 47 72 201 rrcurveto
            return
          </CharString>
          <CharString index="68">
            55 148 49 150 36 113 rrcurveto
            -107 hlineto
            -13 -33 -68 -237 -31 -96 rrcurveto
            -10 hlineto
            return
          </CharString>
          <CharString index="69">
            -46 110 -53 150 -41 110 rrcurveto
            -113 -8 rlineto
            38 -99 103 -265 47 -105 rrcurveto
            19 -7 rlineto
            -29 -67 -31 -11 -118 -17 rrcurveto
            return
          </CharString>
          <CharString index="70">
            8 99 -294 -4 284 310 0 93 -403 0 -9 -98 285 3 -285 -309 0 -94 rlineto
            return
          </CharString>
          <CharString index="71">
            37 89 rlineto
            -160 48 -75 36 0 50 rrcurveto
            return
          </CharString>
          <CharString index="72">
            0 53 86 41 0 63 0 39 -31 40 -82 22 rrcurveto
            return
          </CharString>
          <CharString index="73">
            0 56 -92 49 0 45 0 40 76 35 167 46 rrcurveto
            -35 90 rlineto
            -235 -74 -80 -73 0 -72 rrcurveto
            return
          </CharString>
          <CharString index="74">
            1 -76 99 -42 0 -41 0 -27 -34 -17 -115 -12 rrcurveto
            -3 -78 rlineto
            return
          </CharString>
          <CharString index="75">
            0 -44 -91 -44 0 -79 rrcurveto
            0 -76 76 -46 233 -75 rrcurveto
            return
          </CharString>
          <CharString index="76">
            0 76 -99 41 0 41 0 27 34 18 114 11 rrcurveto
            4 79 rlineto
            return
          </CharString>
          <CharString index="77">
            0 45 91 43 0 80 0 76 -76 46 -233 74 rrcurveto
            -37 -88 rlineto
            160 -48 75 -37 0 -50 rrcurveto
            return
          </CharString>
          <CharString index="78">
            0 -53 -86 -41 0 -63 0 -39 31 -39 83 -22 rrcurveto
            return
          </CharString>
          <CharString index="79">
            0 -57 91 -48 0 -46 0 -39 -75 -35 -167 -46 rrcurveto
            return
          </CharString>
          <CharString index="80">
            3 140 -113 0 -2 -140 rlineto
            return
          </CharString>
          <CharString index="81">
            3 140 -114 0 -2 -140 rlineto
            return
          </CharString>
          <CharString index="82">
            80 64 -163 208 166 199 -79 65 -166 -214 -5 -109 rlineto
            return
          </CharString>
          <CharString index="83">
            80 64 -164 206 168 201 -79 65 -167 -214 -5 -109 rlineto
            return
          </CharString>
          <CharString index="84">
            -346 -95 346 hlineto
            return
          </CharString>
          <CharString index="85">
            75 -195 vlineto
            118 77 65 61 0 71 0 67 -65 54 -216 -1 rrcurveto
            -6 -77 rlineto
            154 -5 44 -21 0 -41 0 -52 -74 -54 -139 -85 rrcurveto
            9 -69 rlineto
            return
          </CharString>
          <CharString index="86">
            216 4 79 56 0 67 0 46 -45 39 -119 19 rrcurveto
            154 106 -7 69 -277 0 0 -75 180 2 0 -3 -148 -102 0 -44 rlineto
            125 -12 52 -21 0 -25 0 -27 -52 -17 -164 -4 rrcurveto
            return
          </CharString>
          <CharString index="87">
            28 -49 rlineto
            73 27 120 62 66 53 rrcurveto
            -82 84 rlineto
            -53 -59 -94 -80 -58 -38 rrcurveto
            return
          </CharString>
          <CharString index="88">
            7 73 -108 0 0 337 -86 -7 0 -59 -113 -13 2 -65 111 3 0 -196 -119 0 0 -73 rlineto
            return
          </CharString>
          <CharString index="89">
            167 214 5 110 -167 212 -80 -63 164 -207 -168 -200 rlineto
            return
          </CharString>
          <CharString index="90">
            166 214 5 110 -167 212 -80 -63 164 -207 -167 -200 rlineto
            return
          </CharString>
          <CharString index="91">
            430 72 -430 hlineto
            return
          </CharString>
          <CharString index="92">
            6 72 -54 -1 2 128 -83 -7 2 -121 -125 1 rlineto
            2 16 57 207 7 26 rrcurveto
            -95 6 rlineto
            -32 -116 -17 -128 4 -83 rrcurveto
            198 1 -1 -75 83 0 -1 75 rlineto
            return
          </CharString>
          <CharString index="93">
            118 77 65 61 0 71 0 67 -65 54 -216 -1 rrcurveto
            -6 -77 rlineto
            154 -5 44 -21 0 -41 0 -52 -74 -54 -139 -85 rrcurveto
            9 -69 rlineto
            return
          </CharString>
          <CharString index="94">
            68 65 -184 140 -7 0 -182 -153 54 -51 124 101 rlineto
            return
          </CharString>
          <CharString index="95">
            54 0 49 58 36 83 rrcurveto
            -58 27 rlineto
            -27 -54 -23 -25 -19 0 rrcurveto
            return
          </CharString>
          <CharString index="96">
            -38 0 -47 87 -64 0 -54 0 -50 -59 -35 -82 rrcurveto
            57 -27 rlineto
            27 53 23 25 19 0 rrcurveto
            38 0 48 -86 64 0 rrcurveto
            return
          </CharString>
          <CharString index="97">
            -82 -52 -48 -62 -60 54 -47 80 81 53 47 64 hvcurveto
            57 -55 49 -79 vhcurveto
            return
          </CharString>
          <CharString index="98">
            5 hlineto
            -275 -82 vlineto
            26 92 26 92 25 91 rrcurveto
            return
          </CharString>
          <CharString index="99">
            255 0 8 96 -168 0 0 174 133 0 0 84 -133 0 0 170 162 0 0 96 -330 0 rlineto
            -62 -205 -68 -209 -57 -206 rrcurveto
            108 hlineto
            15 55 15 55 16 55 rrcurveto
            106 hlineto
            return
          </CharString>
          <CharString index="100">
            0 242 -114 98 -319 -42 rrcurveto
            -268 -62 -78 62 vlineto
            return
          </CharString>
          <CharString index="101">
            -274 vlineto
            299 -42 134 122 0 242 rrcurveto
            return
          </CharString>
          <CharString index="102">
            184 105 vlineto
            5 78 -110 0 rlineto
            return
          </CharString>
          <CharString index="103">
            180 vlineto
            154 17 50 -78 0 -166 0 -166 -52 -71 -152 22 rrcurveto
            return
          </CharString>
          <CharString index="104">
            152 37 72 77 vhcurveto
            30 0 25 -12 19 -23 rrcurveto
            -173 -326 rlineto
            -10 36 -5 46 0 55 rrcurveto
            return
          </CharString>
          <CharString index="105">
            -31 0 -25 12 -19 24 rrcurveto
            174 326 rlineto
            10 -36 5 -46 0 -56 0 -152 -37 -72 -77 0 rrcurveto
            return
          </CharString>
          <CharString index="106">
            0 99 -20 76 -38 53 rrcurveto
            38 71 rlineto
            return
          </CharString>
          <CharString index="107">
            -71 36 -26 -52 rlineto
            -30 16 -35 9 -39 0 -152 0 -97 -121 0 -223 0 -100 20 -78 39 -52 rrcurveto
            -38 -69 rlineto
            return
          </CharString>
          <CharString index="108">
            71 -36 27 51 rlineto
            29 -16 34 -8 39 0 rrcurveto
            return
          </CharString>
          <CharString index="109">
            -51 -33 26 44 hvcurveto
            0 55 41 33 154 -16 1 -41 0 -33 2 -29 -35 -24 -41 -15 -38 0 rrcurveto
            return
          </CharString>
          <CharString index="110">
            68 65 -184 140 -7 0 rlineto
            return
          </CharString>
          <CharString index="111">
            54 -51 124 101 rlineto
            return
          </CharString>
          <CharString index="112">
            8 92 rlineto
            -171 3 -26 32 -1 99 rrcurveto
            205 5 rlineto
            12 177 -47 105 -100 0 -53 0 -40 -26 -27 -49 rrcurveto
            return
          </CharString>
          <CharString index="113">
            34 0 13 -43 1 -83 rrcurveto
            -104 -2 rlineto
            2 94 14 34 40 0 rrcurveto
            return
          </CharString>
          <CharString index="114">
            -32 -17 23 44 hvcurveto
            0 49 23 29 70 -3 0 -43 3 -37 10 -32 rrcurveto
            -15 -19 -19 -11 -23 0 rrcurveto
            return
          </CharString>
          <CharString index="115">
            9 84 -173 0 0 414 -278 0 -9 -79 175 -8 0 -327 -173 0 0 -84 rlineto
            return
          </CharString>
          <CharString index="116">
            110 46 55 67 vhcurveto
            27 0 24 -9 20 -17 rrcurveto
            -169 -242 rlineto
            -10 27 -5 35 0 41 rrcurveto
            return
          </CharString>
          <CharString index="117">
            -27 0 -24 9 -19 17 rrcurveto
            169 240 rlineto
            10 -26 5 -34 0 -40 0 -111 -46 -55 -68 0 rrcurveto
            return
          </CharString>
          <CharString index="118">
            0 72 -17 59 -30 42 rrcurveto
            43 61 rlineto
            return
          </CharString>
          <CharString index="119">
            -64 42 -36 -51 rlineto
            -30 19 -37 9 -40 0 -132 0 -111 -114 0 -162 0 -73 18 -59 32 -43 rrcurveto
            -42 -59 rlineto
            return
          </CharString>
          <CharString index="120">
            63 -42 36 51 rlineto
            30 -18 35 -9 39 0 rrcurveto
            return
          </CharString>
          <CharString index="121">
            75 0 70 59 56 95 rrcurveto
            -63 32 rlineto
            -43 -62 -37 -35 -48 0 -46 0 -35 30 -46 72 rrcurveto
            -77 -45 rlineto
            54 -97 67 -49 73 0 rrcurveto
            return
          </CharString>
          <CharString index="122">
            5 140 -116 0 -4 -140 rlineto
            return
          </CharString>
          <CharString index="123">
            182 153 -53 52 -124 -101 -127 102 -69 -66 184 -140 rlineto
            return
          </CharString>
          <CharString index="124">
            49 -15 rlineto
            57 84 24 79 -5 92 rrcurveto
            -119 -1 rlineto
            15 -78 3 -76 -24 -85 rrcurveto
            return
          </CharString>
          <CharString index="125">
            57 -18 rlineto
            57 58 27 86 -4 75 -3 0 -128 -6 -2 0 rrcurveto
            19 -60 3 -70 -26 -65 rrcurveto
            return
          </CharString>
          <CharString index="126">
            -56 18 rlineto
            -58 -58 -26 -86 4 -75 rrcurveto
            132 6 rlineto
            -19 60 -2 70 25 65 rrcurveto
            return
          </CharString>
          <CharString index="127">
            57 -18 rlineto
            57 58 27 86 -4 75 -3 0 -128 -6 -2 0 19 -60 3 -70 -26 -65 rrcurveto
            return
          </CharString>
          <CharString index="128">
            52 -33 rlineto
            56 51 64 76 38 57 rrcurveto
            -106 50 rlineto
            -23 -58 -44 -87 -37 -56 rrcurveto
            return
          </CharString>
          <CharString index="129">
            53 -32 rlineto
            57 51 63 75 39 58 rrcurveto
            -111 44 rlineto
            -23 -61 -40 -78 -38 -57 rrcurveto
            return
          </CharString>
          <CharString index="130">
            -82 -52 -48 -62 -60 54 -47 80 81 53 47 64 57 -55 49 -79 hvcurveto
            return
          </CharString>
          <CharString index="131">
            6 147 -115 0 -6 -147 rlineto
            return
          </CharString>
          <CharString index="132">
            74 78 -220 191 226 190 -74 78 -234 -215 -7 -109 rlineto
            return
          </CharString>
          <CharString index="133">
            234 215 7 109 -235 213 -74 -77 220 -192 -226 -190 rlineto
            return
          </CharString>
          <CharString index="134">
            110 71 88 126 124 -60 76 -108 -110 -72 -88 -126 -123 61 -77 108 hvcurveto
            return
          </CharString>
          <CharString index="135">
            58 30 -53 -88 -81 -27 -49 -57 -59 -30 53 88 81 26 49 59 hvcurveto
            return
          </CharString>
          <CharString index="136">
            0 55 -51 46 -156 16 rrcurveto
            6 73 182 0 8 75 -262 0 -15 -208 rlineto
            149 -10 57 -20 0 -29 0 -33 -57 -17 -159 -10 rrcurveto
            5 -79 rlineto
            202 11 91 56 0 74 rrcurveto
            return
          </CharString>
          <CharString index="137">
            89 75 57 83 hvcurveto
            0 116 -140 31 -98 -73 13 60 48 35 126 40 rrcurveto
            -29 72 rlineto
            -166 -53 -80 -91 0 -113 rrcurveto
            -107 66 -57 96 vhcurveto
            return
          </CharString>
          <CharString index="138">
            -49 -37 32 70 hvcurveto
            83 42 76 -18 0 -62 rrcurveto
            -41 -31 -23 -42 vhcurveto
            return
          </CharString>
          <CharString index="139">
            44 112 61 109 73 107 rrcurveto
            74 -307 vlineto
            -7 -76 222 0 2 -5 rlineto
            -75 -103 -59 -102 -45 -107 rrcurveto
            return
          </CharString>
          <CharString index="140">
            106 63 54 60 hvcurveto
            0 46 -44 29 -50 26 rrcurveto
            return
          </CharString>
          <CharString index="141">
            55 24 32 32 0 44 rrcurveto
            60 -65 39 -84 -104 -55 -57 -52 vhcurveto
            0 -45 39 -30 46 -25 rrcurveto
            return
          </CharString>
          <CharString index="142">
            -58 -23 -34 -33 0 -47 rrcurveto
            -60 58 -42 95 vhcurveto
            return
          </CharString>
          <CharString index="143">
            21 24 20 42 46 24 -22 -28 vhcurveto
            0 -25 -21 -21 -32 -16 rrcurveto
            -45 22 -38 20 0 29 rrcurveto
            return
          </CharString>
          <CharString index="144">
            -49 -25 24 29 hvcurveto
            0 27 21 21 35 15 48 -23 43 -20 0 -28 rrcurveto
            -24 -28 -21 -45 vhcurveto
            return
          </CharString>
          <CharString index="145">
            167 53 80 91 0 114 rrcurveto
            107 -67 56 -96 -89 -75 -56 -83 vhcurveto
            0 -116 141 -32 97 73 -13 -58 -47 -35 -127 -41 rrcurveto
            return
          </CharString>
          <CharString index="146">
            41 31 24 42 vhcurveto
            49 0 38 -32 -1 -71 -83 -42 -76 18 0 62 rrcurveto
            return
          </CharString>
          <CharString index="147">
            55 24 32 32 0 44 rrcurveto
            60 -65 39 -84 -104 -55 -57 -52 vhcurveto
            return
          </CharString>
          <CharString index="148">
            0 -45 39 -30 46 -25 rrcurveto
            return
          </CharString>
          <CharString index="149">
            9 7 6 9 9 7 -6 -9 -9 -7 -7 -9 vhcurveto
            -9 -7 6 10 hvcurveto
            return
          </CharString>
          <CharString index="150">
            8 -2 3 -4 -4 -2 -3 -8 -9 2 -3 4 vhcurveto
            4 2 3 9 hvcurveto
            return
          </CharString>
          <CharString index="151">
            -6 2 -3 5 vhcurveto
            4 0 2 2 1 4 rrcurveto
            5 hlineto
            return
          </CharString>
          <CharString index="152">
            -23.83398 -49 -26.58301 -33 -36.66699 0 -55.91602 0 -31.16699 100 -91.66699 0 -90.75 0 -24.75 -100 -55.91602 0 -55.91699 0 -31.16699 100 -91.66602 0 -81.58398 0 -42.16602 -72 -31.16699 -67 rrcurveto
            65.08301 -34 rlineto
            23.83398 48 24.75 34 38.5 0 56.83301 0 34.83301 -100 87.08398 0 86.16602 0 28.41699 100 56.83301 0 56.83398 0 34.83301 -100 87.08301 0 80.66699 0 42.16699 68 32.08301 71 rrcurveto
            return
          </CharString>
          <CharString index="153">
            100.83301 0 -11 -197 167.75 72 31.16699 -103 -175.08301 -50 114.58301 -153 -80.66699 -63 -97.16602 166 -97.16699 -166 -80.66699 63 114.58398 153 -175.08398 50 31.16699 103 167.75 -72 rlineto
            return
          </CharString>
          <CharString index="154">
            100.83301 0 -11 -197 167.75 72 31.16699 -103 -175.08398 -50 114.58398 -153 -80.66699 -63 -97.16699 166 -97.16602 -166 -80.66699 63 114.58301 153 -175.08301 50 31.16699 103 167.75 -72 rlineto
            return
          </CharString>
          <CharString index="155">
            0 -115 313.5 -205 -313.5 -207 0 -114 402.41602 273 0 97 rlineto
            return
          </CharString>
          <CharString index="156">
            387.75 877 -80.66602 41 -388.66699 -878 rlineto
            return
          </CharString>
          <CharString index="157">
            100.83398 0 -11 -197 167.75 72 31.16602 -103 -175.08301 -50 114.58301 -153 -80.66602 -63 -97.16699 166 -97.16699 -166 -80.66602 63 114.58301 153 -175.08301 50 31.16602 103 167.75 -72 rlineto
            return
          </CharString>
          <CharString index="158">
            -94.41699 -911 94.41699 hlineto
            return
          </CharString>
          <CharString index="159">
            0 572 434.5 -284 rlineto
            return
          </CharString>
          <CharString index="160">
            -116.41699 0 25.66699 212 117.33301 0 rlineto
            return
          </CharString>
          <CharString index="161">
            -49 35.75 -41 45.83301 47.66699 34.83301 41 49 49 -34.83301 41 -47.66699 -45.83301 -35.75 -41 -49 vhcurveto
            return
          </CharString>
          <CharString index="162">
            -49 35.75 -41 45.83398 47.66602 34.83398 41 49 49 -34.83398 41 -47.66602 -45.83398 -35.75 -41 -49 vhcurveto
            return
          </CharString>
          <CharString index="163">
            -50 35.75 -40 45.83301 47.66699 34.83301 40 50 49 -34.83301 40 -47.66699 -45.83301 -35.75 -40 -49 vhcurveto
            return
          </CharString>
          <CharString index="164">
            -50 35.75 -40 45.83398 47.66602 34.83398 40 50 49 -34.83398 40 -47.66602 -45.83398 -35.75 -40 -49 vhcurveto
            return
          </CharString>
          <CharString index="165">
            -49 35.75 -41 46.75 46.75 35.75 41 49 49 -35.75 41 -46.75 vhcurveto
            -46.75 -35.75 -41 -49 hvcurveto
            return
          </CharString>
          <CharString index="166">
            -518.83301 -92 518.83301 hlineto
            return
          </CharString>
          <CharString index="167">
            -50 35.75 -40 46.75 46.75 35.75 40 50 49 -35.75 40 -46.75 -46.75 -35.75 -40 -49 vhcurveto
            return
          </CharString>
          <CharString index="168">
            -518.83301 -91 518.83301 hlineto
            return
          </CharString>
          <CharString index="169">
            0 -80 -50.41699 -41 -52.25 -12 rrcurveto
            262 vlineto
            60.5 -30 42.16699 -45 0 -54 rrcurveto
            return
          </CharString>
          <CharString index="170">
            -111.83301 0 rlineto
            return
          </CharString>
          <CharString index="171">
            12.83301 -452 87.08301 0 rlineto
            return
          </CharString>
          <CharString index="172">
            -38.5 -30.25 -34 -41 -43 30.25 -33 38.5 40.33398 29.33301 33 43 41 -29.33301 34 -40.33398 hvcurveto
            return
          </CharString>
          <CharString index="173">
            -39.41602 -83 346.5 -194 -346.5 -193 38.5 -84 408.83301 229 0 96 rlineto
            return
          </CharString>
          <CharString index="174">
            -39.41699 -83 346.5 -194 -346.5 -193 38.5 -84 408.83301 229 0 96 rlineto
            return
          </CharString>
          <CharString index="175">
            359.33301 92 -359.33301 hlineto
            return
          </CharString>
          <CharString index="176">
            -402.41699 -271 0 -97 402.41699 -273 0 115 -314.41699 206 314.41699 207 rlineto
            return
          </CharString>
          <CharString index="177">
            -434.5 288 434.5 284 rlineto
            return
          </CharString>
          <CharString index="178">
            49 -35.75 41 -45.83301 -47.66699 -34.83301 -41 -49 -49 34.83301 -41 47.66699 45.83301 35.75 41 49 vhcurveto
            return
          </CharString>
          <CharString index="179">
            49 -35.75 40 -45.83301 -47.66699 -34.83301 -40 -49 -50 34.83301 -40 47.66699 45.83301 35.75 40 50 vhcurveto
            return
          </CharString>
          <CharString index="180">
            -407.91602 -229 0 -96 408.83301 -229 38.5 84 -346.5 193 346.5 194 rlineto
            return
          </CharString>
          <CharString index="181">
            -407.91699 -229 0 -96 408.83301 -229 38.5 84 -346.5 193 346.5 194 rlineto
            return
          </CharString>
          <CharString index="182">
            76.08301 81 -66.91699 hlineto
            20.16699 157 -86.16699 0 -19.25 -157 -116.41602 0 20.16602 157 -86.16602 0 -19.25 -157 -77.91699 0 0 -81 67.83301 0 -26.58301 -212 -75.16699 0 0 -80 66 0 -19.25 -160 rlineto
            86.16699 0 19.25 160 116.41699 0 -19.25 -160 85.25 0 19.25 160 77.91602 0 0 80 -67.83301 0 rlineto
            return
          </CharString>
          <CharString index="183">
            25.66602 212 117.33398 0 -26.58398 -212 rlineto
            return
          </CharString>
          <CharString index="184">
            -261.25 0 25.66699 212 262.16699 0 rlineto
            return
          </CharString>
          <CharString index="185">
            -387.75 -698 58.66602 -35 388.66699 698 rlineto
            return
          </CharString>
          <CharString index="186">
            33.91699 19.25 -27 -65 -63 -19.25 -31 -33.91699 -34.83301 -19.25 36 58 61 19.25 31 34.83301 hvcurveto
            return
          </CharString>
          <CharString index="187">
            -84.33301 -49.5 -71 -88 -89 49.5 -71 84.33301 84.33398 48.58301 71 89 89 -48.58301 70 -84.33398 hvcurveto
            return
          </CharString>
          <CharString index="188">
            67.83301 51.33398 55 74 74 -51.33398 56 -67.83301 -67.83301 -51.33398 -55 -74 hvcurveto
            -74 51.33398 -56 67.83301 vhcurveto
            return
          </CharString>
          <CharString index="189">
            -54 38.5 -43 49.5 50.41699 38.5 43 54 53 -38.5 43 -50.41699 -49.5 -38.5 -43 -53 vhcurveto
            return
          </CharString>
          <CharString index="190">
            -39.41602 -29.33398 -34 -41 -43 29.33398 -33 39.41602 39.41699 30.25 33 43 41 -30.25 34 -39.41699 hvcurveto
            return
          </CharString>
          <CharString index="191">
            -89.83301 -252 -226.41699 -89 226.41699 -252 89.83301 252 228.25 89 -228.25 hlineto
            return
          </CharString>
          <CharString index="192">
            -81.58301 0 -67.83398 -35 -53.16602 -67 rrcurveto
            68.75 -58 rlineto
            35.75 48 45.83301 21 42.16699 0 55 0 40.33301 -28 0 -49 0 -102 -158.58301 3 0 -165 rrcurveto
            -34 98.08301 29 vlineto
            0 135 167.75 -18 0 160 rrcurveto
            83 -69.66699 77 -122.83301 vhcurveto
            return
          </CharString>
          <CharString index="193">
            -38.5 -30.25 -34 -41 -43 30.25 -33 38.5 39.41699 30.25 33 43 41 -30.25 34 -39.41699 hvcurveto
            return
          </CharString>
          <CharString index="194">
            387.75 877 -80.66699 41 -388.66602 -878 rlineto
            return
          </CharString>
          <CharString index="195">
            -474.83398 0 -41.25 -92 516.08398 0 rlineto
            return
          </CharString>
          <CharString index="196">
            -562.83398 0 -40.33301 -91 603.16699 0 rlineto
            return
          </CharString>
          <CharString index="197">
            -86.16699 -800 86.16699 hlineto
            return
          </CharString>
          <CharString index="198">
            -86.16699 -800 86.16699 hlineto
            522.5 353 0 97 rlineto
            return
          </CharString>
          <CharString index="199">
            -1479.5 -92 1479.5 hlineto
            return
          </CharString>
          <CharString index="200">
            -594.91699 -92 594.91699 hlineto
            return
          </CharString>
          <CharString index="201">
            -594.91699 -91 594.91699 hlineto
            return
          </CharString>
          <CharString index="202">
            -71.5 -67 209 -250 -209 -250 71.5 -67 259.41699 317 rlineto
            return
          </CharString>
          <CharString index="203">
            -259.41699 -317 259.41699 -317 71.5 67 -209 250 209 250 rlineto
            return
          </CharString>
          <CharString index="204">
            406.08301 92 -406.08301 hlineto
            return
          </CharString>
          <CharString index="205">
            -71.5 67 -259.41699 -317 259.41699 -317 71.5 67 -209 250 rlineto
            return
          </CharString>
          <CharString index="206">
            -354.75 -239 0 -97 352 -239 50.41602 81 -314.41602 206 314.41602 207 rlineto
            return
          </CharString>
          <CharString index="207">
            -402.41602 -271 0 -97 402.41602 -273 0 115 -314.41602 206 314.41602 207 rlineto
            return
          </CharString>
          <CharString index="208">
            0 -115 313.5 -205 -313.5 -207 0 -114 402.41699 273 0 97 rlineto
            return
          </CharString>
          <CharString index="209">
            -522.5 -350 0 -97 522.5 -353 86.16699 0 0 800 rlineto
            return
          </CharString>
          <CharString index="210">
            -800 86.16699 800 vlineto
            return
          </CharString>
        <CharString name=".notdef">
          -200 50 900 50 hstem
          5 54 432 54 vstem
          5 -200 rmoveto
          540 1000 -540 hlineto
          77 -50 rmoveto
          386 0 -193 -390 rlineto
          216 316 rmoveto
          0 -752 -186 376 rlineto
          -246 -376 rmoveto
          0 752 186 -376 rlineto
          30 -60 rmoveto
          193 -390 -386 0 rlineto
          endchar
        </CharString>
        <CharString name="A">
          17 -21 25 -21 25 -21 168 84 271 94 hstemhm
          27 497 hintmask 10011100
          408 -4 rmoveto
          hintmask 00111100
          -103 callsubr
          hintmask 01011100
          -102 callsubr
          hintmask 00111100
          -138 531 rmoveto
          -101 callsubr
          endchar
        </CharString>
        <CharString name="AE">
          0 96 69 84 21 84 170 96 hstem
          258 95 vstem
          253 524 rmoveto
          -9 callsubr
          5 -524 rmoveto
          -8 callsubr
          endchar
        </CharString>
        <CharString name="AEacute">
          0 96 69 84 21 84 170 96 hstem
          258 95 vstem
          202 730 rmoveto
          -20 callsubr
          51 -206 rmoveto
          -9 callsubr
          5 -524 rmoveto
          -8 callsubr
          endchar
        </CharString>
        <CharString name="Aacute">
          17 -21 25 -21 25 -21 168 84 271 94 hstemhm
          27 497 hintmask 00111100
          155 730 rmoveto
          -20 callsubr
          hintmask 10011100
          253 -734 rmoveto
          hintmask 00111100
          -103 callsubr
          hintmask 01011100
          -102 callsubr
          hintmask 00111100
          -138 531 rmoveto
          -101 callsubr
          endchar
        </CharString>
        <CharString name="Abreve">
          17 -21 25 -21 25 -21 168 84 271 94 65 89 hstemhm
          27 497 hintmask 00111110
          274 686 rmoveto
          14 callsubr
          hintmask 10011110
          134 -690 rmoveto
          hintmask 00111110
          -103 callsubr
          hintmask 01011110
          -102 callsubr
          hintmask 00111110
          -138 531 rmoveto
          -101 callsubr
          endchar
        </CharString>
        <CharString name="Acircumflex">
          17 -21 25 -21 25 -21 168 84 271 94 hstemhm
          27 497 hintmask 00111100
          392 683 rmoveto
          -13 callsubr
          hintmask 10011100
          143 -789 rmoveto
          hintmask 00111100
          -103 callsubr
          hintmask 01011100
          -102 callsubr
          hintmask 00111100
          -138 531 rmoveto
          -101 callsubr
          endchar
        </CharString>
        <CharString name="Adieresis">
          17 -21 25 -21 25 -21 168 84 271 94 74 140 hstemhm
          107 113.5 109.5 112.5 hintmask 00111111
          441 695 rmoveto
          -27 callsubr
          -110 hmoveto
          -26 callsubr
          hintmask 10011111
          302 -699 rmoveto
          hintmask 00111111
          -103 callsubr
          hintmask 01011111
          -102 callsubr
          hintmask 00111111
          -138 531 rmoveto
          -101 callsubr
          endchar
        </CharString>
        <CharString name="Agrave">
          17 -21 25 -21 25 -21 168 84 271 94 hstemhm
          27 497 hintmask 00111100
          386 726 rmoveto
          -75 callsubr
          hintmask 10011100
          53 -682 rmoveto
          hintmask 00111100
          -103 callsubr
          hintmask 01011100
          -102 callsubr
          hintmask 00111100
          -138 531 rmoveto
          -101 callsubr
          endchar
        </CharString>
        <CharString name="Amacron">
          17 -21 25 -21 25 -21 168 84 271 94 97 95 hstemhm
          27 497 hintmask 00111110
          446 813 rmoveto
          -23 callsubr
          hintmask 10011110
          -38 -722 rmoveto
          hintmask 00111110
          -103 callsubr
          hintmask 01011110
          -102 callsubr
          hintmask 00111110
          -138 531 rmoveto
          -101 callsubr
          endchar
        </CharString>
        <CharString name="Aogonek">
          -220 87 154 -21 24 -21 22 -21 168 84 271 94 hstemhm
          27 497 -227 105 hintmask 10011101
          502 -220 rmoveto
          10 87 rlineto
          -80 7 -30 15 0 23 0 22 28 29 94 41 -53 206 -55 204 -61 207 rrcurveto
          -159 hlineto
          hintmask 01001110
          -62 -207 -54 -208 -53 -206 rrcurveto
          114 hlineto
          14 57 13 58 14 57 rrcurveto
          184 hlineto
          hintmask 00101101
          14 -57 13 -56 13 -56 -77 -44 -32 -39 0 -39 rrcurveto
          0 -52 56 -42 149 -7 rrcurveto
          -232 747 rmoveto
          8 hlineto
          hintmask 00011101
          23 -89 23 -91 22 -91 rrcurveto
          -144 hlineto
          22 91 23 90 23 90 rrcurveto
          endchar
        </CharString>
        <CharString name="Aring">
          17 -21 25 -21 25 -21 168 84 271 94 52 217 hstemhm
          27 497 hintmask 00111110
          273 890 rmoveto
          -10 callsubr
          hintmask 10011110
          135 -894 rmoveto
          hintmask 00111110
          -103 callsubr
          hintmask 01011110
          -102 callsubr
          hintmask 00111110
          -138 531 rmoveto
          -101 callsubr
          endchar
        </CharString>
        <CharString name="Aringacute">
          17 -21 25 -21 25 -21 168 84 271 94 52 217 hstemhm
          27 497 hintmask 00111110
          155 973 rmoveto
          -20 callsubr
          118 -83 rmoveto
          23 callsubr
          hintmask 10011110
          135 -894 rmoveto
          hintmask 00111110
          -103 callsubr
          hintmask 01011110
          -102 callsubr
          hintmask 00111110
          -138 531 rmoveto
          -101 callsubr
          endchar
        </CharString>
        <CharString name="Atilde">
          17 -21 25 -21 25 -21 168 84 271 94 69 89 -3 90 hstemhm
          27 497 hintmask 00111101
          350 690 rmoveto
          -12 callsubr
          hintmask 00111011
          -11 callsubr
          hintmask 10011101
          58 -694 rmoveto
          hintmask 00111101
          -103 callsubr
          hintmask 01011101
          -102 callsubr
          hintmask 00111101
          -138 531 rmoveto
          -101 callsubr
          endchar
        </CharString>
        <CharString name="B">
          -9 90 -60 -21 270 79 188 92 -9 -20 hstemhm
          84 113 176 110 -93 113 hintmask 10110101
          503 183 rmoveto
          0 78 -43 45 -77 22 rrcurveto
          hintmask 01101110
          60 28 40 48 0 71 0 141 -155 31 -244 -27 rrcurveto
          -620 vlineto
          240 -31 179 50 0 164 rrcurveto
          -306 351 rmoveto
          hintmask 10110110
          111 13 65 -26 0 -74 0 -72 -44 -30 -132 4 rrcurveto
          hintmask 10110101
          -263 vmoveto
          184 vlineto
          127 6 66 -16 0 -82 rrcurveto
          0 -85 -66 -24 -127 17 rrcurveto
          endchar
        </CharString>
        <CharString name="C">
          -7 101 -77 -21 523 110 hstemhm
          61 119 hintmask 10110000
          484 94 rmoveto
          -100 callsubr
          hintmask 01110000
          -99 callsubr
          endchar
        </CharString>
        <CharString name="CR.1.0">
          endchar
        </CharString>
        <CharString name="CR.10.0">
          endchar
        </CharString>
        <CharString name="CR.100.0">
          endchar
        </CharString>
        <CharString name="CR.100.1">
          endchar
        </CharString>
        <CharString name="CR.101.0">
          endchar
        </CharString>
        <CharString name="CR.101.1">
          endchar
        </CharString>
        <CharString name="CR.102.0">
          endchar
        </CharString>
        <CharString name="CR.102.1">
          endchar
        </CharString>
        <CharString name="CR.103.0">
          endchar
        </CharString>
        <CharString name="CR.103.1">
          endchar
        </CharString>
        <CharString name="CR.104.0">
          endchar
        </CharString>
        <CharString name="CR.104.1">
          endchar
        </CharString>
        <CharString name="CR.105.0">
          endchar
        </CharString>
        <CharString name="CR.105.1">
          endchar
        </CharString>
        <CharString name="CR.106.0">
          endchar
        </CharString>
        <CharString name="CR.106.1">
          endchar
        </CharString>
        <CharString name="CR.107.0">
          endchar
        </CharString>
        <CharString name="CR.107.1">
          endchar
        </CharString>
        <CharString name="CR.108.0">
          endchar
        </CharString>
        <CharString name="CR.108.1">
          endchar
        </CharString>
        <CharString name="CR.109.0">
          endchar
        </CharString>
        <CharString name="CR.109.1">
          endchar
        </CharString>
        <CharString name="CR.11.0">
          endchar
        </CharString>
        <CharString name="CR.110.0">
          endchar
        </CharString>
        <CharString name="CR.110.1">
          endchar
        </CharString>
        <CharString name="CR.111.0">
          endchar
        </CharString>
        <CharString name="CR.111.1">
          endchar
        </CharString>
        <CharString name="CR.112.0">
          endchar
        </CharString>
        <CharString name="CR.112.1">
          endchar
        </CharString>
        <CharString name="CR.113.0">
          endchar
        </CharString>
        <CharString name="CR.113.1">
          endchar
        </CharString>
        <CharString name="CR.114.0">
          endchar
        </CharString>
        <CharString name="CR.114.1">
          endchar
        </CharString>
        <CharString name="CR.115.0">
          endchar
        </CharString>
        <CharString name="CR.115.1">
          endchar
        </CharString>
        <CharString name="CR.116.0">
          endchar
        </CharString>
        <CharString name="CR.116.1">
          endchar
        </CharString>
        <CharString name="CR.117.0">
          endchar
        </CharString>
        <CharString name="CR.117.1">
          endchar
        </CharString>
        <CharString name="CR.118.0">
          endchar
        </CharString>
        <CharString name="CR.118.1">
          endchar
        </CharString>
        <CharString name="CR.119.0">
          endchar
        </CharString>
        <CharString name="CR.119.1">
          endchar
        </CharString>
        <CharString name="CR.12.0">
          endchar
        </CharString>
        <CharString name="CR.120.0">
          endchar
        </CharString>
        <CharString name="CR.120.1">
          endchar
        </CharString>
        <CharString name="CR.121.0">
          endchar
        </CharString>
        <CharString name="CR.121.1">
          endchar
        </CharString>
        <CharString name="CR.122.0">
          endchar
        </CharString>
        <CharString name="CR.122.1">
          endchar
        </CharString>
        <CharString name="CR.123.0">
          endchar
        </CharString>
        <CharString name="CR.123.1">
          endchar
        </CharString>
        <CharString name="CR.124.0">
          endchar
        </CharString>
        <CharString name="CR.124.1">
          endchar
        </CharString>
        <CharString name="CR.125.0">
          endchar
        </CharString>
        <CharString name="CR.125.1">
          endchar
        </CharString>
        <CharString name="CR.126.0">
          endchar
        </CharString>
        <CharString name="CR.126.1">
          endchar
        </CharString>
        <CharString name="CR.126.2">
          endchar
        </CharString>
        <CharString name="CR.127.0">
          endchar
        </CharString>
        <CharString name="CR.127.1">
          endchar
        </CharString>
        <CharString name="CR.127.2">
          endchar
        </CharString>
        <CharString name="CR.128.0">
          endchar
        </CharString>
        <CharString name="CR.128.1">
          endchar
        </CharString>
        <CharString name="CR.128.2">
          endchar
        </CharString>
        <CharString name="CR.129.0">
          endchar
        </CharString>
        <CharString name="CR.129.1">
          endchar
        </CharString>
        <CharString name="CR.129.2">
          endchar
        </CharString>
        <CharString name="CR.13.0">
          endchar
        </CharString>
        <CharString name="CR.130.0">
          endchar
        </CharString>
        <CharString name="CR.130.1">
          endchar
        </CharString>
        <CharString name="CR.130.2">
          endchar
        </CharString>
        <CharString name="CR.14.0">
          endchar
        </CharString>
        <CharString name="CR.15.0">
          endchar
        </CharString>
        <CharString name="CR.16.0">
          endchar
        </CharString>
        <CharString name="CR.17.0">
          endchar
        </CharString>
        <CharString name="CR.18.0">
          endchar
        </CharString>
        <CharString name="CR.19.0">
          endchar
        </CharString>
        <CharString name="CR.2.0">
          endchar
        </CharString>
        <CharString name="CR.20.0">
          endchar
        </CharString>
        <CharString name="CR.21.0">
          endchar
        </CharString>
        <CharString name="CR.22.0">
          endchar
        </CharString>
        <CharString name="CR.23.0">
          endchar
        </CharString>
        <CharString name="CR.24.0">
          endchar
        </CharString>
        <CharString name="CR.25.0">
          endchar
        </CharString>
        <CharString name="CR.26.0">
          endchar
        </CharString>
        <CharString name="CR.27.0">
          endchar
        </CharString>
        <CharString name="CR.28.0">
          endchar
        </CharString>
        <CharString name="CR.29.0">
          endchar
        </CharString>
        <CharString name="CR.3.0">
          endchar
        </CharString>
        <CharString name="CR.30.0">
          endchar
        </CharString>
        <CharString name="CR.31.0">
          endchar
        </CharString>
        <CharString name="CR.32.0">
          endchar
        </CharString>
        <CharString name="CR.33.0">
          endchar
        </CharString>
        <CharString name="CR.34.0">
          endchar
        </CharString>
        <CharString name="CR.35.0">
          endchar
        </CharString>
        <CharString name="CR.36.0">
          endchar
        </CharString>
        <CharString name="CR.37.0">
          endchar
        </CharString>
        <CharString name="CR.38.0">
          endchar
        </CharString>
        <CharString name="CR.39.0">
          endchar
        </CharString>
        <CharString name="CR.4.0">
          endchar
        </CharString>
        <CharString name="CR.40.0">
          endchar
        </CharString>
        <CharString name="CR.41.0">
          endchar
        </CharString>
        <CharString name="CR.42.0">
          endchar
        </CharString>
        <CharString name="CR.43.0">
          endchar
        </CharString>
        <CharString name="CR.44.0">
          endchar
        </CharString>
        <CharString name="CR.45.0">
          endchar
        </CharString>
        <CharString name="CR.46.0">
          endchar
        </CharString>
        <CharString name="CR.47.0">
          endchar
        </CharString>
        <CharString name="CR.48.0">
          endchar
        </CharString>
        <CharString name="CR.49.0">
          endchar
        </CharString>
        <CharString name="CR.5.0">
          endchar
        </CharString>
        <CharString name="CR.50.0">
          endchar
        </CharString>
        <CharString name="CR.51.0">
          endchar
        </CharString>
        <CharString name="CR.52.0">
          endchar
        </CharString>
        <CharString name="CR.53.0">
          endchar
        </CharString>
        <CharString name="CR.54.0">
          endchar
        </CharString>
        <CharString name="CR.55.0">
          endchar
        </CharString>
        <CharString name="CR.56.0">
          endchar
        </CharString>
        <CharString name="CR.57.0">
          endchar
        </CharString>
        <CharString name="CR.58.0">
          endchar
        </CharString>
        <CharString name="CR.59.0">
          endchar
        </CharString>
        <CharString name="CR.6.0">
          endchar
        </CharString>
        <CharString name="CR.60.0">
          endchar
        </CharString>
        <CharString name="CR.61.0">
          endchar
        </CharString>
        <CharString name="CR.62.0">
          endchar
        </CharString>
        <CharString name="CR.63.0">
          endchar
        </CharString>
        <CharString name="CR.64.0">
          endchar
        </CharString>
        <CharString name="CR.65.0">
          endchar
        </CharString>
        <CharString name="CR.66.0">
          endchar
        </CharString>
        <CharString name="CR.67.0">
          endchar
        </CharString>
        <CharString name="CR.68.0">
          endchar
        </CharString>
        <CharString name="CR.69.0">
          endchar
        </CharString>
        <CharString name="CR.7.0">
          endchar
        </CharString>
        <CharString name="CR.70.0">
          endchar
        </CharString>
        <CharString name="CR.71.0">
          endchar
        </CharString>
        <CharString name="CR.72.0">
          endchar
        </CharString>
        <CharString name="CR.73.0">
          endchar
        </CharString>
        <CharString name="CR.74.0">
          endchar
        </CharString>
        <CharString name="CR.75.0">
          endchar
        </CharString>
        <CharString name="CR.75.1">
          endchar
        </CharString>
        <CharString name="CR.76.0">
          endchar
        </CharString>
        <CharString name="CR.76.1">
          endchar
        </CharString>
        <CharString name="CR.77.0">
          endchar
        </CharString>
        <CharString name="CR.77.1">
          endchar
        </CharString>
        <CharString name="CR.78.0">
          endchar
        </CharString>
        <CharString name="CR.78.1">
          endchar
        </CharString>
        <CharString name="CR.79.0">
          endchar
        </CharString>
        <CharString name="CR.79.1">
          endchar
        </CharString>
        <CharString name="CR.8.0">
          endchar
        </CharString>
        <CharString name="CR.80.0">
          endchar
        </CharString>
        <CharString name="CR.80.1">
          endchar
        </CharString>
        <CharString name="CR.81.0">
          endchar
        </CharString>
        <CharString name="CR.81.1">
          endchar
        </CharString>
        <CharString name="CR.82.0">
          endchar
        </CharString>
        <CharString name="CR.82.1">
          endchar
        </CharString>
        <CharString name="CR.83.0">
          endchar
        </CharString>
        <CharString name="CR.83.1">
          endchar
        </CharString>
        <CharString name="CR.84.0">
          endchar
        </CharString>
        <CharString name="CR.84.1">
          endchar
        </CharString>
        <CharString name="CR.85.0">
          endchar
        </CharString>
        <CharString name="CR.85.1">
          endchar
        </CharString>
        <CharString name="CR.86.0">
          endchar
        </CharString>
        <CharString name="CR.86.1">
          endchar
        </CharString>
        <CharString name="CR.87.0">
          endchar
        </CharString>
        <CharString name="CR.87.1">
          endchar
        </CharString>
        <CharString name="CR.88.0">
          endchar
        </CharString>
        <CharString name="CR.88.1">
          endchar
        </CharString>
        <CharString name="CR.89.0">
          endchar
        </CharString>
        <CharString name="CR.89.1">
          endchar
        </CharString>
        <CharString name="CR.9.0">
          endchar
        </CharString>
        <CharString name="CR.90.0">
          endchar
        </CharString>
        <CharString name="CR.90.1">
          endchar
        </CharString>
        <CharString name="CR.91.0">
          endchar
        </CharString>
        <CharString name="CR.91.1">
          endchar
        </CharString>
        <CharString name="CR.92.0">
          endchar
        </CharString>
        <CharString name="CR.92.1">
          endchar
        </CharString>
        <CharString name="CR.93.0">
          endchar
        </CharString>
        <CharString name="CR.93.1">
          endchar
        </CharString>
        <CharString name="CR.94.0">
          endchar
        </CharString>
        <CharString name="CR.94.1">
          endchar
        </CharString>
        <CharString name="CR.95.0">
          endchar
        </CharString>
        <CharString name="CR.95.1">
          endchar
        </CharString>
        <CharString name="CR.96.0">
          endchar
        </CharString>
        <CharString name="CR.96.1">
          endchar
        </CharString>
        <CharString name="CR.97.0">
          endchar
        </CharString>
        <CharString name="CR.97.1">
          endchar
        </CharString>
        <CharString name="CR.98.0">
          endchar
        </CharString>
        <CharString name="CR.98.1">
          endchar
        </CharString>
        <CharString name="CR.99.0">
          endchar
        </CharString>
        <CharString name="CR.99.1">
          endchar
        </CharString>
        <CharString name="Cacute">
          -7 101 -77 -21 523 110 hstemhm
          61 119 hintmask 10110000
          191 730 rmoveto
          -20 callsubr
          293 -636 rmoveto
          -100 callsubr
          hintmask 01110000
          -99 callsubr
          endchar
        </CharString>
        <CharString name="Ccaron">
          -7 101 -77 -21 523 110 hstemhm
          61 119 hintmask 10110000
          320 676 rmoveto
          16 callsubr
          171 -582 rmoveto
          -100 callsubr
          hintmask 01110000
          -99 callsubr
          endchar
        </CharString>
        <CharString name="Ccedilla">
          -7 101 -98 98 -72 -21 518 110 hstemhm
          61 119 125 100 hintmask 10011100
          405 -114 rmoveto
          hintmask 00111100
          0 36 -29 40 -76 39 rrcurveto
          hintmask 01011100
          48 -8 58 -3 68 6 rrcurveto
          hintmask 10011100
          10 98 rlineto
          -237 -12 -67 71 0 163 0 135 43 73 255 -5 rrcurveto
          -6 110 rlineto
          -308 -6 -103 -149 0 -173 0 -129 44 -108 130 -46 rrcurveto
          -19 -43 rlineto
          60 -31 29 -24 0 -20 0 -19 -32 -12 -78 -10 rrcurveto
          7 -85 rlineto
          135 13 68 44 0 55 rrcurveto
          endchar
        </CharString>
        <CharString name="Cdotaccent">
          -7 101 -77 -21 523 110 66 140 hstemhm
          61 119 76 115.5 hintmask 10111100
          369 695 rmoveto
          15 callsubr
          230 -601 rmoveto
          -100 callsubr
          hintmask 01111100
          -99 callsubr
          endchar
        </CharString>
        <CharString name="D">
          -8 94 -65 -21 532 97 -9 -20 hstemhm
          75 113 204 116 hintmask 10011100
          508 322 rmoveto
          -98 callsubr
          hintmask 01011100
          -97 callsubr
          -116 -17 rmoveto
          0 -166 -52 -71 -152 22 rrcurveto
          hintmask 10101100
          -96 callsubr
          endchar
        </CharString>
        <CharString name="Dcaron">
          -8 94 -65 -21 532 97 -9 -20 hstemhm
          75 113 204 116 hintmask 10011100
          273 682 rmoveto
          16 callsubr
          242 -360 rmoveto
          -98 callsubr
          hintmask 01011100
          -97 callsubr
          -116 -17 rmoveto
          0 -166 -52 -71 -152 22 rrcurveto
          hintmask 10101100
          -96 callsubr
          endchar
        </CharString>
        <CharString name="Dcroat">
          -8 94 -65 -21 274 78 180 97 -9 -20 hstemhm
          75 113 204 116 hintmask 10101110
          508 322 rmoveto
          -7 callsubr
          hintmask 01101110
          -6 callsubr
          -320 -232 rmoveto
          -5 callsubr
          hintmask 10110110
          -4 callsubr
          endchar
        </CharString>
        <CharString name="E">
          0 96 174 84 170 96 hstem
          96 115 vstem
          489 96 rmoveto
          -95 callsubr
          endchar
        </CharString>
        <CharString name="Eacute">
          0 96 174 84 170 96 hstem
          96 115 vstem
          171 730 rmoveto
          -20 callsubr
          318 -634 rmoveto
          -95 callsubr
          endchar
        </CharString>
        <CharString name="Ebreve">
          0 96 174 84 170 96 66 89 hstem
          96 115 vstem
          290 686 rmoveto
          14 callsubr
          199 -590 rmoveto
          -95 callsubr
          endchar
        </CharString>
        <CharString name="Ecaron">
          0 96 174 84 170 96 hstem
          96 115 vstem
          299 676 rmoveto
          16 callsubr
          197 -580 rmoveto
          -95 callsubr
          endchar
        </CharString>
        <CharString name="Ecircumflex">
          0 96 174 84 170 96 hstem
          96 115 vstem
          407 683 rmoveto
          -13 callsubr
          209 -689 rmoveto
          -95 callsubr
          endchar
        </CharString>
        <CharString name="Edieresis">
          0 96 174 84 170 96 75 140 hstemhm
          96 115 -88 113.5 109.5 112.5 hintmask 11111010
          457 695 rmoveto
          -27 callsubr
          hintmask 11110110
          -110 hmoveto
          -26 callsubr
          367 -599 rmoveto
          hintmask 11111010
          -95 callsubr
          endchar
        </CharString>
        <CharString name="Edotaccent">
          0 96 174 84 170 96 75 140 hstem
          96 115 24 115.5 vstem
          348 695 rmoveto
          15 callsubr
          256 -599 rmoveto
          -95 callsubr
          endchar
        </CharString>
        <CharString name="Egrave">
          0 96 174 84 170 96 hstem
          96 115 vstem
          401 726 rmoveto
          -75 callsubr
          119 -582 rmoveto
          -95 callsubr
          endchar
        </CharString>
        <CharString name="Emacron">
          0 96 174 84 170 96 98 95 hstem
          96 115 vstem
          462 813 rmoveto
          -23 callsubr
          27 -622 rmoveto
          -95 callsubr
          endchar
        </CharString>
        <CharString name="Eogonek">
          -224 87 137 96 174 84 170 96 hstem
          96 115 42 106 vstem
          468 -137 rmoveto
          -80 7 -29 15 0 23 0 22 27 29 94 41 rrcurveto
          9 96 -278 0 0 174 233 0 0 84 -233 0 0 170 272 0 0 96 -387 0 0 -620 269 0 rlineto
          -79 -45 -33 -39 0 -39 0 -52 57 -42 148 -7 rrcurveto
          endchar
        </CharString>
        <CharString name="Eth">
          -8 94 -65 -21 274 78 180 97 -9 -20 hstemhm
          75 113 204 116 hintmask 10101110
          508 322 rmoveto
          -7 callsubr
          hintmask 01101110
          -6 callsubr
          -320 -232 rmoveto
          -5 callsubr
          hintmask 10110110
          -4 callsubr
          endchar
        </CharString>
        <CharString name="Euro">
          0 -21 204 79 -68 71 77 71 hstemhm
          115 102 hintmask 10111000
          486 70 rmoveto
          -157 23 -67 37 -28 64 rrcurveto
          194 0 4 71 -213 0 rlineto
          -2 15 0 16 0 17 0 10 0 10 1 9 rrcurveto
          216 0 4 71 -210 0 rlineto
          21 70 63 30 166 24 rrcurveto
          -17 106 rlineto
          -217 -39 -87 -78 -29 -105 rrcurveto
          -72 -79 60 hlineto
          hintmask 11011000
          -1 -10 0 -11 0 -11 0 -17 1 -16 1 -15 rrcurveto
          -61 -79 74 hlineto
          34 -114 94 -70 214 -20 rrcurveto
          endchar
        </CharString>
        <CharString name="F">
          21 -21 255 89 180 96 hstem
          102 115 vstem
          453 255 rmoveto
          89 -236 180 277 96 -392 -620 115 255 vlineto
          endchar
        </CharString>
        <CharString name="G">
          -9 90 438 110 hstem
          49 117 212 106 vstem
          485 8 rmoveto
          -94 callsubr
          endchar
        </CharString>
        <CharString name="Gbreve">
          -9 90 438 110 57 89 hstem
          49 117 212 106 vstem
          294 686 rmoveto
          14 callsubr
          191 -678 rmoveto
          -94 callsubr
          endchar
        </CharString>
        <CharString name="Gcommaaccent">
          -9 90 438 110 hstem
          49 117 74 118 20 106 vstem
          485 8 rmoveto
          -94 callsubr
          -264 -283 rmoveto
          18 callsubr
          endchar
        </CharString>
        <CharString name="Gdotaccent">
          -9 90 438 110 66 140 hstem
          49 117 73 115.5 23.5 106 vstem
          352 695 rmoveto
          15 callsubr
          248 -687 rmoveto
          -1 80 0 95 0 127 rrcurveto
          -106 hlineto
          1 -76 3 -90 1 -63 -160 -3 -57 83 0 151 0 128 40 89 254 -10 rrcurveto
          -7 110 rlineto
          -309 -9 -95 -146 0 -181 rrcurveto
          0 -222 140 -128 296 65 rrcurveto
          endchar
        </CharString>
        <CharString name="H">
          21 -21 269 88 263 -20 hstem
          69 117 178 118 vstem
          364 hmoveto
          118 620 -118 -263 -178 263 -117 -620 117 269 178 hlineto
          endchar
        </CharString>
        <CharString name="Hbar">
          21 -21 252 88 96 78 -74 70 -70 180 hstemhm
          69 117 178 118 hintmask 11010110
          364 340 rmoveto
          -178 100 178 hlineto
          -440 vmoveto
          118 hlineto
          hintmask 11100110
          436 63 78 -63 vlineto
          hintmask 11001110
          106 -118 vlineto
          hintmask 11010110
          -110 -178 vlineto
          hintmask 11001110
          110 -117 vlineto
          hintmask 11100110
          -106 -63 -78 63 -436 117 252 178 vlineto
          endchar
        </CharString>
        <CharString name="I">
          0 89 442 89 hstem
          218 115 vstem
          333 531 rmoveto
          -93 callsubr
          endchar
        </CharString>
        <CharString name="Iacute">
          0 89 442 89 hstem
          218 115 vstem
          160 730 rmoveto
          -20 callsubr
          173 -199 rmoveto
          -93 callsubr
          endchar
        </CharString>
        <CharString name="Ibreve">
          0 89 442 89 66 89 hstem
          218 115 vstem
          279 686 rmoveto
          14 callsubr
          54 -155 rmoveto
          -93 callsubr
          endchar
        </CharString>
        <CharString name="Icircumflex">
          0 89 442 89 hstem
          218 115 vstem
          397 683 rmoveto
          -13 callsubr
          63 -254 rmoveto
          -93 callsubr
          endchar
        </CharString>
        <CharString name="Idieresis">
          0 89 442 89 75 140 hstemhm
          112 113.5 -7.5 115 2 112.5 hintmask 11110100
          446 695 rmoveto
          -27 callsubr
          -110 hmoveto
          -26 callsubr
          hintmask 11101000
          222 -164 rmoveto
          -93 callsubr
          endchar
        </CharString>
        <CharString name="Idotaccent">
          0 89 442 89 75 140 hstemhm
          218 115 -108 115.5 hintmask 11101000
          338 695 rmoveto
          15 callsubr
          hintmask 11110000
          110 -164 rmoveto
          -93 callsubr
          endchar
        </CharString>
        <CharString name="Igrave">
          0 89 442 89 hstem
          218 115 vstem
          391 726 rmoveto
          -75 callsubr
          -27 -147 rmoveto
          -93 callsubr
          endchar
        </CharString>
        <CharString name="Imacron">
          0 89 442 89 98 95 hstem
          218 115 vstem
          451 813 rmoveto
          -23 callsubr
          -118 -187 rmoveto
          -93 callsubr
          endchar
        </CharString>
        <CharString name="Iogonek">
          -221 88 133 89 442 89 hstemhm
          154 105 -41 115 hintmask 11101000
          368 -133 rmoveto
          hintmask 11110000
          -80 6 -29 16 0 24 0 21 16 28 50 38 rrcurveto
          148 0 8 89 rlineto
          hintmask 11101000
          -148 442 143 89 -401 -89 143 -442 hlineto
          hintmask 11110000
          -143 -89 156 hlineto
          -54 -42 -23 -38 0 -35 0 -57 56 -42 148 -7 rrcurveto
          endchar
        </CharString>
        <CharString name="J">
          -10 100 439 91 hstem
          320 116 vstem
          116 620 rmoveto
          -91 204 -319 vlineto
          0 -108 -20 -22 -221 10 rrcurveto
          -100 vlineto
          269 -6 88 67 0 160 rrcurveto
          409 vlineto
          endchar
        </CharString>
        <CharString name="K">
          14 -21 28 -21 28 -21 259 95 259 -20 hstemhm
          78 114 hintmask 10011100
          404 -7 rmoveto
          hintmask 00111100
          -92 callsubr
          hintmask 01011100
          -620 114 266 51 vlineto
          endchar
        </CharString>
        <CharString name="Kcommaaccent">
          14 -21 28 -21 28 -21 259 95 259 -20 hstemhm
          78 114 32 118 hintmask 10011110
          404 -7 rmoveto
          hintmask 00111110
          -92 callsubr
          hintmask 01011110
          -620 114 266 51 vlineto
          -38 -539 rmoveto
          20 callsubr
          endchar
        </CharString>
        <CharString name="L">
          0 96 524 -20 hstem
          104 115 vstem
          489 hmoveto
          -91 callsubr
          endchar
        </CharString>
        <CharString name="Lacute">
          0 96 524 -20 hstem
          104 115 vstem
          178 730 rmoveto
          -20 callsubr
          311 -730 rmoveto
          -91 callsubr
          endchar
        </CharString>
        <CharString name="Lcaron">
          0 96 524 -20 105 -20 hstem
          104 115 152 107 vstem
          353 465 rmoveto
          17 callsubr
          136 -465 rmoveto
          -91 callsubr
          endchar
        </CharString>
        <CharString name="Lcommaaccent">
          0 96 524 -20 hstem
          104 115 25 118 vstem
          489 hmoveto
          -91 callsubr
          121 -266 rmoveto
          18 callsubr
          endchar
        </CharString>
        <CharString name="Ldot">
          0 96 164 129 231 -20 hstem
          104 115 161 112 vstem
          489 hmoveto
          -91 callsubr
          385 260 rmoveto
          6 129 -111 0 -8 -129 rlineto
          endchar
        </CharString>
        <CharString name="Lslash">
          0 96 524 -20 hstem
          104 115 vstem
          489 hmoveto
          10 96 -280 0 0 240 132 67 -17 75 -115 -58 0 200 -115 0 0 -258 -77 -39 17 -75 60 30 0 -278 rlineto
          endchar
        </CharString>
        <CharString name="M">
          21 -21 123 128 163 206 0 -20 hstemhm
          59 100 228 103 hintmask 11011100
          380 620 rmoveto
          0 0 -95 -342 -7 -27 rrcurveto
          -4 hlineto
          -7 27 -96 342 0 0 rrcurveto
          -112 -620 103 hlineto
          hintmask 11101100
          -6 414 4 0 82 -291 63 0 81 291 4 0 -6 -414 106 0 0 620 rlineto
          endchar
        </CharString>
        <CharString name="N">
          21 -21 620 -20 hstem
          69 104 204.5 103.5 vstem
          383 hmoveto
          -90 callsubr
          endchar
        </CharString>
        <CharString name="NUL">
          0 endchar
        </CharString>
        <CharString name="Nacute">
          21 -21 620 -20 hstem
          69 104 204.5 103.5 vstem
          158 730 rmoveto
          -20 callsubr
          225 -730 rmoveto
          -90 callsubr
          endchar
        </CharString>
        <CharString name="Ncaron">
          21 -21 620 -20 hstem
          69 104 204.5 103.5 vstem
          286 676 rmoveto
          16 callsubr
          104 -676 rmoveto
          -90 callsubr
          endchar
        </CharString>
        <CharString name="Ncommaaccent">
          21 -21 620 -20 hstem
          69 104 51 118 35.5 103.5 vstem
          383 hmoveto
          -90 callsubr
          29 -680 rmoveto
          20 callsubr
          endchar
        </CharString>
        <CharString name="Ntilde">
          21 -21 620 -20 90 89 -3 90 hstemhm
          69 104 204.5 103.5 hintmask 11101100
          353 690 rmoveto
          -12 callsubr
          hintmask 11011100
          -11 callsubr
          30 -690 rmoveto
          -90 callsubr
          endchar
        </CharString>
        <CharString name="O">
          -16 95 462 95 hstem
          40 119 232 119 vstem
          261 -16 rmoveto
          -89 callsubr
          10 557 rmoveto
          -88 callsubr
          endchar
        </CharString>
        <CharString name="OE">
          0 96 174 84 170 96 hstem
          31 113 118 96 vstem
          144 315 rmoveto
          154 36 54 82 vhcurveto
          -427 vlineto
          -84 -1 -34 64 0 156 rrcurveto
          372 -219 rmoveto
          -158 174 124 84 -124 170 153 96 -223 hlineto
          -170 -87 -115 -206 -213 82 -86 174 hvcurveto
          223 hlineto
          endchar
        </CharString>
        <CharString name="Oacute">
          -16 95 462 95 hstem
          40 119 232 119 vstem
          161 737 rmoveto
          -20 callsubr
          100 -753 rmoveto
          -89 callsubr
          10 557 rmoveto
          -88 callsubr
          endchar
        </CharString>
        <CharString name="Obreve">
          -16 95 462 95 57 89 hstem
          40 119 232 119 vstem
          280 693 rmoveto
          14 callsubr
          -19 -709 rmoveto
          -89 callsubr
          10 557 rmoveto
          -88 callsubr
          endchar
        </CharString>
        <CharString name="Ocircumflex">
          -16 95 462 95 hstem
          40 119 232 119 vstem
          397 690 rmoveto
          -13 callsubr
          -9 -808 rmoveto
          -89 callsubr
          10 557 rmoveto
          -88 callsubr
          endchar
        </CharString>
        <CharString name="Odieresis">
          -16 95 462 95 66 140 hstemhm
          40 119 -46 113.5 109.5 112.5 -57.5 119 hintmask 11101100
          447 702 rmoveto
          -27 callsubr
          -110 hmoveto
          -26 callsubr
          hintmask 11110010
          149 -718 rmoveto
          152 97 121 223 hvcurveto
          -1 198 -79 110 -141 0 rrcurveto
          -152 -97 -121 -223 hvcurveto
          -198 80 -110 141 vhcurveto
          10 557 rmoveto
          -88 callsubr
          endchar
        </CharString>
        <CharString name="Ograve">
          -16 95 462 95 hstem
          40 119 232 119 vstem
          391 733 rmoveto
          -75 callsubr
          -99 -701 rmoveto
          -89 callsubr
          10 557 rmoveto
          -88 callsubr
          endchar
        </CharString>
        <CharString name="Ohungarumlaut">
          -16 95 462 95 hstem
          40 119 232 119 vstem
          118 726 rmoveto
          21 callsubr
          210 -2 rmoveto
          22 callsubr
          -67 -740 rmoveto
          -89 callsubr
          10 557 rmoveto
          -88 callsubr
          endchar
        </CharString>
        <CharString name="Omacron">
          -16 95 462 95 89 95 hstem
          40 119 232 119 vstem
          452 820 rmoveto
          -23 callsubr
          -191 -741 rmoveto
          -89 callsubr
          10 557 rmoveto
          -88 callsubr
          endchar
        </CharString>
        <CharString name="Omega">
          0 89 444 101 hstem
          65 106 207 109 vstem
          238 6 rmoveto
          -45 144 -22 117 0 87 rrcurveto
          115 37 64 68 66 36 -65 -117 vhcurveto
          0 -87 -20 -117 -44 -141 rrcurveto
          1 -6 191 0 0 89 -83 0 rlineto
          43 106 21 96 0 85 rrcurveto
          153 -72 105 -135 -138 -77 -106 -155 vhcurveto
          0 -83 21 -96 42 -105 rrcurveto
          -83 -89 190 hlineto
          endchar
        </CharString>
        <CharString name="Oslash">
          -16 94 -64 -21 549 94 -9 -20 hstemhm
          40 117 236 117 hintmask 10101100
          157 318 rmoveto
          -3 callsubr
          122 -240 rmoveto
          -2 callsubr
          -18 -94 rmoveto
          152 97 121 223 hvcurveto
          hintmask 10011100
          -1 callsubr
          hintmask 01101100
          0 callsubr
          hintmask 10101100
          1 callsubr
          endchar
        </CharString>
        <CharString name="Oslashacute">
          -16 94 -64 -21 549 94 -9 -20 hstemhm
          40 117 236 117 hintmask 10101100
          157 738 rmoveto
          -20 callsubr
          -420 vmoveto
          -3 callsubr
          122 -240 rmoveto
          -2 callsubr
          -18 -94 rmoveto
          152 97 121 223 hvcurveto
          hintmask 10011100
          -1 callsubr
          hintmask 01101100
          0 callsubr
          hintmask 10101100
          1 callsubr
          endchar
        </CharString>
        <CharString name="Otilde">
          -16 95 462 95 61 89 -3 90 hstemhm
          40 119 232 119 hintmask 11101100
          356 697 rmoveto
          -12 callsubr
          hintmask 11011100
          -11 callsubr
          -95 -713 rmoveto
          -89 callsubr
          10 557 rmoveto
          -88 callsubr
          endchar
        </CharString>
        <CharString name="P">
          21 -21 186 93 255 95 -10 -20 hstemhm
          87 114 196 113 hintmask 11101100
          201 hmoveto
          186 vlineto
          181 19 128 71 0 150 rrcurveto
          hintmask 11011100
          0 158 -139 74 -284 -39 rrcurveto
          -619 vlineto
          hintmask 11101100
          310 404 rmoveto
          0 -103 -68 -32 -128 13 rrcurveto
          249 vlineto
          131 15 65 -47 0 -95 rrcurveto
          endchar
        </CharString>
        <CharString name="Q">
          7 -21 32 -21 544 95 hstemhm
          40 119 232 119 hintmask 01111000
          443 -145 rmoveto
          33 93 -134 46 0 3 rlineto
          105 37 63 114 0 180 -1 198 -79 110 -141 0 -152 0 -97 -121 0 -223 rrcurveto
          hintmask 10111000
          0 -181 67 -108 119 -17 rrcurveto
          -18 -53 rlineto
          63 608 rmoveto
          81 39 -80 -159 -150 -33 -73 -79 -81 -39 80 159 150 33 73 79 hvcurveto
          endchar
        </CharString>
        <CharString name="R">
          12 -21 30 -21 27 -21 209 80.5 239.5 94 -10 -20 hstemhm
          81 113 177 113 hintmask 10011011
          406 -9 rmoveto
          hintmask 00110111
          -87 callsubr
          hintmask 01011011
          -86 callsubr
          -98 316 rmoveto
          -85 callsubr
          endchar
        </CharString>
        <CharString name="R_p">
          -153 -21 31 -21 181 -21 25 -21 24 -21 615 -20 25 -20 hstemhm
          27 83 198 79 hintmask 0110001110000000
          193 -4 rmoveto
          hintmask 0100110110000000
          83 7 -62 266 rlineto
          36 44 26 61 0 71 0 120 -74 78 -175 -25 rrcurveto
          hintmask 0101001110000000
          -618 86 vlineto
          -6 226 36 2 rlineto
          244 -392 rmoveto
          hintmask 1000101110000000
          167 vlineto
          77 -4 69 69 0 189 0 194 -54 70 -112 -60 rrcurveto
          -2 17 -57 -1 0 -651 rlineto
          endchar
        </CharString>
        <CharString name="Racute">
          12 -21 30 -21 27 -21 209 80.5 239.5 94 -10 -20 hstemhm
          81 113 177 113 hintmask 00111011
          143 737 rmoveto
          -20 callsubr
          hintmask 10011011
          263 -746 rmoveto
          hintmask 00110111
          -87 callsubr
          hintmask 01011011
          -86 callsubr
          -98 316 rmoveto
          -85 callsubr
          endchar
        </CharString>
        <CharString name="Rcaron">
          12 -21 30 -21 27 -21 209 80.5 239.5 94 -10 -20 hstemhm
          81 113 177 113 hintmask 00111011
          271 683 rmoveto
          16 callsubr
          hintmask 10011011
          142 -692 rmoveto
          hintmask 00110111
          -87 callsubr
          hintmask 01011011
          -86 callsubr
          -98 316 rmoveto
          -85 callsubr
          endchar
        </CharString>
        <CharString name="Rcommaaccent">
          12 -21 30 -21 27 -21 209 80.5 239.5 94 -10 -20 hstemhm
          81 113 50 118 9 113 hintmask 1001101010000000
          406 -9 rmoveto
          hintmask 0011011010000000
          -87 callsubr
          hintmask 0101101010000000
          -86 callsubr
          -98 316 rmoveto
          -85 callsubr
          hintmask 0011101110000000
          31 -569 rmoveto
          18 callsubr
          endchar
        </CharString>
        <CharString name="S">
          -7 99 433 100 hstem
          78 119 170 119 vstem
          80 96 rmoveto
          -84 callsubr
          endchar
        </CharString>
        <CharString name="Sacute">
          -7 99 433 100 hstem
          78 119 170 119 vstem
          170 735 rmoveto
          -20 callsubr
          -90 -639 rmoveto
          -84 callsubr
          endchar
        </CharString>
        <CharString name="Scaron">
          -7 99 433 100 hstem
          78 119 170 119 vstem
          298 681 rmoveto
          16 callsubr
          -211 -585 rmoveto
          -84 callsubr
          endchar
        </CharString>
        <CharString name="Scedilla">
          -7 99 -70 -21 524 100 hstemhm
          78 119 73 100 -3 119 hintmask 10110100
          167 -232 rmoveto
          hintmask 01111000
          135 13 68 44 0 55 0 38 -32 42 -85 41 rrcurveto
          hintmask 01110100
          169 26 64 79 0 76 0 148 -289 41 0 93 0 45 50 27 201 -14 rrcurveto
          -6 103 rlineto
          -258 14 -106 -98 0 -93 rrcurveto
          hintmask 10110100
          0 -143 289 -36 0 -101 0 -52 -76 -36 -211 16 rrcurveto
          -103 vlineto
          hintmask 10111000
          41 -2 37 1 34 2 rrcurveto
          -11 -25 rlineto
          60 -31 29 -24 0 -20 0 -19 -32 -12 -78 -10 rrcurveto
          endchar
        </CharString>
        <CharString name="Scommaaccent">
          -7 99 433 100 hstem
          78 119 19 118 33 119 vstem
          80 96 rmoveto
          -84 callsubr
          117 -372 rmoveto
          18 callsubr
          endchar
        </CharString>
        <CharString name="T">
          21 -21 524 96 hstem
          218 116 vstem
          334 524 rmoveto
          -83 callsubr
          endchar
        </CharString>
        <CharString name="Tcaron">
          21 -21 524 96 hstem
          218 116 vstem
          281 676 rmoveto
          16 callsubr
          60 -152 rmoveto
          -83 callsubr
          endchar
        </CharString>
        <CharString name="Tcommaaccent">
          21 -21 524 96 hstemhm
          218 116 -115 118 hintmask 11100000
          334 524 rmoveto
          -83 callsubr
          -134 -266 rmoveto
          hintmask 11010000
          57 -18 rlineto
          57 58 27 86 -4 75 rrcurveto
          hintmask 11100000
          -3 0 -128 -6 -2 0 19 -60 3 -70 -26 -65 rrcurveto
          endchar
        </CharString>
        <CharString name="Thorn">
          21 -21 434 94 -94 186 hstemhm
          87 115 197 112 hintmask 10111000
          202 hmoveto
          98 vlineto
          182 19 127 70 0 146 rrcurveto
          hintmask 11011000
          0 134 -104 71 -205 -10 rrcurveto
          hintmask 10111000
          92 -115 -620 vlineto
          312 310 rmoveto
          0 -96 -69 -31 -128 12 rrcurveto
          236 vlineto
          130 14 67 -44 0 -91 rrcurveto
          endchar
        </CharString>
        <CharString name="U">
          -16 99 537 -20 hstem
          66 115 189 115 vstem
          270 -16 rmoveto
          -82 callsubr
          endchar
        </CharString>
        <CharString name="Uacute">
          -16 99 537 -20 hstem
          66 115 189 115 vstem
          157 730 rmoveto
          -20 callsubr
          113 -746 rmoveto
          -82 callsubr
          endchar
        </CharString>
        <CharString name="Ubreve">
          -16 99 537 -20 86 89 hstem
          66 115 189 115 vstem
          276 686 rmoveto
          14 callsubr
          -6 -702 rmoveto
          -82 callsubr
          endchar
        </CharString>
        <CharString name="Ucircumflex">
          -16 99 537 -20 hstem
          66 115 189 115 vstem
          394 683 rmoveto
          -13 callsubr
          3 -801 rmoveto
          -82 callsubr
          endchar
        </CharString>
        <CharString name="Udieresis">
          -16 99 537 -20 95 140 hstemhm
          66 115 -72 113.5 109.5 112.5 -74.5 115 hintmask 11101100
          443 695 rmoveto
          -27 callsubr
          -110 hmoveto
          -26 callsubr
          hintmask 11110010
          162 -711 rmoveto
          -82 callsubr
          endchar
        </CharString>
        <CharString name="Ugrave">
          -16 99 537 -20 hstem
          66 115 189 115 vstem
          388 726 rmoveto
          -75 callsubr
          -87 -694 rmoveto
          -82 callsubr
          endchar
        </CharString>
        <CharString name="Uhungarumlaut">
          -16 99 537 -20 hstem
          66 115 189 115 vstem
          114 719 rmoveto
          21 callsubr
          210 -2 rmoveto
          22 callsubr
          -54 -733 rmoveto
          -82 callsubr
          endchar
        </CharString>
        <CharString name="Umacron">
          -16 99 537 -20 118 95 hstem
          66 115 189 115 vstem
          448 813 rmoveto
          -23 callsubr
          -178 -734 rmoveto
          -82 callsubr
          endchar
        </CharString>
        <CharString name="Uogonek">
          -224 87 143 -21 0 98 537 -20 hstemhm
          66 115 -16 106 99 115 hintmask 10110110
          370 -224 rmoveto
          10 87 rlineto
          -80 7 -29 16 0 25 0 29 37 19 78 55 67 47 32 58 0 96 rrcurveto
          405 -115 -425 vlineto
          -80 -29 -32 -63 vhcurveto
          hintmask 10111010
          -60 -37 39 89 hvcurveto
          409 -115 -414 vlineto
          0 -132 66 -79 116 -10 rrcurveto
          hintmask 11010110
          -61 -39 -22 -33 0 -36 rrcurveto
          0 -52 57 -42 148 -7 rrcurveto
          endchar
        </CharString>
        <CharString name="Uring">
          -16 99 537 -20 73 217 hstem
          66 115 189 115 vstem
          275 890 rmoveto
          23 callsubr
          -5 -906 rmoveto
          -82 callsubr
          endchar
        </CharString>
        <CharString name="V">
          -1 104 517 -20 24 -20 hstemhm
          29 492 hintmask 10110000
          356 -1 rmoveto
          hintmask 11010000
          61 208 54 207 50 206 rrcurveto
          -114 hlineto
          -39 -171 -41 -175 -45 -171 rrcurveto
          -9 hlineto
          hintmask 10110000
          -46 171 -42 179 -39 171 rrcurveto
          -117 -8 rlineto
          50 -206 55 -203 61 -208 rrcurveto
          endchar
        </CharString>
        <CharString name="W">
          0 151 469 -20 hstem
          39 111 255 107 vstem
          353 hmoveto
          -81 callsubr
          endchar
        </CharString>
        <CharString name="Wacute">
          0 151 469 -20 hstem
          39 111 255 107 vstem
          160 730 rmoveto
          -20 callsubr
          193 -730 rmoveto
          -81 callsubr
          endchar
        </CharString>
        <CharString name="Wcircumflex">
          0 151 469 -20 hstem
          39 111 255 107 vstem
          397 683 rmoveto
          -13 callsubr
          83 -785 rmoveto
          -81 callsubr
          endchar
        </CharString>
        <CharString name="Wdieresis">
          0 151 469 -20 95 140 hstemhm
          39 111 -38 113.5 109.5 112.5 -42.5 107 hintmask 11101100
          446 695 rmoveto
          -27 callsubr
          -110 hmoveto
          -26 callsubr
          242 -695 rmoveto
          hintmask 11110010
          -81 callsubr
          endchar
        </CharString>
        <CharString name="Wgrave">
          0 151 469 -20 hstem
          39 111 255 107 vstem
          391 726 rmoveto
          -75 callsubr
          -7 -678 rmoveto
          -81 callsubr
          endchar
        </CharString>
        <CharString name="X">
          18 -21 24 -21 24 -21 617 -20 23 -20 hstemhm
          29 495 hintmask 10001100
          397 -3 rmoveto
          hintmask 00110100
          126 6 -175 307 176 310 -123 0 -120 -231 rlineto
          hintmask 01001100
          -126 234 -126 -6 175 -308 -175 -309 122 0 120 229 rlineto
          endchar
        </CharString>
        <CharString name="Y">
          21 -21 620 -20 22 -20 hstemhm
          218 116 hintmask 10110000
          334 hmoveto
          0 206 rlineto
          hintmask 11010000
          -80 callsubr
          hintmask 10110000
          -79 callsubr
          endchar
        </CharString>
        <CharString name="Yacute">
          21 -21 620 -20 22 -20 hstemhm
          218 116 hintmask 10110000
          159 733 rmoveto
          -20 callsubr
          175 -733 rmoveto
          0 206 rlineto
          hintmask 11010000
          -80 callsubr
          hintmask 10110000
          -79 callsubr
          endchar
        </CharString>
        <CharString name="Ycircumflex">
          21 -21 620 -20 22 -20 hstemhm
          218 116 hintmask 10110000
          396 686 rmoveto
          -13 callsubr
          65 -788 rmoveto
          0 206 rlineto
          hintmask 11010000
          -80 callsubr
          hintmask 10110000
          -79 callsubr
          endchar
        </CharString>
        <CharString name="Ydieresis">
          21 -21 620 -20 22 -20 96 140 hstemhm
          111 113.5 -6.5 116 0 112.5 hintmask 10111010
          445 698 rmoveto
          -27 callsubr
          -110 hmoveto
          -26 callsubr
          hintmask 11010100
          224 -698 rmoveto
          0 206 196 414 -118 0 -133 -307 rlineto
          hintmask 10110100
          -79 callsubr
          endchar
        </CharString>
        <CharString name="Ygrave">
          21 -21 620 -20 22 -20 hstemhm
          218 116 hintmask 10110000
          390 729 rmoveto
          -75 callsubr
          -25 -681 rmoveto
          0 206 rlineto
          hintmask 11010000
          -80 callsubr
          hintmask 10110000
          -79 callsubr
          endchar
        </CharString>
        <CharString name="Z">
          0 99 422 99 hstem
          63 431 vstem
          486 hmoveto
          -78 callsubr
          endchar
        </CharString>
        <CharString name="Zacute">
          0 99 422 99 hstem
          63 431 vstem
          169 730 rmoveto
          -20 callsubr
          317 -730 rmoveto
          -78 callsubr
          endchar
        </CharString>
        <CharString name="Zcaron">
          0 99 422 99 hstem
          63 431 vstem
          297 676 rmoveto
          16 callsubr
          196 -676 rmoveto
          -78 callsubr
          endchar
        </CharString>
        <CharString name="Zdotaccent">
          0 99 422 99 75 140 hstem
          234 115.5 vstem
          347 695 rmoveto
          15 callsubr
          254 -695 rmoveto
          -78 callsubr
          endchar
        </CharString>
        <CharString name="a">
          -13 86 -55 -21 26 -21 217 69 126 94 hstemhm
          59 110 195 110 hintmask 10011110
          253 73 rmoveto
          -74 callsubr
          hintmask 01011110
          128 -76 rmoveto
          hintmask 00111110
          -73 callsubr
          hintmask 10011110
          -72 callsubr
          endchar
        </CharString>
        <CharString name="aacute">
          -13 86 -55 -21 26 -21 217 69 126 94 200 -20 hstemhm
          59 110 195 110 hintmask 10011111
          153 615 rmoveto
          -20 callsubr
          100 -542 rmoveto
          2 callsubr
          hintmask 01011111
          128 -76 rmoveto
          hintmask 00111111
          -73 callsubr
          hintmask 10011111
          -72 callsubr
          endchar
        </CharString>
        <CharString name="abreve">
          -13 86 -55 -21 26 -21 217 69 126 94 63 89 hstemhm
          59 110 195 110 hintmask 10011111
          272 571 rmoveto
          14 callsubr
          -19 -498 rmoveto
          2 callsubr
          hintmask 01011111
          128 -76 rmoveto
          hintmask 00111111
          -73 callsubr
          hintmask 10011111
          -72 callsubr
          endchar
        </CharString>
        <CharString name="acircumflex">
          -13 86 -55 -21 26 -21 217 69 126 94 112 -20 33 -20 hstemhm
          59 110 195 110 hintmask 1001101110000000
          390 568 rmoveto
          3 callsubr
          hintmask 1001110110000000
          -182 -153 rlineto
          hintmask 1001101110000000
          4 callsubr
          -10 -597 rmoveto
          2 callsubr
          hintmask 0101101110000000
          128 -76 rmoveto
          hintmask 0011101110000000
          -73 callsubr
          hintmask 1001101110000000
          -72 callsubr
          endchar
        </CharString>
        <CharString name="acute">
          701 -20 hstem
          144 287 vstem
          144 608 rmoveto
          -20 callsubr
          endchar
        </CharString>
        <CharString name="adieresis">
          -13 86 -55 -21 26 -21 217 69 126 94 72 140 hstemhm
          59 110 -64 113.5 109.5 112.5 -76.5 110 hintmask 1001110110000000
          439 580 rmoveto
          -27 callsubr
          -110 hmoveto
          -26 callsubr
          hintmask 1001111001000000
          149 -507 rmoveto
          -74 callsubr
          hintmask 0101110101000000
          128 -76 rmoveto
          hintmask 0011111001000000
          -73 callsubr
          hintmask 1001111010000000
          -72 callsubr
          endchar
        </CharString>
        <CharString name="ae">
          -7 86 -86 92 136.5 65.5 123 93 -89 92 hstemhm
          27 103 93 93 104 101 hintmask 01101111
          506 -7 rmoveto
          5 callsubr
          hintmask 01110111
          -31 50 -62 16 -118 6 rrcurveto
          -8 -93 rlineto
          146 -7 27 -20 3 -96 -139 -2 -57 -60 0 -105 0 -80 42 -47 68 0 55 0 43 32 27 36 rrcurveto
          37 -45 72 -25 135 2 rrcurveto
          -134 421 rmoveto
          6 callsubr
          hintmask 10101111
          -193 -335 rmoveto
          7 callsubr
          endchar
        </CharString>
        <CharString name="aeacute">
          -7 86 -86 92 136.5 65.5 123 93 -89 92 196 -20 hstemhm
          27 103 93 93 104 101 hintmask 0110111110000000
          158 609 rmoveto
          -20 callsubr
          348 -616 rmoveto
          5 callsubr
          hintmask 0111011110000000
          -31 50 -62 16 -118 6 rrcurveto
          -8 -93 rlineto
          146 -7 27 -20 3 -96 -139 -2 -57 -60 0 -105 0 -80 42 -47 68 0 55 0 43 32 27 36 37 -45 72 -25 135 2 rrcurveto
          -134 421 rmoveto
          6 callsubr
          hintmask 1010111110000000
          -193 -335 rmoveto
          7 callsubr
          endchar
        </CharString>
        <CharString name="agrave">
          -13 86 -55 -21 26 -21 217 69 126 94 193 -20 hstemhm
          59 110 195 110 hintmask 10011111
          384 611 rmoveto
          -75 callsubr
          -100 -490 rmoveto
          2 callsubr
          hintmask 01011111
          128 -76 rmoveto
          hintmask 00111111
          -73 callsubr
          hintmask 10011111
          -72 callsubr
          endchar
        </CharString>
        <CharString name="amacron">
          -13 86 -55 -21 26 -21 217 69 126 94 95 95 hstemhm
          59 110 195 110 hintmask 10011111
          444 698 rmoveto
          -23 callsubr
          -191 -530 rmoveto
          2 callsubr
          hintmask 01011111
          128 -76 rmoveto
          hintmask 00111111
          -73 callsubr
          hintmask 10011111
          -72 callsubr
          endchar
        </CharString>
        <CharString name="ampersand">
          -13 85 273 80 198 80 hstemhm
          11 109 -74 109 200 103 hintmask 11110100
          242 703 rmoveto
          hintmask 11101100
          -118 -78 -75 -91 hvcurveto
          0 -68 34 -57 85 -21 rrcurveto
          -3 vlineto
          hintmask 11110100
          -98 -22 -56 -64 0 -106 0 -110 74 -99 156 0 117 0 65 50 35 40 rrcurveto
          268 80 80 -271 vlineto
          hintmask 11101100
          -65 -47 47 58 55 31 38 62 hvcurveto
          46 0 29 -17 33 -36 rrcurveto
          63 57 rlineto
          -54 59 -55 17 -68 0 rrcurveto
          113 -358 rmoveto
          -230 vlineto
          -23 -27 -39 -16 -47 0 rrcurveto
          -87 -39 60 70 68 41 75 94 hvcurveto
          endchar
        </CharString>
        <CharString name="aogonek">
          -222 88 142 -21 0 86 -50 -21 217 69 126 94 hstemhm
          59 110 87 105 3 110 hintmask 1001111100000000
          461 -222 rmoveto
          9 88 rlineto
          -80 6 -29 16 0 22 0 23 28 28 94 41 rrcurveto
          hintmask 0010111010000000
          -5 69 -4 79 0 97 0 194 -75 62 -300 5 rrcurveto
          -11 -94 rlineto
          214 -7 55 -23 6 -96 -210 9 -94 -80 0 -100 0 -81 60 -49 87 0 67 0 57 41 39 47 rrcurveto
          hintmask 0100111010000000
          3 -20 5 -29 2 -17 rrcurveto
          hintmask 0010111100000000
          -87 -47 -36 -42 0 -40 rrcurveto
          0 -53 56 -42 149 -7 rrcurveto
          hintmask 0010111010000000
          -211 295 rmoveto
          -49 -32 25 45 hvcurveto
          0 55 41 33 154 -16 1 -35 0 -26 1 -26 rrcurveto
          -31 -33 -45 -22 -40 0 rrcurveto
          endchar
        </CharString>
        <CharString name="approxequal">
          94 95 1 94 31 94 2 94 -4 -20 hstemhm
          47 450 hintmask 01101100
          360 315 rmoveto
          62 0 37 53 38 105 rrcurveto
          -66 28 rlineto
          -25 -54 -19 -38 -24 0 rrcurveto
          hintmask 01010100
          -42 0 -48 96 -79 0 -64 0 -45 -58 -38 -106 rrcurveto
          65 -28 rlineto
          26 58 22 40 25 0 rrcurveto
          45 0 51 -96 79 0 rrcurveto
          hintmask 10010100
          -221 vmoveto
          62 0 37 54 38 104 rrcurveto
          -65 28 rlineto
          -25 -54 -20 -37 -24 0 rrcurveto
          hintmask 01010100
          -42 0 -48 95 -78 0 -65 0 -45 -58 -38 -105 rrcurveto
          66 -27 rlineto
          26 57 21 39 26 0 rrcurveto
          44 0 51 -96 79 0 rrcurveto
          endchar
        </CharString>
        <CharString name="aring">
          -13 86 -55 -21 26 -21 217 69 126 94 50 217 hstemhm
          59 110 195 110 hintmask 10011111
          271 775 rmoveto
          -10 callsubr
          -18 -702 rmoveto
          2 callsubr
          hintmask 01011111
          128 -76 rmoveto
          hintmask 00111111
          -73 callsubr
          hintmask 10011111
          -72 callsubr
          endchar
        </CharString>
        <CharString name="aringacute">
          -13 86 -55 -21 26 -21 217 69 126 94 50 217 hstemhm
          59 110 195 110 hintmask 10011111
          153 860 rmoveto
          -20 callsubr
          118 -85 rmoveto
          23 callsubr
          -18 -702 rmoveto
          2 callsubr
          hintmask 01011111
          128 -76 rmoveto
          hintmask 00111111
          -73 callsubr
          hintmask 10011111
          -72 callsubr
          endchar
        </CharString>
        <CharString name="asciicircum">
          527 314 hstem
          36 478 vstem
          325 841 rmoveto
          -100 0 -189 -314 115 0 123 223 125 -223 115 0 rlineto
          endchar
        </CharString>
        <CharString name="asciitilde">
          221 91 9 91 hstem
          10 530 vstem
          179 412 rmoveto
          -89 0 -46 -72 -34 -67 rrcurveto
          71 -34 rlineto
          26 48 27 34 42 0 62 0 38 -100 95 0 rrcurveto
          88 0 46 68 35 71 rrcurveto
          -71 34 rlineto
          -26 -49 -29 -33 -40 0 -61 0 -34 100 -100 0 rrcurveto
          endchar
        </CharString>
        <CharString name="asterisk">
          90 494 hstem
          15 520 vstem
          220 584 rmoveto
          110 0 -12 -197 183 72 34 -103 -191 -50 125 -153 -88 -63 -106 166 -106 -166 -88 63 125 153 -191 50 34 103 183 -72 rlineto
          endchar
        </CharString>
        <CharString name="asterisk.alt">
          702 -20 hstemhm
          233 52.5 -20 52.5 hintmask 10100000
          318 539 rmoveto
          47 143 -98 20 -3 -152 rlineto
          -33 -11 rmoveto
          -100 112 -65 -76 129 -79 rlineto
          167 -33 rmoveto
          148 32 -33 95 -134 -74 rlineto
          -155 -53 rmoveto
          -147 -32 33 -94 133 73 rlineto
          113 -22 rmoveto
          100 -112 66 75 -130 80 rlineto
          hintmask 11000000
          -123 -43 rmoveto
          -49 -144 101 -19 1 152 rlineto
          endchar
        </CharString>
        <CharString name="at">
          -157 88 128 85 246 90 116 89 hstem
          37 93 74 99 100 96 vstem
          453 -151 rmoveto
          -1 86 rlineto
          -263 -31 -59 125 0 228 0 232 88 107 97 0 56 0 25 -38 6 -78 -114 -2 -84 -70 0 -162 -1 -113 49 -74 66 0 38 0 26 16 27 34 rrcurveto
          2 -18 2 -22 1 -4 rrcurveto
          91 10 rlineto
          -2 83 -4 88 0 207 rrcurveto
          151 -53 81 -120 -167 -122 -173 -269 vhcurveto
          0 -261 97 -174 319 41 rrcurveto
          -98 295 rmoveto
          -35 -17 40 80 hvcurveto
          0 87 18 51 82 -15 rrcurveto
          -220 vlineto
          -14 -14 -15 -9 -19 0 rrcurveto
          endchar
        </CharString>
        <CharString name="atilde">
          -13 86 -55 -21 26 -21 217 69 126 94 67 89 -3 90 hstemhm
          59 110 195 110 hintmask 1001110110000000
          348 575 rmoveto
          -12 callsubr
          hintmask 1001101110000000
          -11 callsubr
          -95 -502 rmoveto
          2 callsubr
          hintmask 0101110110000000
          128 -76 rmoveto
          hintmask 0011110110000000
          -73 callsubr
          hintmask 1001110110000000
          -72 callsubr
          endchar
        </CharString>
        <CharString name="b">
          -13 96 337 91 190 -20 30 -20 hstemhm
          78 111 202 110 hintmask 11011100
          228 -13 rmoveto
          144 129 108 179 145 -76 92 -105 hvcurveto
          -54 0 -44 -24 -33 -30 rrcurveto
          0 254 rlineto
          hintmask 11101100
          -111 -10 0 -687 rlineto
          46 -18 49 -9 55 0 rrcurveto
          40 96 rmoveto
          -28 0 -25 5 -26 9 rrcurveto
          293 vlineto
          27 19 30 11 29 0 rrcurveto
          68 48 -58 -115 -113 -47 -51 -76 hvcurveto
          endchar
        </CharString>
        <CharString name="backslash">
          -106 918 hstem
          19 512 vstem
          19 771 rmoveto
          423 -877 89 40 -424 878 rlineto
          endchar
        </CharString>
        <CharString name="bar">
          -103 911 hstem
          223 103 vstem
          326 808 rmoveto
          -103 -911 103 hlineto
          endchar
        </CharString>
        <CharString name="braceleft">
          -213 946 -512 78 hstemhm
          136 107 -105 111 -20 106 -99 99 hintmask 10010000
          447 -213 rmoveto
          -36 callsubr
          hintmask 10001000
          -35 callsubr
          hintmask 10000100
          82 25 31 42 0 37 rrcurveto
          hintmask 10100000
          -34 callsubr
          hintmask 01000100
          -33 callsubr
          hintmask 01001000
          98 -8 47 -27 0 -35 rrcurveto
          hintmask 10010000
          -32 callsubr
          endchar
        </CharString>
        <CharString name="braceleft.cap">
          -145 -21 434 78 hstemhm
          136 107 -105 111 -20 106 -99 99 hintmask 10010000
          447 -166 rmoveto
          -36 callsubr
          hintmask 10001000
          -35 callsubr
          hintmask 10000100
          82 25 31 42 0 37 rrcurveto
          hintmask 10100000
          -34 callsubr
          hintmask 11000100
          -33 callsubr
          hintmask 11001000
          98 -8 47 -27 0 -35 rrcurveto
          hintmask 10010000
          -32 callsubr
          endchar
        </CharString>
        <CharString name="braceright">
          -212 946 -512 79 hstemhm
          217 99 -99 106 -20 111 -106 107 hintmask 10000100
          101 -212 rmoveto
          235 75 80 73 -1 72 rrcurveto
          hintmask 01100000
          -31 callsubr
          hintmask 01010000
          -99 8 -46 27 0 34 rrcurveto
          hintmask 10001000
          -30 callsubr
          hintmask 10010000
          -29 callsubr
          hintmask 10100000
          -83 -26 -31 -41 0 -37 rrcurveto
          hintmask 10000100
          -28 callsubr
          endchar
        </CharString>
        <CharString name="braceright.cap">
          -145 -21 434 79 hstemhm
          217 99 -99 106 -20 111 -106 107 hintmask 11000100
          101 -166 rmoveto
          235 75 80 73 -1 72 rrcurveto
          hintmask 11100000
          -31 callsubr
          hintmask 11010000
          -99 8 -46 27 0 34 rrcurveto
          hintmask 11001000
          -30 callsubr
          hintmask 11010000
          -29 callsubr
          hintmask 11100000
          -83 -26 -31 -41 0 -37 rrcurveto
          hintmask 11000100
          -28 callsubr
          endchar
        </CharString>
        <CharString name="bracketleft">
          -179 88 700 89 hstem
          129 106 vstem
          129 -179 rmoveto
          -77 callsubr
          endchar
        </CharString>
        <CharString name="bracketleft.cap">
          -132 88 700 89 hstem
          129 106 vstem
          129 -132 rmoveto
          -77 callsubr
          endchar
        </CharString>
        <CharString name="bracketright">
          -179 89 699 90 hstem
          316 106 vstem
          90 -90 rmoveto
          -76 callsubr
          endchar
        </CharString>
        <CharString name="bracketright.cap">
          -132 89 699 90 hstem
          316 106 vstem
          90 -43 rmoveto
          -76 callsubr
          endchar
        </CharString>
        <CharString name="breve">
          564 89 hstem
          78 395 vstem
          272 564 rmoveto
          14 callsubr
          endchar
        </CharString>
        <CharString name="bullet">
          157 282 hstem
          131 288 vstem
          419 300 rmoveto
          83 -60 56 -82 -80 -66 -56 -86 -83 61 -57 81 80 66 56 87 vhcurveto
          endchar
        </CharString>
        <CharString name="bullet.alt">
          177 243 hstem
          154 242 vstem
          395 177 rmoveto
          2 243 -242 0 -2 -243 rlineto
          endchar
        </CharString>
        <CharString name="c">
          -7 95 -71 -21 404 105 hstemhm
          72 110 hintmask 10110000
          72 241 rmoveto
          hintmask 01110000
          -71 callsubr
          hintmask 10110000
          -70 callsubr
          endchar
        </CharString>
        <CharString name="cacute">
          -7 95 -71 -21 404 105 196 -20 hstemhm
          72 110 hintmask 10111000
          177 608 rmoveto
          -20 callsubr
          -105 -367 rmoveto
          hintmask 01111000
          -71 callsubr
          hintmask 10111000
          -70 callsubr
          endchar
        </CharString>
        <CharString name="caron">
          707 -20 hstem
          88 373 vstem
          279 554 rmoveto
          16 callsubr
          endchar
        </CharString>
        <CharString name="caron.alt">
          551 255 hstem
          213 107 vstem
          195 566 rmoveto
          17 callsubr
          endchar
        </CharString>
        <CharString name="ccaron">
          -7 95 -71 -21 404 105 202 -20 hstemhm
          72 110 hintmask 10111000
          305 554 rmoveto
          16 callsubr
          -226 -313 rmoveto
          hintmask 01111000
          -71 callsubr
          hintmask 10111000
          -70 callsubr
          endchar
        </CharString>
        <CharString name="ccedilla">
          -4 92 312 105 hstem
          72 110 131 100 vstem
          413 -118 rmoveto
          0 36 -29 39 -75 39 44 -5 52 0 60 5 rrcurveto
          11 92 rlineto
          -224 -13 -70 52 0 128 0 96 38 57 249 -8 rrcurveto
          -7 105 rlineto
          -298 -1 -92 -124 0 -139 0 -107 40 -90 129 -35 rrcurveto
          -17 -38 rlineto
          60 -31 29 -24 0 -20 0 -19 -32 -12 -78 -10 rrcurveto
          7 -85 rlineto
          135 13 68 44 0 55 rrcurveto
          endchar
        </CharString>
        <CharString name="cdotaccent">
          -7 95 -71 -21 404 105 68 140 hstemhm
          72 110 59 115.5 hintmask 10111100
          354 573 rmoveto
          15 callsubr
          -167 -332 rmoveto
          hintmask 01111100
          -71 callsubr
          hintmask 10111100
          -70 callsubr
          endchar
        </CharString>
        <CharString name="cedilla">
          0 -21 hstem
          310 100 vstem
          221 -21 rmoveto
          60 -31 29 -24 0 -20 0 -19 -32 -12 -78 -10 rrcurveto
          7 -85 rlineto
          135 13 68 44 0 55 0 44 -44 50 -121 48 rrcurveto
          endchar
        </CharString>
        <CharString name="cent">
          31 93 268 98 130 -20 hstem
          69 105 vstem
          174 276 rmoveto
          0 51 25 45 97 15 rrcurveto
          -29 -230 rlineto
          -65 25 -28 39 0 55 rrcurveto
          275 -245 rmoveto
          12 93 rlineto
          -47 2 -41 5 -34 6 rrcurveto
          32 255 rlineto
          29 0 33 -1 37 -4 rrcurveto
          13 103 rlineto
          -34 2 -31 0 -29 -1 rrcurveto
          18 129 -96 0 -15 -138 rlineto
          -178 -30 -49 -95 0 -93 0 -90 47 -73 128 -40 rrcurveto
          -21 -145 97 0 14 125 rlineto
          34 -5 38 -3 43 -2 rrcurveto
          endchar
        </CharString>
        <CharString name="check.1">
          0 -21 0 148 hstemhm
          56 464 hintmask 10100000
          520 654 rmoveto
          -113 35 rlineto
          hintmask 01100000
          -59 -162 -51 -191 -40 -209 rrcurveto
          -5 0 -101 242 -95 -41 153 -349 97 5 rlineto
          59 243 71 222 84 205 rrcurveto
          endchar
        </CharString>
        <CharString name="check.2">
          6 -21 26 -21 hstemhm
          75 430 hintmask 01100000
          339 -10 rmoveto
          106 24 -134 259 194 379 -108 39 -143 -334 -77 164 -102 -37 119 -225 -118 -250 rlineto
          hintmask 10100000
          73 -24 100 196 rlineto
          endchar
        </CharString>
        <CharString name="circumflex">
          626 -20 hstem
          88 373 vstem
          393 561 rmoveto
          -13 callsubr
          endchar
        </CharString>
        <CharString name="colon">
          -13 179 176 180 hstem
          185 179 vstem
          185 432 rmoveto
          -49 39 -41 50 52 38 41 49 49 -38 41 -52 -50 -39 -41 -49 vhcurveto
          -355 vmoveto
          -50 39 -40 50 52 38 40 50 49 -38 40 -52 -50 -39 -40 -49 vhcurveto
          endchar
        </CharString>
        <CharString name="colon.alt">
          79 140 181 140 hstemhm
          200 152.5 -148.5 152 hintmask 11010000
          355 400 rmoveto
          2 140 -152 0 -2 -140 rlineto
          hintmask 11100000
          148 -321 rmoveto
          3 140 -153 0 -2 -140 rlineto
          endchar
        </CharString>
        <CharString name="colonmonetary">
          21 95 383 100 hstemhm
          56 100 78.5 76 0 74 -15.5 75.5 hintmask 01110100
          331 137 rmoveto
          -24 5 -21 5 -19 7 rrcurveto
          29 321 rlineto
          20 5 21 4 25 4 rrcurveto
          -206 -173 rmoveto
          0 60 20 46 59 31 rrcurveto
          -24 -269 rlineto
          -38 29 -17 41 0 62 rrcurveto
          hintmask 11101000
          149 -389 rmoveto
          75 0 9 103 rlineto
          hintmask 11110100
          22 -3 23 -3 25 -2 rrcurveto
          21 95 rlineto
          -33 3 -31 4 -27 4 rrcurveto
          33 368 rlineto
          26 2 28 1 30 1 rrcurveto
          -6 100 rlineto
          -21 -1 -20 -1 -19 -2 rrcurveto
          9 98 -75 0 -10 -107 rlineto
          -21 -3 -19 -4 -19 -5 rrcurveto
          11 119 -76 0 -11 -144 rlineto
          -131 -55 -42 -93 0 -102 0 -106 41 -67 90 -44 rrcurveto
          -16 -156 rlineto
          hintmask 11101000
          76 0 12 129 rlineto
          18 -5 19 -5 20 -4 rrcurveto
          endchar
        </CharString>
        <CharString name="comma">
          -151 -21 hstem
          227 126 vstem
          178 -155 rmoveto
          59 -17 rlineto
          87 79 58 130 -45 112 rrcurveto
          -143 -7 rlineto
          51 -105 -10 -119 -57 -73 rrcurveto
          endchar
        </CharString>
        <CharString name="commaaccent">
          -284 219 hstem
          219 118 vstem
          200 -266 rmoveto
          20 callsubr
          endchar
        </CharString>
        <CharString name="commaaccent.rot">
          568 219 hstem
          209 118 vstem
          345 769 rmoveto
          19 callsubr
          endchar
        </CharString>
        <CharString name="copyright">
          7 58 87 68 177 76 82 58 hstem
          37 63 74 76 200 63 vstem
          513 314 rmoveto
          186 -95 113 -133 -139 -109 -122 -185 -194 102 -105 140 133 101 113 194 vhcurveto
          -413 -4 rmoveto
          156 77 89 106 100 67 -90 -155 -164 -67 -81 -101 -104 -78 81 164 vhcurveto
          255 -90 rmoveto
          -83 -2 -22 29 0 70 rrcurveto
          51 13 29 89 vhcurveto
          -5 76 rlineto
          -130 -8 -43 -71 0 -84 0 -96 42 -71 132 9 rrcurveto
          endchar
        </CharString>
        <CharString name="d">
          -13 91 -60 -21 27 -21 413 95 190 -20 30 -20 hstemhm
          49 110 200 111 hintmask 10010111
          277 78 rmoveto
          -69 -49 54 118 110 53 56 76 hvcurveto
          22 0 24 -5 25 -8 0 -120 1 -97 2 -77 rrcurveto
          -24 -19 -28 -12 -33 0 rrcurveto
          hintmask 01010111
          97 -81 rmoveto
          hintmask 00110111
          -69 callsubr
          hintmask 10011011
          -68 callsubr
          endchar
        </CharString>
        <CharString name="dagger">
          459 88.5 -84.5 88.5 147.5 -20 hstemhm
          224.5 93 -92.5 105 hintmask 10110000
          309 135 rmoveto
          17 325 160 -2 5 88 rlineto
          hintmask 10101000
          -162 3 2 149 -106 1 rlineto
          hintmask 01101000
          0 -149 -155 3 -5 -89 rlineto
          hintmask 01110000
          160 -2 -1 -352 17 -9 rlineto
          endchar
        </CharString>
        <CharString name="daggerdbl">
          261 84.5 -80.5 84.5 113.5 84.5 -80.5 84.5 147.5 -20 hstemhm
          225 89 -89 105 hintmask 01101100
          310 83 rmoveto
          hintmask 10101100
          8 179 161 -2 6 84 -164 3 5 117 160 -2 5 84 rlineto
          hintmask 01101010
          -162 3 2 149 -106 1 rlineto
          hintmask 01011010
          0 -149 -155 3 -5 -85 rlineto
          hintmask 01011100
          160 -2 0 -118 -162 3 -5 -85 167 -2 0 -206 17 -9 rlineto
          endchar
        </CharString>
        <CharString name="dcaron">
          -13 91 -60 -21 27 -21 413 95 190 -20 30 -20 hstemhm
          49 110 200 111 86 107 hintmask 1001011110000000
          538 566 rmoveto
          17 callsubr
          -261 -488 rmoveto
          -69 -49 54 118 110 53 56 76 hvcurveto
          22 0 24 -5 25 -8 0 -120 1 -97 2 -77 -24 -19 -28 -12 -33 0 rrcurveto
          hintmask 0101011110000000
          97 -81 rmoveto
          hintmask 0011011110000000
          -69 callsubr
          hintmask 1001101110000000
          -68 callsubr
          endchar
        </CharString>
        <CharString name="dcroat">
          -13 91 -60 -21 27 -21 411 92 64 70 65 -20 hstemhm
          49 110 199 112 hintmask 10011111
          277 78 rmoveto
          -69 -49 54 118 108 53 56 76 hvcurveto
          22 0 23 -5 25 -8 1 -120 1 -96 1 -77 rrcurveto
          -24 -18 -27 -12 -33 0 rrcurveto
          hintmask 01011111
          96 -81 rmoveto
          hintmask 00111111
          104 6 rlineto
          -5 110 -2 153 0 233 rrcurveto
          70 62 71 -62 65 vlineto
          -112 -9 0 -56 -123 0 0 -70 123 0 0 -65 rlineto
          -7 1 -8 0 -7 0 rrcurveto
          -158 -129 -103 -181 hvcurveto
          hintmask 10011111
          -148 77 -87 105 vhcurveto
          57 0 46 27 34 33 rrcurveto
          endchar
        </CharString>
        <CharString name="degree">
          301 82 216 83 hstem
          89 89 194 89 vstem
          461 495 rmoveto
          115 -77 72 -102 -102 -91 -77 -118 -115 78 -71 101 102 91 76 118 vhcurveto
          -89 -2 rmoveto
          -1 -67 -41 -43 -55 0 -57 0 -40 46 0 62 1 65 41 43 55 0 57 0 40 -46 0 -60 rrcurveto
          endchar
        </CharString>
        <CharString name="dieresis">
          573 140 hstem
          109 113.5 109.5 112.5 vstem
          443 573 rmoveto
          -27 callsubr
          -110 hmoveto
          -26 callsubr
          endchar
        </CharString>
        <CharString name="divide">
          63 111 77 93 77 111 hstem
          217 116 vstem
          cntrmask 11100000
          332 421 rmoveto
          2 111 -116 0 -1 -111 rlineto
          276 -77 rmoveto
          -436 -93 436 hlineto
          -161 -188 rmoveto
          2 111 -116 0 -2 -111 rlineto
          endchar
        </CharString>
        <CharString name="dollar">
          -78.5 201.5 -84 86 372 90 1 111 0 -20 hstemhm
          75 119 168 119 hintmask 10101110
          194 455 rmoveto
          26 26 16 63 vhcurveto
          -21 -115 rlineto
          -39 26 -29 24 0 23 rrcurveto
          168 -284 rmoveto
          0 -27 -27 -18 -62 -3 rrcurveto
          22 122 rlineto
          39 -26 28 -23 0 -25 rrcurveto
          -110 -250 rmoveto
          19 113 rlineto
          151 14 59 61 0 67 0 69 -84 54 -77 47 rrcurveto
          28 148 rlineto
          32 -3 38 -6 45 -9 rrcurveto
          hintmask 10010110
          13 103 rlineto
          -34 5 -32 2 -30 2 rrcurveto
          23 110 -99 1 rlineto
          hintmask 01101110
          -19 -112 rlineto
          -151 -12 -59 -63 0 -67 0 -68 84 -52 77 -45 rrcurveto
          -28 -155 rlineto
          -36 2 -44 6 -51 9 rrcurveto
          -20 -103 rlineto
          43 -5 40 -3 36 -1 rrcurveto
          hintmask 10101110
          -22 -108 rlineto
          endchar
        </CharString>
        <CharString name="dotaccent">
          573 140 hstem
          217 115.5 vstem
          330 573 rmoveto
          15 callsubr
          endchar
        </CharString>
        <CharString name="dotlessi">
          0 84 331 83 hstem
          241 112 vstem
          517 hmoveto
          8 callsubr
          endchar
        </CharString>
        <CharString name="e">
          -12 93 142.5 68.5 128 91 hstem
          57 110 216 109 vstem
          464 -12 rmoveto
          -67 callsubr
          -184 432 rmoveto
          -66 callsubr
          endchar
        </CharString>
        <CharString name="eacute">
          -12 93 142.5 68.5 128 91 198 -20 hstem
          57 110 216 109 vstem
          166 616 rmoveto
          -20 callsubr
          298 -628 rmoveto
          -67 callsubr
          -184 432 rmoveto
          -66 callsubr
          endchar
        </CharString>
        <CharString name="ebreve">
          -12 93 142.5 68.5 128 91 61 89 hstem
          57 110 216 109 vstem
          285 572 rmoveto
          14 callsubr
          179 -584 rmoveto
          -67 callsubr
          -184 432 rmoveto
          -66 callsubr
          endchar
        </CharString>
        <CharString name="ecaron">
          -12 93 142.5 68.5 128 91 191 -20 hstem
          57 110 216 109 vstem
          294 562 rmoveto
          16 callsubr
          177 -574 rmoveto
          -67 callsubr
          -184 432 rmoveto
          -66 callsubr
          endchar
        </CharString>
        <CharString name="ecircumflex">
          -12 93 142.5 68.5 128 91 110 -20 33 -20 hstemhm
          57 110 216 109 hintmask 11101110
          402 569 rmoveto
          3 callsubr
          hintmask 11110110
          -182 -153 rlineto
          hintmask 11101110
          4 callsubr
          189 -683 rmoveto
          -67 callsubr
          -184 432 rmoveto
          -66 callsubr
          endchar
        </CharString>
        <CharString name="edieresis">
          -12 93 142.5 68.5 128 91 70 140 hstemhm
          57 110 -49 113.5 109.5 112.5 -70.5 109 hintmask 11110110
          452 581 rmoveto
          -27 callsubr
          -110 hmoveto
          -26 callsubr
          hintmask 11111001
          347 -593 rmoveto
          11 93 rlineto
          -220 5 -75 33 -12 100 rrcurveto
          321 9 rlineto
          18 173 -67 110 -140 0 -131 0 -112 -118 0 -153 rrcurveto
          0 -162 85 -93 322 3 rrcurveto
          -184 432 rmoveto
          -66 callsubr
          endchar
        </CharString>
        <CharString name="edotaccent">
          -12 93 142.5 68.5 128 91 70 140 hstem
          57 110 63 115.5 37.5 109 vstem
          343 581 rmoveto
          15 callsubr
          236 -593 rmoveto
          -67 callsubr
          -184 432 rmoveto
          -66 callsubr
          endchar
        </CharString>
        <CharString name="egrave">
          -12 93 142.5 68.5 128 91 191 -20 hstem
          57 110 216 109 vstem
          396 612 rmoveto
          -75 callsubr
          99 -576 rmoveto
          -67 callsubr
          -184 432 rmoveto
          -66 callsubr
          endchar
        </CharString>
        <CharString name="eight">
          -13 85 476 85 hstemhm
          63 106 -97 107 193 104 -95 107 hintmask 11100100
          264 -13 rmoveto
          138 86 77 97 hvcurveto
          0 77 -63 47 -70 40 rrcurveto
          hintmask 11011000
          76 38 45 49 0 73 rrcurveto
          90 -85 58 -109 -136 -74 -84 -83 vhcurveto
          0 -70 54 -47 64 -39 rrcurveto
          hintmask 11100100
          -79 -42 -48 -55 0 -73 rrcurveto
          -93 85 -60 116 vhcurveto
          hintmask 11011000
          -85 492 rmoveto
          36 32 33 64 66 31 -35 -49 vhcurveto
          0 -41 -28 -38 -47 -28 rrcurveto
          -63 35 -55 34 0 53 rrcurveto
          hintmask 11100100
          97 -407 rmoveto
          -73 -34 38 53 hvcurveto
          0 45 28 40 48 29 71 -40 65 -36 0 -54 rrcurveto
          -43 -41 -32 -64 vhcurveto
          endchar
        </CharString>
        <CharString name="eight.den">
          -220 64 162 -21 31 -21 136 63 hstemhm
          114 86 -79 88 136 84 -82 89 hintmask 10111001
          267 -220 rmoveto
          33 callsubr
          hintmask 10110110
          40 callsubr
          hintmask 11010101
          41 callsubr
          hintmask 10111001
          35 callsubr
          hintmask 10110110
          -58 310 rmoveto
          36 callsubr
          hintmask 10111001
          65 -246 rmoveto
          37 callsubr
          endchar
        </CharString>
        <CharString name="eight.inf">
          -160 64 287 63 hstemhm
          114 86 -79 88 136 84 -82 89 hintmask 11100100
          267 -160 rmoveto
          33 callsubr
          hintmask 11011000
          34 callsubr
          hintmask 11100100
          35 callsubr
          hintmask 11011000
          -58 310 rmoveto
          36 callsubr
          hintmask 11100100
          65 -246 rmoveto
          37 callsubr
          endchar
        </CharString>
        <CharString name="eight.num">
          415 64 141 -20 30 -20 156 63 hstemhm
          114 86 -79 88 136 84 -82 89 hintmask 10111001
          267 415 rmoveto
          33 callsubr
          hintmask 11010110
          34 callsubr
          hintmask 11011001
          35 callsubr
          hintmask 10110110
          -58 310 rmoveto
          36 callsubr
          hintmask 10111001
          65 -246 rmoveto
          37 callsubr
          endchar
        </CharString>
        <CharString name="eight.small">
          -10 64 287 63 hstemhm
          114 86 -79 88 136 84 -82 89 hintmask 11100100
          267 -10 rmoveto
          33 callsubr
          hintmask 11011000
          34 callsubr
          hintmask 11100100
          35 callsubr
          hintmask 11011000
          -58 310 rmoveto
          36 callsubr
          hintmask 11100100
          65 -246 rmoveto
          37 callsubr
          endchar
        </CharString>
        <CharString name="eight.sup">
          315 64 287 63 hstemhm
          114 86 -79 88 136 84 -82 89 hintmask 11100100
          267 315 rmoveto
          33 callsubr
          hintmask 11011000
          34 callsubr
          hintmask 11100100
          35 callsubr
          hintmask 11011000
          -58 310 rmoveto
          36 callsubr
          hintmask 11100100
          65 -246 rmoveto
          37 callsubr
          endchar
        </CharString>
        <CharString name="ellipsis">
          0 147 hstem
          34 115 68 115 68 115 vstem
          cntrmask 01110000
          512 hmoveto
          24 callsubr
          -68 hmoveto
          24 callsubr
          -68 hmoveto
          24 callsubr
          endchar
        </CharString>
        <CharString name="emacron">
          -12 93 142.5 68.5 128 91 93 95 hstem
          57 110 216 109 vstem
          457 699 rmoveto
          -23 callsubr
          7 -616 rmoveto
          -67 callsubr
          -184 432 rmoveto
          -66 callsubr
          endchar
        </CharString>
        <CharString name="emdash">
          256 84 hstem
          55 446 vstem
          501 340 rmoveto
          -446 -84 439 hlineto
          endchar
        </CharString>
        <CharString name="endash">
          256 84 hstem
          70 415 vstem
          485 340 rmoveto
          -415 -84 406 hlineto
          endchar
        </CharString>
        <CharString name="eogonek">
          -222 87 148 -21 9 80 142.5 68.5 128 91 hstemhm
          57 110 67 105 44 109 hintmask 10111111
          438 -222 rmoveto
          10 87 rlineto
          -80 7 -29 16 0 22 rrcurveto
          hintmask 11011111
          0 20 28 27 97 35 rrcurveto
          hintmask 10111111
          11 89 rlineto
          -220 5 -75 33 -12 100 rrcurveto
          321 9 rlineto
          18 173 -67 110 -140 0 rrcurveto
          -131 -112 -118 -153 -150 81 -89 217 hvcurveto
          -86 -42 -35 -42 0 -40 rrcurveto
          0 -50 56 -42 148 -7 rrcurveto
          -158 642 rmoveto
          -66 callsubr
          endchar
        </CharString>
        <CharString name="equal">
          167 91 106 92 hstem
          68 414 vstem
          482 456 rmoveto
          -414 -92 414 hlineto
          -106 vmoveto
          -414 -91 414 hlineto
          endchar
        </CharString>
        <CharString name="eth">
          -14 90 297 88 169 -20 102 -20 hstem
          50 109 231 107 vstem
          263 -14 rmoveto
          125 109 95 179 hvcurveto
          0 121 -43 104 -90 95 rrcurveto
          80 37 -24 63 -109 -50 rlineto
          -32 28 -37 27 -41 27 rrcurveto
          -72 -66 rlineto
          31 -20 28 -20 25 -20 rrcurveto
          -99 -45 24 -63 129 59 rlineto
          24 -25 20 -25 17 -26 -143 3 -135 -84 0 -164 rrcurveto
          -144 96 -86 117 vhcurveto
          14 90 rmoveto
          -66 -52 58 96 hvcurveto
          0 113 69 61 147 -46 10 -35 5 -36 0 -38 rrcurveto
          -115 -43 -58 -70 vhcurveto
          endchar
        </CharString>
        <CharString name="exclam">
          -13 151 552 -20 hstemhm
          199 151 -130 108.5 hintmask 11010000
          335 690 rmoveto
          -122 0 14 -452 95 0 rlineto
          hintmask 11100000
          -48 -100 rmoveto
          -42 -33 -34 -41 -43 33 -33 42 44 32 33 43 hvcurveto
          41 -32 34 -44 vhcurveto
          endchar
        </CharString>
        <CharString name="exclamdown">
          490 131 hstemhm
          207.5 143.5 -115 74 hintmask 11000000
          209 621 rmoveto
          -3 -131 144 0 2 131 rlineto
          hintmask 10100000
          -116 -245 rmoveto
          -1 -44 -37 -342 -2 -46 rrcurveto
          143 hlineto
          -1 46 -28 342 0 44 rrcurveto
          endchar
        </CharString>
        <CharString name="f">
          0 83 309 85 129 108 hstem
          202 111 vstem
          471 83 rmoveto
          -158 309 168 85 -168 18 hlineto
          0 89 19 16 182 6 rrcurveto
          -7 108 rlineto
          -233 -12 -72 -96 0 -128 rrcurveto
          -1 -122 vlineto
          -10 -85 132 0 0 -309 -126 0 0 -83 385 0 rlineto
          endchar
        </CharString>
        <CharString name="five">
          8 -21 536.5 96.5 hstem
          108.5 98 166.5 104 vstem
          477 209 rmoveto
          0 80 -64 70 -211 26 rrcurveto
          9 139 239 -1 8 97 -340 0 -19 -307 rlineto
          203 -20 71 -40 0 -51 0 -63 -72 -31 -218 -19 rrcurveto
          6 -102 rlineto
          271 18 117 90 0 114 rrcurveto
          endchar
        </CharString>
        <CharString name="five.den">
          -221 79 252 75 hstem
          148.5 76.5 122 82 vstem
          429 -80 rmoveto
          29 callsubr
          endchar
        </CharString>
        <CharString name="five.inf">
          -161 79 252 75 hstem
          148.5 76.5 122 82 vstem
          429 -20 rmoveto
          29 callsubr
          endchar
        </CharString>
        <CharString name="five.num">
          414 79 252 75 hstem
          148.5 76.5 122 82 vstem
          429 555 rmoveto
          29 callsubr
          endchar
        </CharString>
        <CharString name="five.small">
          -11 79 252 75 hstem
          148.5 76.5 122 82 vstem
          429 130 rmoveto
          29 callsubr
          endchar
        </CharString>
        <CharString name="five.sup">
          314 79 252 75 hstem
          148.5 76.5 122 82 vstem
          429 455 rmoveto
          29 callsubr
          endchar
        </CharString>
        <CharString name="fiveeighths">
          -220 64 162 -21 31 -21 136 63 75 72 73 79 252 75 hstemhm
          114 86 -79 88 -60.5 76.5 122 82 -82 89 hintmask 1011111001100000
          429 555 rmoveto
          29 callsubr
          -369 -286 rmoveto
          -16 callsubr
          hintmask 1011111100010000
          207 -561 rmoveto
          33 callsubr
          hintmask 1011111010100000
          40 callsubr
          hintmask 1101111010100000
          41 callsubr
          hintmask 1011111100100000
          35 callsubr
          hintmask 1011111010100000
          -58 310 rmoveto
          36 callsubr
          hintmask 1011111100010000
          65 -246 rmoveto
          37 callsubr
          endchar
        </CharString>
        <CharString name="fivesixths">
          -220 70 125 58 236 72 73 79 252 75 hstemhm
          112 84 -47.5 76.5 122 82 -74 83 hintmask 1111101100000000
          429 555 rmoveto
          29 callsubr
          -369 -286 rmoveto
          -16 callsubr
          hintmask 1111110010000000
          214 -561 rmoveto
          30 callsubr
          8 70 rmoveto
          31 callsubr
          endchar
        </CharString>
        <CharString name="four">
          0 213 -96 96 406 -20 28 -20 hstemhm
          73 87 181 102 hintmask 01011100
          505 117 rmoveto
          9 96 -71 0 0 217 -102 -11 0 -206 -181 0 rlineto
          hintmask 01101100
          2 28 82 331 11 47 rrcurveto
          hintmask 01011100
          -119 8 rlineto
          -45 -182 -22 -199 4 -129 rrcurveto
          268 hlineto
          hintmask 10011100
          -117 102 vlineto
          hintmask 01011100
          117 vlineto
          endchar
        </CharString>
        <CharString name="four.den">
          -135.5 71 hstem
          122 74 124 81 vstem
          448 -136 rmoveto
          -15 callsubr
          endchar
        </CharString>
        <CharString name="four.inf">
          -75.5 71 21.5 -21 hstem
          122 74 124 81 vstem
          448 -76 rmoveto
          6 72 -54 -1 2 128 -83 -7 2 -121 rlineto
          -125 1 rlineto
          2 16 57 207 7 26 rrcurveto
          -95 6 rlineto
          -32 -116 -17 -128 4 -83 rrcurveto
          198 1 -1 -75 83 0 -1 75 rlineto
          endchar
        </CharString>
        <CharString name="four.num">
          499.5 71 hstem
          122 74 124 81 vstem
          448 499 rmoveto
          -15 callsubr
          endchar
        </CharString>
        <CharString name="four.small">
          0 145.5 -71 71 hstemhm
          122 74 124 81 hintmask 01010000
          448 74 rmoveto
          hintmask 10110000
          6 72 -54 -1 2 128 -83 -7 2 -121 -125 1 rlineto
          2 16 57 207 7 26 rrcurveto
          -95 6 rlineto
          hintmask 01110000
          -32 -116 -17 -128 4 -83 rrcurveto
          198 1 rlineto
          hintmask 10010000
          -1 -75 83 0 rlineto
          hintmask 01010000
          -1 75 rlineto
          endchar
        </CharString>
        <CharString name="four.sup">
          399.5 71 hstem
          122 74 124 81 vstem
          448 399 rmoveto
          -15 callsubr
          endchar
        </CharString>
        <CharString name="fourfifths">
          -221 79 252 75 84 72 158.5 71 hstemhm
          122 74 -47.5 76.5 95 81 -54 82 hintmask 01110110
          448 499 rmoveto
          6 72 -54 -1 2 128 -83 -7 2 -121 rlineto
          hintmask 01111010
          -125 1 rlineto
          2 16 57 207 7 26 rrcurveto
          -95 6 rlineto
          -32 -116 -17 -128 4 -83 rrcurveto
          198 1 -1 -75 83 0 -1 75 rlineto
          -341 -231 rmoveto
          -16 callsubr
          hintmask 11110101
          369 -421 rmoveto
          29 callsubr
          endchar
        </CharString>
        <CharString name="fraction">
          -160 918 hstem
          23 498 vstem
          117 -160 rmoveto
          404 879 -94 39 -404 -880 rlineto
          endchar
        </CharString>
        <CharString name="fraction.afrc">
          269 72 hstem
          60 430 vstem
          60 269 rmoveto
          -16 callsubr
          endchar
        </CharString>
        <CharString name="g">
          -154 -21 219 87 285 94 hstem
          51 110 201 112 vstem
          122 -175 rmoveto
          -65 callsubr
          165 206 rmoveto
          -64 callsubr
          endchar
        </CharString>
        <CharString name="gbreve">
          -154 -21 219 87 285 94 61 89 hstem
          51 110 201 112 vstem
          289 571 rmoveto
          14 callsubr
          -167 -746 rmoveto
          -65 callsubr
          165 206 rmoveto
          -64 callsubr
          endchar
        </CharString>
        <CharString name="gcommaaccent">
          -154 -21 219 87 285 94 hstem
          51 110 60 118 23 112 vstem
          357 776 rmoveto
          19 callsubr
          -235 -951 rmoveto
          -65 callsubr
          165 206 rmoveto
          -64 callsubr
          endchar
        </CharString>
        <CharString name="gdotaccent">
          -154 -21 219 87 285 94 70 140 hstem
          51 110 73 115.5 12.5 112 vstem
          347 580 rmoveto
          15 callsubr
          -110 -755 rmoveto
          -65 callsubr
          165 206 rmoveto
          -64 callsubr
          endchar
        </CharString>
        <CharString name="germandbls">
          -7 94 -87 87 531 94 hstemhm
          69 110 77 108 -19 111 -41 112 hintmask 10111010
          364 357 rmoveto
          hintmask 01110100
          0 50 92 45 0 112 rrcurveto
          71 -49 77 -113 -146 -79 -110 -145 vhcurveto
          -457 110 481 vlineto
          95 29 42 61 52 24 -37 -41 vhcurveto
          0 -72 -89 -50 0 -76 rrcurveto
          hintmask 10111010
          0 -114 159 -23 0 -65 0 -40 -43 -21 -109 11 rrcurveto
          -5 -97 rlineto
          207 -9 62 82 0 79 rrcurveto
          0 118 -163 31 0 63 rrcurveto
          endchar
        </CharString>
        <CharString name="grave">
          556 228 hstem
          129 286 vstem
          415 604 rmoveto
          -75 callsubr
          endchar
        </CharString>
        <CharString name="greater">
          26 575 hstem
          55 439 vstem
          107 601 rmoveto
          -52 -83 342 -205 -342 -207 55 -80 384 239 0 97 rlineto
          endchar
        </CharString>
        <CharString name="greaterequal">
          7 94 hstem
          359 116 vstem
          359 370 rmoveto
          0 -8 -273 -132 36 -86 354 174 -2 85 -344 206 -44 -83 rlineto
          -17 -425 rmoveto
          -94 412 94 vlineto
          endchar
        </CharString>
        <CharString name="guillemotleft">
          2 -21 536 -20 hstem
          32 495 vstem
          199 -19 rmoveto
          -25 callsubr
          411 -213 rmoveto
          -24 callsubr
          endchar
        </CharString>
        <CharString name="guillemotleft.cap">
          511 -20 hstem
          32 495 vstem
          199 40 rmoveto
          -25 callsubr
          411 -213 rmoveto
          -24 callsubr
          endchar
        </CharString>
        <CharString name="guillemotright">
          2 -21 536 -20 hstem
          24 495 vstem
          347 -19 rmoveto
          -18 callsubr
          -165 -66 rmoveto
          -17 callsubr
          endchar
        </CharString>
        <CharString name="guillemotright.cap">
          513 -20 hstem
          24 495 vstem
          347 40 rmoveto
          -18 callsubr
          -165 -66 rmoveto
          -17 callsubr
          endchar
        </CharString>
        <CharString name="guilsinglleft">
          2 -21 hstem
          120 315 vstem
          355 -19 rmoveto
          25 callsubr
          endchar
        </CharString>
        <CharString name="guilsinglleft.cap">
          499 -20 hstem
          120 315 vstem
          355 40 rmoveto
          25 callsubr
          endchar
        </CharString>
        <CharString name="guilsinglright">
          2 -21 hstem
          116 315 vstem
          190 -19 rmoveto
          26 callsubr
          endchar
        </CharString>
        <CharString name="guilsinglright.cap">
          500 -20 hstem
          116 315 vstem
          190 40 rmoveto
          26 callsubr
          endchar
        </CharString>
        <CharString name="h">
          21 -21 416 95 190 -20 30 -20 hstemhm
          77 111 182 111 hintmask 11011100
          286 416 rmoveto
          52 32 -28 -88 hvcurveto
          -300 111 339 vlineto
          121 -56 51 -87 vhcurveto
          -63 0 -49 -26 -38 -32 rrcurveto
          0 258 rlineto
          hintmask 11101100
          -111 -10 0 -701 111 0 0 386 rlineto
          29 18 32 12 37 0 rrcurveto
          endchar
        </CharString>
        <CharString name="hbar">
          21 -21 416 91 63 70 61 -20 30 -20 hstemhm
          76 112 182 111 hintmask 11101110
          286 416 rmoveto
          52 32 -28 -88 hvcurveto
          -300 111 339 vlineto
          118 -56 50 -87 vhcurveto
          -63 0 -49 -26 -38 -31 rrcurveto
          120 123 70 -123 71 vlineto
          hintmask 11110110
          -112 -10 0 -61 -63 0 0 -71 63 0 0 -569 112 0 0 386 rlineto
          29 18 32 12 37 0 rrcurveto
          endchar
        </CharString>
        <CharString name="hcoslug">
          -100 75 4 9 -8 10 -10 14 -4 11 -10 10 -9 7 0 12 -11 11 -7 15 -15 26 -25 26 -15 8 -8 15 -12 12 0 14 -9 10 -10 19 -9 11 2 8 -7 32 71.5 22.5 hstemhm
          50 64 10 16 -3 8 5 40 -35 12 -1 12 14 10 -2 10 -10 42 -31 9 -1 7 3 12 -6 11 9 40 -29 13 -9 10 0 12 -4 11 -2 12 -5 16 18 11 10 8 hintmask 001000000000000010000010000010000010000010010000
          500 700 rmoveto
          -450 hlineto
          hintmask 100000000000000000001110000000100000001000000000
          -800 450 vlineto
          -300 396 rmoveto
          0 -17 11 -11 17 -16 9 13 5 12 0 12 rrcurveto
          18 -9 11 -13 -12 -8 -9 -13 vhcurveto
          49 -64 rmoveto
          12 -12 9 -12 9 -11 15 25 3 18 -17 17 -7 -7 -10 -9 -14 -9 rrcurveto
          -39 -93 rmoveto
          12 0 9 3 8 6 -21 27 -21 22 -14 13 -8 -8 -4 -11 0 -11 0 -23 17 -18 22 0 rrcurveto
          91 34 rmoveto
          19 -22 13 -9 15 0 15 0 9 9 8 13 rrcurveto
          5 -1 rlineto
          -1 -44 -27 -27 -32 0 -22 0 -17 8 -25 26 -21 -23 -25 -11 -32 0 -45 0 -36 30 0 40 0 31 21 24 40 13 -16 17 -7 13 0 22 rrcurveto
          32 31 32 51 46 25 -30 -26 vhcurveto
          0 -10 -2 -8 -5 -7 20 0 15 -8 2 -20 12 18 14 10 19 0 rrcurveto
          21 16 -15 -24 -23 -16 -17 -21 hvcurveto
          -14 0 -12 7 -6 12 -12 -7 -12 -10 -11 -15 rrcurveto
          hintmask 000000000000000000001000000000000100000000000000
          -72 -105 rmoveto
          -8 10 -5 -10 vlineto
          hintmask 000000000000000001000000000000000100000000000000
          -15 vlineto
          -3 1 -1 2 vhcurveto
          2 0 1 1 1 4 rrcurveto
          4 -1 rlineto
          -2 -7 -3 -3 -6 0 rrcurveto
          -6 -3 4 6 hvcurveto
          hintmask 000000000000000000100000000000010000000000000000
          15 -5 5 5 7 vlineto
          hintmask 000000000000000010000000100000000000000000000000
          -75 -21 rmoveto
          42 callsubr
          hintmask 000000000000000010000010000000000000000000000000
          22 hmoveto
          43 callsubr
          hintmask 000000000000000100000000000000000000000100000000
          132 -1 rmoveto
          6 -2 4 -3 -5 -1 -5 -5 -6 1 -4 5 vhcurveto
          3 2 4 6 hvcurveto
          hintmask 000000000000000010000010000000000000000000000000
          -120 -9 rmoveto
          4 hlineto
          hintmask 000000000000000000100010000000000000000000000000
          19 -4 5 vlineto
          hintmask 000000000000000000001000000010000000000000000000
          13 -6 hlineto
          2 4 3 3 5 0 rrcurveto
          7 2 -5 -6 hvcurveto
          hintmask 000000000000000010000000000000010000000000000000
          -14 5 -5 vlineto
          hintmask 000000000001000000000000000010000000000000000000
          -17 5 3 hlineto
          hintmask 000000000000000000100000000010000000000000000000
          13 vlineto
          3 -1 3 -3 -3 -3 -3 -5 vhcurveto
          -11 3 -5 vlineto
          hintmask 000000000000000010000010000000000000000000000000
          -16 hlineto
          -71 5 rmoveto
          6 hlineto
          hintmask 000000000000000000010010000000000000000000000000
          31 -6 5 vlineto
          hintmask 000000000000000000001000001000000000000000000000
          38 hlineto
          hintmask 000000000000000000100000001000000000000000000000
          -15 -5 vlineto
          -2 8 -1 2 -6 0 rrcurveto
          -8 hlineto
          hintmask 000000000000000000010001000000000000000000000000
          -14 3 vlineto
          4 0 0 1 1 5 rrcurveto
          5 hlineto
          hintmask 000000000000000010000000100000000000000000000000
          -17 -5 vlineto
          -1 5 0 1 -4 0 rrcurveto
          -3 hlineto
          hintmask 000000000000000010000001000000000000000000000000
          -12 7 -5 vlineto
          hintmask 000000000000000010000010000000000000000000000000
          -23 hlineto
          hintmask 000000000000000001000000000000000100000000000000
          133 10 rmoveto
          5 hlineto
          3 -4 3 -3 3 0 3 0 1 2 0 1 rrcurveto
          hintmask 000000000000000000010000000000000100000000000000
          0 7 -18 -4 0 12 0 4 4 5 7 0 3 0 3 -1 2 -3 rrcurveto
          1 4 5 0 0 -10 -5 0 rlineto
          -3 4 -2 1 -3 0 -2 0 -2 -1 0 -2 rrcurveto
          hintmask 000000000001000000000000000000000000100000000000
          0 -5 18 2 0 -11 0 -5 -3 -4 -7 0 -5 0 -3 2 -2 2 rrcurveto
          -1 -3 -5 0 rlineto
          hintmask 000000000000000000010000000000000000100000000000
          38 38 rmoveto
          -5 5 hlineto
          hintmask 000000000000000000001000000000000000000100000000
          14 hlineto
          hintmask 000000000000000000010000000000000000000100000000
          -20 vlineto
          1 4 4 3 4 0 rrcurveto
          hintmask 000000000010000000000000000000000000000010000000
          7 5 -6 -9 -7 -3 -9 -9 hvcurveto
          -6 0 -3 2 -2 4 rrcurveto
          -3 -6 -4 0 rlineto
          hintmask 100000000000000000001000000000000000000010000000
          39 -6 rmoveto
          3 3 2 4 hvcurveto
          -3 7 -9 18 0 0 rrcurveto
          -3 5 18 -5 -4 hlineto
          7 -15 6 15 -4 0 0 5 13 0 0 -5 -4 0 rlineto
          hintmask 000000000100000000000000000000000000000010000000
          -10 -24 rlineto
          -3 -7 -4 -5 -6 0 rrcurveto
          -6 -3 3 4 3 2 2 3 hvcurveto
          5 0 1 -5 -2 -2 rrcurveto
          hintmask 000000001000000000000000000000000000000000000000
          45 -24 rmoveto
          -6 -4 vlineto
          -2 -4 -2 -3 -3 -3 2 -2 2 -2 1 0 1 0 1 1 1 3 rrcurveto
          3 -1 rlineto
          -1 -5 -2 -4 -6 0 rrcurveto
          hintmask 100000000000000000000000000000000000000001000000
          -4 0 -2 2 -3 3 -3 -3 -4 -2 -6 0 -7 0 -5 4 0 6 0 6 4 3 6 2 -3 3 -2 3 0 4 rrcurveto
          hintmask 000000000000100000000000000000000000000000100000
          5 4 6 9 6 4 -4 -5 vhcurveto
          0 -5 -3 -2 -5 -3 2 -2 4 -5 3 -3 2 2 2 3 1 2 rrcurveto
          -5 6 hlineto
          hintmask 000000000010000000000000000000000010000000000000
          -114 4 rmoveto
          11 4 hlineto
          -3 -2 2 2 2 1 1 0 hvcurveto
          0 -1 1 -2 -2 -2 -2 -6 vhcurveto
          hintmask 100000000000000000000000000000000000000000010000
          132 -13 rmoveto
          hintmask 000010000000000000000000000000000000000000010000
          15 9 8 11 vhcurveto
          hintmask 000010000000000000000000000000000000000000000000
          5 0 4 -2 3 -3 rrcurveto
          4 6 -16 -6 vlineto
          hintmask 000000010000000000000000000000000000000000000000
          -3 9 -2 3 -6 0 rrcurveto
          -6 -4 -5 -12 hvcurveto
          hintmask 010000000000000000000000000000000000000000000000
          -11 4 -6 8 vhcurveto
          hintmask 000001000000000000000000000000000000000000000000
          6 0 3 6 1 6 rrcurveto
          6 hlineto
          hintmask 100000000000000000000000000000000000000000000000
          -1 -10 -6 -7 -11 0 rrcurveto
          -13 -8 7 14 hvcurveto
          hintmask 000000010000000000000000000000000000000000100000
          -29 4 rmoveto
          2 1 2 3 0 3 rrcurveto
          3 -2 2 -3 -2 -2 -1 -3 vhcurveto
          0 -2 2 -3 3 -3 rrcurveto
          hintmask 001000000000000000000000000000000000010000000000
          -68 -11 rmoveto
          44 callsubr
          hintmask 100000000000000000000000000000000000010000000000
          -1 -6 -4 -5 -8 0 rrcurveto
          -10 -6 6 9 hvcurveto
          hintmask 000000000001000000000000000000000000010000000000
          10 7 6 8 vhcurveto
          11 0 4 -7 -1 -10 rrcurveto
          hintmask 001000000000000000000000000001000000000000000000
          -89 hmoveto
          44 callsubr
          hintmask 100000000000000000000000000000001000000000000000
          -1 -6 -4 -5 -8 0 rrcurveto
          hintmask 100000000000000000000000010000000000000000000000
          -10 -6 6 9 hvcurveto
          hintmask 000000000001000000000000010000000000000000000000
          10 7 6 8 vhcurveto
          hintmask 000000000001000000000000000000001000000000000000
          11 0 4 -7 -1 -10 rrcurveto
          hintmask 001000000000000000000010000001000000000000000000
          -63 2 rmoveto
          42 callsubr
          252 hmoveto
          hintmask 001000000000000000000000000000000000000000000000
          9 7 6 9 9 7 -6 -9 vhcurveto
          hintmask 001000000000000000000010000001000000000000000000
          -9 -7 -7 -9 -9 -7 6 10 vhcurveto
          hintmask 000000100000000000000000000001000000010000000000
          -138 2 rmoveto
          10 hlineto
          6 -1 3 -4 vhcurveto
          -3 -2 -2 -7 hvcurveto
          -70 hmoveto
          10 hlineto
          6 -1 3 -4 -3 -2 -2 -7 vhcurveto
          hintmask 001000000000000000000000000100000000000000000000
          -22 -2 rmoveto
          43 callsubr
          hintmask 001000000000000000000000000000000000000000000000
          252 hmoveto
          43 callsubr
          hintmask 100000000000000000000000000000001000000000000000
          -208 -10 rmoveto
          4 hlineto
          hintmask 000000100000000000000000000000001000000000000000
          19 -5 5 5 1 vlineto
          hintmask 000000000000001000000000000000001000000000000000
          10 7 4 6 vhcurveto
          4 0 2 -1 2 -1 rrcurveto
          8 2 rlineto
          hintmask 001000000000000000000000000000000000100000000000
          -39 4 -5 vlineto
          hintmask 100000000000000000000000000000000010000000000000
          -17 5 4 hlineto
          hintmask 000000100000000000000000000000000010000000000000
          19 -11 vlineto
          hintmask 001000000000000000000000000000000010000000000000
          -19 4 -5 vlineto
          hintmask 100000000000000000000000000000001000000000000000
          -17 hlineto
          hintmask 100000000000000000000000000000000001000000000000
          69 5 rmoveto
          4 hlineto
          hintmask 000000100000000000000000000000000001000000000000
          19 -4 5 vlineto
          hintmask 000000000001000000000000000000000000000001000000
          13 -6 hlineto
          2 5 3 2 4 0 rrcurveto
          4 2 -2 -4 -3 -2 -2 -3 -2 -3 1 3 hvcurveto
          1 vlineto
          -1 0 -3 -3 -1 -4 rrcurveto
          hintmask 001000000000000000000000000000000000000001000000
          -12 6 -5 vlineto
          hintmask 100000000000000000000000000000000001000000000000
          -19 hlineto
          hintmask 100000000000000000000010000000000000000000000000
          -183 5 rmoveto
          6 hlineto
          hintmask 000000010000000000000010000000000000000000000000
          31 -6 5 vlineto
          hintmask 000000000000010000000001000000000000000000000000
          21 -5 -5 hlineto
          hintmask 000000010000000000000001000000000000000000000000
          -12 16 12 -5 5 vlineto
          hintmask 000000000000010000000000000100000000000000000000
          21 -5 -6 hlineto
          hintmask 001000000000000000000000000100000000000000000000
          -31 6 -5 vlineto
          hintmask 100000000000000000000001000000000000000000000000
          -21 5 5 hlineto
          hintmask 000100000000000000000001000000000000000000000000
          14 -16 vlineto
          hintmask 001000000000000000000001000000000000000000000000
          -14 5 -5 vlineto
          hintmask 100000000000000000000010000000000000000000000000
          -21 hlineto
          hintmask 001000000000000000000000000000000000000000100000
          234 7 rmoveto
          -2 2 -4 5 -4 4 -2 -2 -1 -2 0 -3 0 -4 3 -3 4 0 rrcurveto
          2 0 2 1 2 2 rrcurveto
          hintmask 100000000000000000000000000000000000000000000000
          111 -2 rmoveto
          -3 -2 -3 -4 -4 -2 3 3 3 2 3 4 vhcurveto
          4 2 -3 -3 hvcurveto
          endchar
        </CharString>
        <CharString name="hungarumlaut">
          563 235 hstem
          121 422 vstem
          121 597 rmoveto
          21 callsubr
          210 -2 rmoveto
          22 callsubr
          endchar
        </CharString>
        <CharString name="hyphen">
          267 92 hstem
          69 412 vstem
          69 267 rmoveto
          412 92 -412 hlineto
          endchar
        </CharString>
        <CharString name="i">
          0 84 331 83 75 140 hstemhm
          238.5 116 -113.5 112 hintmask 11110000
          350 573 rmoveto
          -63 callsubr
          282 -573 rmoveto
          9 84 rlineto
          hintmask 11101000
          -62 callsubr
          endchar
        </CharString>
        <CharString name="iacute">
          0 84 331 83 203 -20 hstem
          241 112 vstem
          179 608 rmoveto
          -20 callsubr
          338 -608 rmoveto
          8 callsubr
          endchar
        </CharString>
        <CharString name="ibreve">
          0 84 331 83 66 89 hstem
          241 112 vstem
          299 564 rmoveto
          14 callsubr
          218 -564 rmoveto
          8 callsubr
          endchar
        </CharString>
        <CharString name="icircumflex">
          0 84 331 83 128 -20 hstem
          241 112 vstem
          416 561 rmoveto
          -13 callsubr
          228 -663 rmoveto
          8 callsubr
          endchar
        </CharString>
        <CharString name="idieresis">
          0 84 331 83 75 140 hstemhm
          131 113.5 -3.5 112 1 112.5 hintmask 11110100
          465 573 rmoveto
          -27 callsubr
          -110 hmoveto
          -26 callsubr
          387 -573 rmoveto
          9 84 rlineto
          hintmask 11101000
          -62 callsubr
          endchar
        </CharString>
        <CharString name="igrave">
          0 84 331 83 hstem
          241 112 vstem
          410 604 rmoveto
          -75 callsubr
          138 -556 rmoveto
          8 callsubr
          endchar
        </CharString>
        <CharString name="imacron">
          0 84 331 83 98 95 hstem
          241 112 vstem
          470 691 rmoveto
          -23 callsubr
          47 -596 rmoveto
          8 callsubr
          endchar
        </CharString>
        <CharString name="iogonek">
          -224 87 137 84 331 83 75 140 hstemhm
          160 105 -26.5 116 -113.5 112 hintmask 11110100
          350 573 rmoveto
          -63 callsubr
          139 -710 rmoveto
          hintmask 11111000
          -80 7 -29 16 0 23 0 22 19 28 63 41 rrcurveto
          170 0 9 84 rlineto
          hintmask 01110010
          -173 414 -278 hlineto
          -9 -79 175 -8 0 -327 rlineto
          hintmask 11111000
          -173 -84 181 hlineto
          -62 -44 -27 -39 0 -38 0 -54 56 -42 149 -7 rrcurveto
          endchar
        </CharString>
        <CharString name="j">
          -175 104 485 84 75 140 hstemhm
          277.5 116 -109.5 112 hintmask 11110000
          391 573 rmoveto
          5 140 -116 0 -5 -140 rlineto
          hintmask 11101000
          121 -511 rmoveto
          436 -307 vlineto
          -9 -79 204 -10 0 -371 rlineto
          0 -87 -23 -16 -205 -6 rrcurveto
          -4 -104 rlineto
          259 6 85 83 0 148 rrcurveto
          endchar
        </CharString>
        <CharString name="k">
          14 -21 28 -21 28 -21 207 79.5 198.5 -20 29 -20 220 -20 30 -20 hstemhm
          88 111 hintmask 1001010110000000
          406 -7 rmoveto
          hintmask 0011100110000000
          -61 callsubr
          hintmask 0011010110000000
          -60 callsubr
          hintmask 0101011010000000
          -59 callsubr
          endchar
        </CharString>
        <CharString name="kcommaaccent">
          14 -21 28 -21 28 -21 207 79.5 198.5 -20 29 -20 220 -20 30 -20 hstemhm
          88 111 40 118 hintmask 1001010111000000
          406 -7 rmoveto
          hintmask 0011100111000000
          -61 callsubr
          hintmask 0011010111000000
          -60 callsubr
          hintmask 0101011011000000
          -59 callsubr
          -38 -488 rmoveto
          20 callsubr
          endchar
        </CharString>
        <CharString name="l">
          0 84 536 -20 16 83 hstemhm
          223 112 hintmask 10110000
          480 hmoveto
          -58 callsubr
          hintmask 11010000
          -10 -79 rlineto
          hintmask 10110000
          -57 callsubr
          endchar
        </CharString>
        <CharString name="lacute">
          0 84 536 -20 16 83 hstemhm
          223 112 hintmask 10110000
          161 810 rmoveto
          -20 callsubr
          319 -810 rmoveto
          -58 callsubr
          hintmask 11010000
          -10 -79 rlineto
          hintmask 10110000
          -57 callsubr
          endchar
        </CharString>
        <CharString name="lcaron">
          0 84 536 -20 16 83 hstemhm
          223 112 108 107 hintmask 10111000
          425 566 rmoveto
          17 callsubr
          55 -566 rmoveto
          -58 callsubr
          hintmask 11011000
          -10 -79 rlineto
          hintmask 10111000
          -57 callsubr
          endchar
        </CharString>
        <CharString name="lcommaaccent">
          0 84 536 -20 16 83 hstemhm
          223 112 -108 118 hintmask 10110000
          480 hmoveto
          -58 callsubr
          hintmask 11010000
          -10 -79 rlineto
          hintmask 10110000
          -57 callsubr
          hintmask 10101000
          139 -266 rmoveto
          18 callsubr
          endchar
        </CharString>
        <CharString name="ldot">
          0 84 176 128 232 -20 16 83 hstemhm
          223 112 164 109.5 hintmask 11011100
          480 hmoveto
          -58 callsubr
          hintmask 11101100
          -10 -79 rlineto
          hintmask 11011100
          -57 callsubr
          536 260 rmoveto
          7 128 -109 0 -8 -128 rlineto
          endchar
        </CharString>
        <CharString name="less">
          26 575 hstem
          55 439 vstem
          442 601 rmoveto
          -387 -239 0 -97 384 -239 55 81 -343 206 343 207 rlineto
          endchar
        </CharString>
        <CharString name="lessequal">
          7 94 hstem
          76 115 vstem
          191 370 rmoveto
          273 156 -44 83 -343 -206 -2 -85 354 -174 36 86 -274 132 rlineto
          290 -261 rmoveto
          -412 -94 412 hlineto
          endchar
        </CharString>
        <CharString name="lig.1">
          -13 85 273 80 198 80 hstemhm
          -460.16699 99.91699 -67.83301 99.91602 183.33398 94.41602 48.58398 99.91602 -67.83301 99.91699 183.33301 94.41699 hintmask 1110110110000000
          232.83301 425 rmoveto
          -59.58301 -43.08301 47 58 55 28.41602 38 56.83398 hvcurveto
          42.16602 0 26.58398 -17 30.25 -36 rrcurveto
          57.75 57 rlineto
          -49.5 59 -50.41699 17 -62.33301 0 -108.16699 0 -71.5 -75 0 -91 0 -44 12.83301 -40 31.16699 -28 rrcurveto
          -299.75 hlineto
          -59.58301 -43.08398 47 58 55 28.41699 38 56.83301 hvcurveto
          42.16699 0 26.58301 -17 30.25 -36 rrcurveto
          57.75 57 rlineto
          -49.5 59 -50.41602 17 -62.33398 0 -108.16602 0 -71.5 -75 0 -91 0 -68 31.16602 -57 77.91699 -21 rrcurveto
          -3 vlineto
          hintmask 1111011010000000
          -89.83301 -22 -51.33398 -64 0 -106 0 -110 67.83398 -99 143 0 107.25 0 59.58301 50 32.08301 40 rrcurveto
          268 105.41699 vlineto
          -36.66699 -33 -20.16602 -50 0 -66 0 -110 67.83301 -99 143 0 107.25 0 59.58301 50 32.08398 40 rrcurveto
          268 73.33301 80 vlineto
          -626.08301 -310 rmoveto
          -21.08398 -27 -35.75 -16 -43.08301 0 rrcurveto
          -79.75 -35.75 60 70 68 37.58301 75 86.16699 hvcurveto
          91.66699 hlineto
          458.33301 -230 rmoveto
          -21.08301 -27 -35.75 -16 -43.08398 0 rrcurveto
          -79.75 -35.75 60 70 68 37.58398 75 86.16602 hvcurveto
          91.66699 hlineto
          endchar
        </CharString>
        <CharString name="lig.10">
          45.83301 -106 rmoveto
          49 callsubr
          -256.66699 674 rmoveto
          50 callsubr
          endchar
        </CharString>
        <CharString name="lig.100">
          13 -21 641 -20 hstemhm
          -323.58301 98.08301 -85.25 73.33301 hintmask 11000000
          -531.66699 633 rmoveto
          100 callsubr
          514.25 113 rmoveto
          101 callsubr
          hintmask 11100000
          -708.58301 269 rmoveto
          hintmask 11010000
          12.83301 -254 -217.25 89 -31.16699 -100 225.5 -66 -135.66602 -186 80.66602 -63 115.5 202 127.41699 -208 79.75 65 -147.58301 190 222.75 65 -28.41699 100 -218.16699 -88 rlineto
          hintmask 11100000
          11.91699 254 rlineto
          endchar
        </CharString>
        <CharString name="lig.101">
          712 -20 hstem
          -299.75 86.16699 279.58301 86.16699 vstem
          -299.75 712 rmoveto
          102 callsubr
          279.58301 hmoveto
          103 callsubr
          -451.91699 -687 rmoveto
          70 callsubr
          endchar
        </CharString>
        <CharString name="lig.102">
          2 -21 hstem
          -322.66699 94.41699 vstem
          -228.25 725 rmoveto
          -94.41699 -828 94.41699 hlineto
          -194.33301 748 rmoveto
          -419.83398 -283 0 -97 419.83398 -284 0 115 -331.83398 217 331.83398 219 rlineto
          294.25 113 rmoveto
          0 -114 332.75 -218 -332.75 -220 0 -113 421.66602 285 0 97 rlineto
          endchar
        </CharString>
        <CharString name="lig.103">
          -70 105 585 95 hstem
          -473 99.91699 74.25 66.91602 102.66699 102.66699 vstem
          -17.41699 633 rmoveto
          -68.75 49 -72.41602 25 -73.33398 8 rrcurveto
          136 -66.91602 -136 vlineto
          -112.75 -13 -61.41699 -90 0 -90 0 -94 57.75 -60 116.41699 -42 rrcurveto
          -291 vlineto
          -57.75 -1 -50.41699 11 -97.16699 62 rrcurveto
          -314.41602 206 257.58301 170 20.16699 126 -365.75 -247 0 -97 402.41602 -273 rlineto
          80.66699 -48 41.25 -13 83.41699 -1 rrcurveto
          -86 66.91602 90 vlineto
          126.5 16 78.83398 109 0 121 0 117 -101.75 75 -103.58398 37 rrcurveto
          212 vlineto
          43.08398 -5 66 -26 105.41602 -72 rrcurveto
          313.5 -205 -242 -158 -30.25 -136 361.16699 246 0 97 rlineto
          -683.83301 72 rmoveto
          -59.58398 28 -14.66602 26 0 41 0 48 29.33301 34 44.91699 9 rrcurveto
          169.58301 -449 rmoveto
          62 callsubr
          endchar
        </CharString>
        <CharString name="lig.104">
          15 -21 173 91 106 92 172 -20 hstem
          445.5 364 rmoveto
          92 -1255.83301 vlineto
          24.75 16 13.75 16 12.83301 15 rrcurveto
          48.58301 58 -71.5 67 -259.41602 -317 259.41602 -317 71.5 67 -48.58301 58 rlineto
          -12.83301 16 -13.75 15 -24.75 17 rrcurveto
          1255.83301 91 -1320.91699 hlineto
          -44 53 44 53 rlineto
          endchar
        </CharString>
        <CharString name="lig.105">
          15 -21 173 91 106 92 172 -20 hstem
          231.91699 628 rmoveto
          -71.5 -67 48.58301 -58 rlineto
          12.83301 -15 13.75 -16 24.75 -16 rrcurveto
          -1070.66602 hlineto
          24.75 16 13.75 16 12.83301 15 rrcurveto
          48.58301 58 -71.5 67 -259.41602 -317 259.41602 -317 71.5 67 -48.58301 58 rlineto
          -12.83301 16 -13.75 15 -24.75 17 rrcurveto
          1070.66602 hlineto
          -24.75 -17 -13.75 -15 -12.83301 -16 rrcurveto
          -48.58301 -58 71.5 -67 259.41602 317 rlineto
          -1366.75 -53 rmoveto
          -44 53 44 53 1200.83398 0 44 -53 -44 -53 rlineto
          endchar
        </CharString>
        <CharString name="lig.106">
          15 -21 173 91 106 92 172 -20 hstem
          -829.58301 258 rmoveto
          -44 53 44 53 1100.91602 0 165 197 -72.41602 67 -140.25 -172 -988.16699 0 rlineto
          24.75 16 13.75 16 12.83301 15 rrcurveto
          48.58398 58 -71.5 67 -259.41699 -317 259.41699 -317 71.5 67 -48.58398 58 rlineto
          -12.83301 16 -13.75 15 -24.75 17 rrcurveto
          988.16699 0 140.25 -173 72.41602 67 -165 197 rlineto
          endchar
        </CharString>
        <CharString name="lig.107">
          17 -21 270 94 270 -20 hstem
          186.08301 630 rmoveto
          -71.5 -67 105.41699 -126 rlineto
          30.25 -36 17.41699 -19 31.16602 -22 rrcurveto
          -1147.66602 hlineto
          31.16602 22 17.41699 19 30.25 36 rrcurveto
          105.41699 126 -71.5 67 -259.41699 -317 259.41699 -317 71.5 67 -105.41699 126 rlineto
          -25.66699 31 -24.75 25 -27.5 21 rrcurveto
          1145.83398 hlineto
          -27.5 -21 -24.75 -25 -25.66699 -31 rrcurveto
          -105.41699 -126 71.5 -67 259.41699 317 rlineto
          endchar
        </CharString>
        <CharString name="lig.108">
          17 -21 270 94 270 -20 hstem
          -736.08301 630 rmoveto
          -259.41699 -317 259.41699 -317 71.5 67 -105.41699 126 rlineto
          -25.66699 31 -24.75 25 -27.5 21 rrcurveto
          1288.83398 94 -1289.75 hlineto
          31.16602 22 17.41699 19 30.25 36 rrcurveto
          105.41699 126 rlineto
          endchar
        </CharString>
        <CharString name="lig.109">
          17 -21 270 94 270 -20 hstem
          435.41699 563 rmoveto
          -71.5 67 -220.91699 -270 -1002.83301 0 rlineto
          31.16602 22 17.41699 19 30.25 36 rrcurveto
          111.83301 133 -64.16602 60 -260.33398 -317 260.33398 -317 64.16602 60 -111.83301 133 rlineto
          -25.66699 31 -24.75 25 -27.5 21 rrcurveto
          1001.91699 0 220.91699 -270 71.5 67 -209 250 rlineto
          endchar
        </CharString>
        <CharString name="lig.11">
          -212.66699 94.41699 235.58301 94.41699 vstem
          -118.25 808 rmoveto
          51 callsubr
          330 911 rmoveto
          51 callsubr
          endchar
        </CharString>
        <CharString name="lig.110">
          15 -21 173 91 106 92 172 -20 hstem
          -664.58301 561 rmoveto
          98 callsubr
          1319.08301 53 rmoveto
          92 -948.75 vlineto
          24.75 16 13.75 16 12.83301 15 rrcurveto
          48.58398 58 -71.5 67 -259.41699 -317 259.41699 -317 71.5 67 -48.58398 58 rlineto
          -12.83301 16 -13.75 15 -24.75 17 rrcurveto
          948.75 91 -1013.83301 hlineto
          -44 53 44 53 rlineto
          endchar
        </CharString>
        <CharString name="lig.111">
          17 -21 270 94 270 -20 hstem
          -736.08301 630 rmoveto
          96 callsubr
          237.41602 67 rmoveto
          -260.33301 -317 260.33301 -317 71.5 67 -106.33301 126 rlineto
          -24.75 31 -24.75 25 -27.5 21 rrcurveto
          979.91699 94 -980.83398 hlineto
          31.16699 22 17.41699 19 29.33301 36 rrcurveto
          106.33301 126 rlineto
          endchar
        </CharString>
        <CharString name="lig.112">
          -527.08301 590 rmoveto
          74 callsubr
          418.91699 83 rmoveto
          -407.91699 -229 0 -96 408.83398 -229 38.5 84 -346.5 193 346.5 194 rlineto
          418.91602 83 rmoveto
          73 callsubr
          endchar
        </CharString>
        <CharString name="lig.113">
          13 -21 275 89 277 -20 hstem
          -320.83301 89.83301 vstem
          -531.66699 633 rmoveto
          100 callsubr
          514.25 113 rmoveto
          101 callsubr
          -616 246 rmoveto
          84 callsubr
          endchar
        </CharString>
        <CharString name="lig.114">
          -81.58301 677 rmoveto
          41.25 94 -80.66699 41 -335.5 -756 -389.58301 257 314.41602 207 -47.66602 81 -354.75 -239 0 -97 438.16602 -297 -37.58301 -86 81.58301 -40 330.91699 747 417.08301 -276 -313.5 -207 50.41699 -80 rlineto
          352 239 0 97 rlineto
          endchar
        </CharString>
        <CharString name="lig.115">
          21 -21 160 80 212 81 hstem
          507.83301 452 rmoveto
          81 -66.91602 vlineto
          20.16602 157 -86.16602 0 -19.25 -157 -116.41699 0 20.16699 157 -86.16699 0 -19.25 -157 -263.08301 0 20.16602 157 -86.16602 0 -19.25 -157 -116.41699 0 20.16699 157 -86.16699 0 -19.25 -157 rlineto
          -263.08301 0 20.16602 157 -86.16602 0 -19.25 -157 -116.41699 0 20.16699 157 -86.16699 0 -19.25 -157 -77.91699 0 0 -81 67.83398 0 -26.58398 -212 -75.16602 0 0 -80 66 0 rlineto
          -19.25 -160 86.16602 0 19.25 160 116.41699 0 -19.25 -160 85.25 0 19.25 160 262.16699 0 -19.25 -160 86.16602 0 19.25 160 116.41699 0 -19.25 -160 85.25 0 19.25 160 rlineto
          262.16699 0 -19.25 -160 86.16602 0 19.25 160 116.41699 0 -19.25 -160 85.25 0 19.25 160 77.91699 0 0 80 -67.83398 0 25.66699 212 rlineto
          -1211.83301 -212 rmoveto
          53 callsubr
          320.83301 -212 rmoveto
          77 callsubr
          176 -212 rmoveto
          53 callsubr
          320.83301 -212 rmoveto
          77 callsubr
          176 -212 rmoveto
          53 callsubr
          endchar
        </CharString>
        <CharString name="lig.116">
          -183 92 112 -21 160 80 212 81 hstem
          106.33301 105.41699 vstem
          211.75 350 rmoveto
          3.66699 193 55 109 128.33301 135 rrcurveto
          -55.91699 60 rlineto
          -147.58301 -134 -90.75 -138 1.83301 -225 0.91699 -193 72.41699 -139 102.66602 -109 rrcurveto
          -960.66602 0 29.33301 251 77.91699 0 0 80 -67.83398 0 25.66699 212 76.08301 0 0 81 -66.91602 0 20.16602 157 -86.16602 0 -19.25 -157 -116.41699 0 20.16699 157 -86.16699 0 rlineto
          -19.25 -157 -77.91699 0 0 -81 67.83398 0 -26.58398 -212 -75.16602 0 0 -80 66 0 -19.25 -160 86.16602 0 19.25 160 116.41699 0 -41.25 -343 1157.75 0 51.33301 55 rlineto
          -139.33301 129 -86.16699 142 3.66699 207 rrcurveto
          -936.83301 -110 rmoveto
          53 callsubr
          endchar
        </CharString>
        <CharString name="lig.117">
          167 91 -79 259 -74 92 hstemhm
          -944.16699 238.33398 174.16602 238.33398 hintmask 00111000
          464.75 456 rmoveto
          -572 -92 572 hlineto
          hintmask 01011000
          -1289.75 -185 rmoveto
          81 callsubr
          412.5 hmoveto
          67.83301 51.33398 55 74 74 -51.33398 56 -67.83301 -67.83301 -51.33398 -55 -74 -74 51.33398 -56 67.83301 hvcurveto
          hintmask 10011000
          877.25 79 rmoveto
          -572 -91 572 hlineto
          endchar
        </CharString>
        <CharString name="lig.118">
          -13 193 hstem
          -739.75 176.91699 153.08301 176.91699 vstem
          245.66699 601 rmoveto
          99 callsubr
          -1033.08301 -436 rmoveto
          82 callsubr
          330 hmoveto
          82 callsubr
          endchar
        </CharString>
        <CharString name="lig.119">
          -13 193 hstem
          -729.66699 176.91699 189.75 176.91699 189.75 176.91602 vstem
          -729.66699 84 rmoveto
          82 callsubr
          366.66699 hmoveto
          82 callsubr
          366.66699 hmoveto
          -54 38.5 -43 49.5 50.41602 38.5 43 54 53 -38.5 43 -50.41602 -49.5 -38.5 -43 -53 vhcurveto
          endchar
        </CharString>
        <CharString name="lig.12">
          -132 85 352 90 352 85 hstem
          -292.41699 93.5 404.25 94.41699 vstem
          cntrmask 11100000
          -292.41699 832 rmoveto
          -964 93.5 964 vlineto
          317.16699 hmoveto
          -223.66699 -85 223.66699 hlineto
          63.25 22.91699 -15 -57 hvcurveto
          0.91602 -178 rlineto
          0 -95 33 -38 73.33398 -14 -77 -14 -29.33398 -35 0 -98 rrcurveto
          -177 vlineto
          -58 -23.83301 -15 -63.25 vhcurveto
          -223.66699 -85 223.66699 hlineto
          127.41699 54.08301 38 128 hvcurveto
          168 vlineto
          71 28.41699 32 105.41602 vhcurveto
          90 vlineto
          -105.41602 0 -27.5 31 -0.91699 71 rrcurveto
          -0.91699 169 rlineto
          -0.91602 129 -52.25 37 -127.41699 0 rrcurveto
          endchar
        </CharString>
        <CharString name="lig.120">
          267 89 hstem
          -779.16699 89.83398 368.5 89.83301 368.5 89.83301 vstem
          -231 267 rmoveto
          368.5 -202 89.83301 202 182.41699 89 -182.41699 202 -89.83301 -202 -368.5 202 -89.83301 -202 -368.5 hlineto
          202 -89.83398 -202 -180.58301 -89 180.58301 -202 89.83398 202 368.5 -202 89.83301 vlineto
          endchar
        </CharString>
        <CharString name="lig.121">
          167 91 106 92 hstem
          -932.25 -106 rmoveto
          87 callsubr
          882.75 522 rmoveto
          88 callsubr
          595.83301 92 rmoveto
          -526.16699 -92 526.16699 hlineto
          -595.83301 -106 rmoveto
          89 callsubr
          595.83301 91 rmoveto
          -526.16699 -91 526.16699 hlineto
          endchar
        </CharString>
        <CharString name="lig.122">
          -886.41699 -106 rmoveto
          49 callsubr
          539.91699 -40 rmoveto
          387.75 877 -80.66699 41 -388.66699 -878 rlineto
          539.91699 -40 rmoveto
          87 callsubr
          endchar
        </CharString>
        <CharString name="lig.123">
          -183 92 hstem
          -322.66699 94.41699 vstem
          -228.25 -91 rmoveto
          816 -94.41699 -816 -594 -92 1283.33398 92 vlineto
          endchar
        </CharString>
        <CharString name="lig.124">
          -13 151 hstemhm
          -848.83301 138.41602 -125.58301 111.83301 -99 87.08398 391.41602 138.41699 -125.58301 111.83301 -99 87.08301 392.33398 138.41602 hintmask 10100001
          -724.16699 690 rmoveto
          63 callsubr
          hintmask 10010001
          12.83301 -452 87.08398 0 rlineto
          hintmask 10000101
          516.08301 452 rmoveto
          63 callsubr
          hintmask 10000011
          64 callsubr
          -548.16602 -100 rmoveto
          hintmask 11000001
          -38.5 -30.25 -34 -41 -43 30.25 -33 38.5 40.33301 29.33301 33 43 41 -29.33301 34 -40.33301 hvcurveto
          504.16602 hmoveto
          hintmask 10001001
          65 callsubr
          505.08398 hmoveto
          -39.41699 -29.33301 -34 -41 -43 29.33301 -33 39.41699 39.41602 30.25 33 43 41 -30.25 34 -39.41602 hvcurveto
          endchar
        </CharString>
        <CharString name="lig.125">
          21 -21 hstem
          -1016.58301 99 1288.83301 96.25 vstem
          371.25 528 rmoveto
          -50.41699 -458 -64.16602 391 -102.66699 0 -75.16699 -391 -64.16602 391 -103.58398 0 -64.16602 -391 -67.83398 391 -100.83301 0 -71.5 -391 -64.16699 391 -103.58301 0 -70.58301 -391 -65.08398 391 -102.66602 0 rlineto
          -67.83398 -391 -50.41602 458 -99 0 82.5 -528 125.58301 0 59.58301 375 59.58398 -375 116.41602 0 62.33398 375 59.58301 -375 115.5 0 63.25 375 59.58301 -375 117.33398 0 57.75 375 rlineto
          57.75 -375 114.58301 0 69.66699 375 55.91602 -375 127.41699 0 79.75 528 rlineto
          endchar
        </CharString>
        <CharString name="lig.126">
          712 -20 hstem
          -1207.25 86.16699 335.5 86.16602 317.16699 86.16699 vstem
          -1121.08301 712 rmoveto
          90 callsubr
          421.66602 800 rmoveto
          -86.16602 -800 86.16602 hlineto
          403.33398 800 rmoveto
          91 callsubr
          -522.5 -337 rmoveto
          52 callsubr
          endchar
        </CharString>
        <CharString name="lig.127">
          712 -20 hstem
          -803.91699 86.16699 317.16699 86.16602 335.5 86.16699 vstem
          -803.91699 712 rmoveto
          102 callsubr
          317.16699 hmoveto
          -800 86.16602 800 vlineto
          335.5 hmoveto
          103 callsubr
          -911.16699 -687 rmoveto
          70 callsubr
          endchar
        </CharString>
        <CharString name="lig.128">
          -13 151 -121 -21 271 92 271 -20 hstemhm
          -1169.66699 138.41699 -125.58301 111.83301 -99 87.08301 hintmask 00110100
          -1045 690 rmoveto
          63 callsubr
          hintmask 00110010
          64 callsubr
          -320.83301 392 rmoveto
          -259.41699 -317 rlineto
          hintmask 01110000
          259.41699 -317 71.5 67 -105.41699 126 rlineto
          -25.66602 31 -24.75 25 -27.5 21 rrcurveto
          244.75 94 -245.66699 hlineto
          31.16699 22 17.41602 19 30.25 36 rrcurveto
          105.41699 126 rlineto
          361.16699 -296 rmoveto
          1386 92 -1386 hlineto
          hintmask 10111000
          -155.83398 -221 rmoveto
          -38.5 -30.25 -34 -41 -43 30.25 -33 38.5 40.33398 29.33301 33 43 hvcurveto
          41 -29.33301 34 -40.33398 vhcurveto
          endchar
        </CharString>
        <CharString name="lig.129">
          21 -21 160 80 212 81 hstem
          507.83301 452 rmoveto
          81 -66.91602 vlineto
          20.16602 157 -86.16602 0 -19.25 -157 -116.41699 0 20.16699 157 -86.16699 0 -19.25 -157 -263.08301 0 20.16602 157 -86.16602 0 -19.25 -157 -116.41699 0 20.16699 157 -86.16699 0 -19.25 -157 rlineto
          -263.08301 0 20.16602 157 -86.16602 0 -19.25 -157 -116.41699 0 20.16699 157 -86.16699 0 -19.25 -157 -263.08301 0 20.16602 157 -86.16602 0 -19.25 -157 -116.41699 0 20.16699 157 -86.16699 0 rlineto
          -19.25 -157 -77.91699 0 0 -81 67.83398 0 -26.58398 -212 -75.16602 0 0 -80 66 0 -19.25 -160 86.16602 0 19.25 160 116.41699 0 -19.25 -160 85.25 0 19.25 160 rlineto
          262.16699 0 -19.25 -160 86.16602 0 19.25 160 116.41699 0 -19.25 -160 85.25 0 19.25 160 262.16699 0 -19.25 -160 86.16602 0 19.25 160 116.41699 0 -19.25 -160 85.25 0 rlineto
          19.25 160 262.16699 0 -19.25 -160 86.16602 0 19.25 160 116.41699 0 -19.25 -160 85.25 0 19.25 160 77.91699 0 0 80 -67.83398 0 25.66699 212 rlineto
          -1761.83301 -212 rmoveto
          53 callsubr
          320.83301 -212 rmoveto
          77 callsubr
          176 -212 rmoveto
          53 callsubr
          320.83301 -212 rmoveto
          77 callsubr
          176 -212 rmoveto
          53 callsubr
          320.83301 -212 rmoveto
          77 callsubr
          176 -212 rmoveto
          53 callsubr
          endchar
        </CharString>
        <CharString name="lig.13">
          -118 88 759 89 hstem
          -293.33301 94.41602 401.5 97.16699 vstem
          -293.33301 818 rmoveto
          -936 94.41602 936 vlineto
          498.66699 -936 rmoveto
          936 -405.16699 -89 308 -759 -308 -88 vlineto
          endchar
        </CharString>
        <CharString name="lig.130">
          15 -21 173 91 106 92 172 -20 hstem
          231.91699 628 rmoveto
          -71.5 -67 48.58301 -58 rlineto
          12.83301 -15 13.75 -16 24.75 -16 rrcurveto
          -1620.66602 hlineto
          24.75 16 13.75 16 12.83301 15 rrcurveto
          48.58301 58 -71.5 67 -259.41602 -317 259.41602 -317 71.5 67 -48.58301 58 rlineto
          -12.83301 16 -13.75 15 -24.75 17 rrcurveto
          1620.66602 hlineto
          -24.75 -17 -13.75 -15 -12.83301 -16 rrcurveto
          -48.58301 -58 71.5 -67 259.41602 317 rlineto
          -1916.75 -53 rmoveto
          -44 53 44 53 1750.83398 0 44 -53 -44 -53 rlineto
          endchar
        </CharString>
        <CharString name="lig.14">
          167 91 106 92 hstem
          -322.66699 94.41699 vstem
          373.08301 364 rmoveto
          92 -601.33301 269 -94.41699 -828 94.41699 270 601.33301 91 -601.33301 106 vlineto
          endchar
        </CharString>
        <CharString name="lig.15">
          712 -20 hstem
          -290.58301 86.16602 vstem
          -204.41699 712 rmoveto
          -86.16602 -800 86.16602 hlineto
          522.5 353 0 97 rlineto
          -522.5 -337 rmoveto
          52 callsubr
          endchar
        </CharString>
        <CharString name="lig.16">
          267 92 hstem
          -322.66699 94.41699 vstem
          372.16699 359 rmoveto
          -600.41699 366 -94.41699 -828 94.41699 370 600.41699 hlineto
          endchar
        </CharString>
        <CharString name="lig.17">
          -132 85 352 90 352 85 hstem
          -299.75 94.41699 404.25 93.5 vstem
          cntrmask 11100000
          -118.25 832 rmoveto
          -127.41699 0 -52.25 -37 -0.91602 -129 rrcurveto
          -0.91699 -169 rlineto
          -0.91699 -71 -27.5 -31 -105.41602 0 rrcurveto
          -90 vlineto
          105.41602 28.41699 -32 -71 hvcurveto
          -168 vlineto
          -128 54.08301 -38 127.41699 vhcurveto
          223.66699 85 -223.66699 hlineto
          -63.25 -23.83301 15 58 hvcurveto
          177 vlineto
          0 98 -29.33398 35 -77 14 73.33398 14 33 38 0 95 rrcurveto
          0.91602 178 rlineto
          57 22.91699 15 63.25 vhcurveto
          223.66699 85 hlineto
          187 hmoveto
          -93.5 -964 93.5 hlineto
          endchar
        </CharString>
        <CharString name="lig.18">
          -118 88 759 89 hstem
          -299.75 97.16699 401.5 94.41602 vstem
          -299.75 -118 rmoveto
          405.16699 88 -308 759 308 89 -405.16699 hlineto
          593.08301 hmoveto
          -94.41602 -936 94.41602 hlineto
          endchar
        </CharString>
        <CharString name="lig.19">
          -118 89 50 -21 160 80 212 81 196 89 hstemhm
          -408.83301 250.25 -97.16699 97.16699 hintmask 11111010
          452.83301 452 rmoveto
          81 -66.91602 vlineto
          20.16602 157 -86.16602 0 -19.25 -157 -116.41699 0 20.16699 157 -86.16699 0 -19.25 -157 -257.58301 0 rlineto
          hintmask 11111100
          285 -250.25 -89 vlineto
          hintmask 11111010
          153.08301 -758 hlineto
          hintmask 11111100
          -153.08301 -89 250.25 hlineto
          hintmask 11111010
          278 211.75 vlineto
          -19.25 -160 86.16602 0 19.25 160 116.41699 0 -19.25 -160 85.25 0 19.25 160 77.91699 0 0 80 -67.83398 0 25.66699 212 rlineto
          -314.41699 -212 rmoveto
          -220.91602 212 247.5 hlineto
          176 -212 rmoveto
          53 callsubr
          endchar
        </CharString>
        <CharString name="lig.2">
          167 91 106 92 hstem
          -14.66699 456 rmoveto
          -168.66602 305 -91.66699 0 -173.25 -314 105.41699 0 112.75 223 157.66602 -306 491.33398 0 0 92 rlineto
          -491.33398 -289 rmoveto
          491.33398 91 -491.33398 hlineto
          endchar
        </CharString>
        <CharString name="lig.20">
          -13 179 176 180 hstem
          -265.83301 164.08301 202.58301 164.08398 vstem
          -265.83301 432 rmoveto
          54 callsubr
          366.66602 hmoveto
          55 callsubr
          -366.66602 -355 rmoveto
          56 callsubr
          366.66602 hmoveto
          57 callsubr
          endchar
        </CharString>
        <CharString name="lig.21">
          98 179 -110 91 86 180 -160 92 hstemhm
          -352 165 hintmask 00101000
          -352 434 rmoveto
          58 callsubr
          hintmask 00011000
          816.75 22 rmoveto
          59 callsubr
          -816.75 -176 rmoveto
          hintmask 10001000
          60 callsubr
          hintmask 01001000
          816.75 70 rmoveto
          61 callsubr
          endchar
        </CharString>
        <CharString name="lig.22">
          41 179 176 180 hstem
          -381.33301 164.08301 vstem
          4.58301 611 rmoveto
          0 -104 346.5 -194 -346.5 -193 0 -105 447.33398 250 0 96 rlineto
          -833.25 125 rmoveto
          54 callsubr
          -355 vmoveto
          56 callsubr
          endchar
        </CharString>
        <CharString name="lig.23">
          -70 105 585 95 hstem
          -381.33301 99.91602 74.25 66.91699 102.66699 102.66602 vstem
          74.25 633 rmoveto
          -68.75 49 -72.41699 25 -73.33301 8 rrcurveto
          136 -66.91699 -136 vlineto
          -112.75 -13 -61.41602 -90 0 -90 0 -94 57.75 -60 116.41602 -42 rrcurveto
          -291 vlineto
          -57.75 -1 -50.41602 11 -97.16699 62 rrcurveto
          -115 vlineto
          80.66699 -48 41.25 -13 83.41602 -1 rrcurveto
          -86 66.91699 90 vlineto
          126.5 16 78.83301 109 0 121 0 117 -101.75 75 -103.58301 37 rrcurveto
          212 vlineto
          43.08301 -5 66 -26 105.41699 -72 rrcurveto
          313.5 -205 -242 -158 -30.25 -136 361.16699 246 0 97 rlineto
          -683.83398 72 rmoveto
          -59.58301 28 -14.66699 26 0 41 0 48 29.33398 34 44.91602 9 rrcurveto
          169.58398 -449 rmoveto
          62 callsubr
          endchar
        </CharString>
        <CharString name="lig.24">
          167 91 106 92 hstem
          464.75 456 rmoveto
          -929.5 -92 929.5 hlineto
          -106 vmoveto
          -929.5 -91 929.5 hlineto
          endchar
        </CharString>
        <CharString name="lig.25">
          15 -21 173 91 106 92 172 -20 hstem
          231.91699 628 rmoveto
          -71.5 -67 48.58301 -58 rlineto
          12.83301 -15 13.75 -16 24.75 -16 rrcurveto
          -705.83301 -92 770.91699 hlineto
          44 -53 -44 -53 -770.91699 0 0 -91 705.83301 0 rlineto
          -24.75 -17 -13.75 -15 -12.83301 -16 rrcurveto
          -48.58301 -58 71.5 -67 259.41602 317 rlineto
          endchar
        </CharString>
        <CharString name="lig.26">
          167 91 106 92 hstem
          464.75 364 rmoveto
          92 -338.25 vlineto
          93.5 172 -76.08301 42 -117.33398 -214 -491.33301 0 0 -92 440.91699 0 -57.75 -106 -383.16699 0 0 -91 332.75 0 -88 -161 77.91699 -43 110.91602 204 495.91699 0 0 91 rlineto
          -446.41699 0 57.75 106 rlineto
          endchar
        </CharString>
        <CharString name="lig.27">
          -13 151 hstemhm
          -234.66699 138.41699 -125.58301 111.83301 -99 87.08301 217.25 138.41699 -125.58301 111.83301 -99 87.08301 hintmask 10100000
          -110 690 rmoveto
          63 callsubr
          hintmask 10010000
          64 callsubr
          hintmask 10000100
          341.91699 452 rmoveto
          63 callsubr
          hintmask 10000010
          64 callsubr
          -374 -100 rmoveto
          hintmask 11000000
          65 callsubr
          330 hmoveto
          hintmask 10001000
          65 callsubr
          endchar
        </CharString>
        <CharString name="lig.28">
          -234.66699 85 rmoveto
          505.08398 245 0 93 -505.08398 244 -34.83301 -85 429 -205 -429 -206 rlineto
          526.16699 -1 rmoveto
          -504.16699 -242 34.83301 -85 504.16699 245 rlineto
          endchar
        </CharString>
        <CharString name="lig.29">
          -435.41699 590 rmoveto
          66 callsubr
          50.41699 229 rmoveto
          67 callsubr
          endchar
        </CharString>
        <CharString name="lig.3">
          221 91 9 91 hstem
          352.91699 394 rmoveto
          45 callsubr
          endchar
        </CharString>
        <CharString name="lig.30">
          17 -21 271 92 271 -20 hstem
          440.91699 359 rmoveto
          -594 0 -221.83398 271 -71.5 -67 209 -250 -209 -250 71.5 -67 221.83398 271 594 0 rlineto
          endchar
        </CharString>
        <CharString name="lig.31">
          221 91 -45 92 -38 91 hstemhm
          hintmask 10100000
          379.5 394 rmoveto
          -23.83301 -49 -26.58398 -33 -36.66602 0 -55.91699 0 -31.16699 100 -91.66602 0 rrcurveto
          hintmask 01000000
          -77.91699 0 -9.16699 -53 -71.5 0 rrcurveto
          -396 -92 414.33398 hlineto
          hintmask 10100000
          72.41602 0 7.33398 54 57.75 0 56.83301 0 34.83301 -100 87.08398 0 80.66602 0 42.16699 68 32.08301 71 rrcurveto
          endchar
        </CharString>
        <CharString name="lig.32">
          267 92 hstem
          228.25 94.41699 vstem
          228.25 725 rmoveto
          -366 -600.41699 -92 600.41699 -370 94.41699 828 vlineto
          endchar
        </CharString>
        <CharString name="lig.33">
          17 -21 270 94 270 -20 hstem
          186.08301 630 rmoveto
          -71.5 -67 105.41699 -126 rlineto
          30.25 -36 17.41699 -19 31.16602 -22 rrcurveto
          -739.75 -94 738.83398 hlineto
          -27.5 -21 -24.75 -25 -25.66699 -31 rrcurveto
          -105.41699 -126 71.5 -67 259.41699 317 rlineto
          endchar
        </CharString>
        <CharString name="lig.34">
          267 92 hstem
          -397.83301 267 rmoveto
          68 callsubr
          436.33301 -92 rmoveto
          68 callsubr
          endchar
        </CharString>
        <CharString name="lig.35">
          17 -21 271 92 271 -20 hstem
          446.41699 563 rmoveto
          -71.5 67 -221.83398 -271 -594 0 0 -92 594 0 221.83398 -271 71.5 67 -209 250 rlineto
          endchar
        </CharString>
        <CharString name="lig.36">
          17 -21 223 92 8 98 213 -20 hstem
          235.58301 411 rmoveto
          -112.75 0 -11.91602 -100 -58.66699 0 -57.75 0 -12.83301 106 -112.75 0 -116.41699 0 5.5 -78 -77 -2 rrcurveto
          23 vlineto
          27.5 21 24.75 25 25.66699 31 rrcurveto
          105.41602 126 -71.5 67 -259.41602 -317 259.41602 -317 71.5 67 -105.41602 126 rlineto
          -16.5 20 -12.83398 15 -13.75 13 91.66699 9 8.25 73 53.16699 0 58.66602 0 11.91699 -100 112.75 0 112.75 0 11.91699 100 58.66602 0 32.08398 0 32.08301 -36 18.33301 -44 rrcurveto
          80.66699 42 rlineto
          -22 64 -74.25 66 -66.91699 0 rrcurveto
          endchar
        </CharString>
        <CharString name="lig.37">
          13 -21 642 -21 hstemhm
          180.58301 98.08398 -85.25 73.33301 hintmask 11000000
          -27.5 633 rmoveto
          69 callsubr
          hintmask 11100000
          208.08301 111 rmoveto
          hintmask 11010000
          12.83398 -254 -217.25 89 -31.16699 -100 225.5 -66 -135.66699 -186 80.66699 -63 115.5 202 127.41699 -208 79.75 65 -147.58398 190 222.75 65 -28.41602 100 -218.16699 -88 rlineto
          hintmask 11100000
          11.91699 254 rlineto
          endchar
        </CharString>
        <CharString name="lig.38">
          712 -20 hstem
          204.41699 86.16602 vstem
          204.41699 712 rmoveto
          -522.5 -350 0 -97 522.5 -353 86.16602 0 0 800 rlineto
          -86.16602 -687 rmoveto
          70 callsubr
          endchar
        </CharString>
        <CharString name="lig.39">
          41 179 176 180 hstem
          217.25 164.08301 vstem
          -4.58301 611 rmoveto
          -447.33398 -250 0 -96 447.33398 -250 0 105 -346.5 193 346.5 194 rlineto
          385.91602 -21 rmoveto
          71 callsubr
          -355 vmoveto
          72 callsubr
          endchar
        </CharString>
        <CharString name="lig.4">
          -92 79 -34 77 191 91 9 91 -44 76 177 83 hstemhm
          22 95.33301 141.16699 88 -52.25 52.25 103.58301 91.66699 hintmask 1011011101000000
          261.25 704 rmoveto
          -50.41699 0 -132.91602 -4 -71.5 -87 -53.16699 -66 -30.25 -113 -20.16699 -40 -23.83301 -49 -26.58301 -33 -36.66699 0 -55.91699 0 -31.16602 100 -91.66699 0 -81.58301 0 -42.16699 -72 -31.16699 -67 rrcurveto
          65.08398 -34 rlineto
          23.83301 48 24.75 34 38.5 0 56.83301 0 34.83398 -100 87.08301 0 80.66699 0 43.08301 68 31.16699 71 17.41602 40 26.58398 97 46.75 56 55.91602 68 109.08398 0 35.75 0 rrcurveto
          159.5 31.16602 -138 -198 -185 -0.91602 -113 -48.58398 -32.08301 -22 25 95 hvcurveto
          hintmask 0110111011000000
          297 vlineto
          -51.33301 30 -43.08398 10 -44 0 rrcurveto
          -121 -65.08301 -92 -170 -131 38.5 -98 103.58301 hvcurveto
          70.58398 0 37.58301 48 18.33301 48 rrcurveto
          3.66699 hlineto
          hintmask 1011011101000000
          2.75 -59 32.08301 -82 74.25 0 rrcurveto
          112.75 25.66699 129 252 hvcurveto
          221 -51.33301 194 -229.16699 vhcurveto
          -2.75 -593 rmoveto
          hintmask 0110111101000000
          -8.25 -29 -15.58301 -52 -55 0 rrcurveto
          -47.66699 -14.66699 57 95 129 21.08398 57 70.58301 hvcurveto
          18.33301 0 14.66699 -4 16.5 -9 rrcurveto
          endchar
        </CharString>
        <CharString name="lig.40">
          -70 105 585 95 hstem
          -14.66699 99.91699 74.25 66.91699 102.66602 102.66699 vstem
          440.91699 518 rmoveto
          115 vlineto
          -68.75 49 -72.41699 25 -73.33301 8 rrcurveto
          136 -66.91699 -136 vlineto
          -112.75 -13 -61.41699 -90 0 -90 0 -94 57.75 -60 116.41699 -42 rrcurveto
          -291 vlineto
          -57.75 -1 -50.41699 11 -97.16602 62 rrcurveto
          -314.41699 206 257.58301 170 20.16699 126 -365.75 -247 0 -97 402.41699 -273 rlineto
          80.66602 -48 41.25 -13 83.41699 -1 rrcurveto
          -86 66.91699 90 vlineto
          126.5 16 78.83301 109 0 121 0 117 -101.75 75 -103.58301 37 rrcurveto
          212 vlineto
          43.08301 -5 66 -26 105.41699 -72 rrcurveto
          -281.41699 -84 rmoveto
          -59.58301 28 -14.66699 26 0 41 0 48 29.33301 34 44.91699 9 rrcurveto
          169.58301 -449 rmoveto
          0 -80 -50.41602 -41 -52.25 -12 rrcurveto
          262 vlineto
          60.5 -30 42.16602 -45 0 -54 rrcurveto
          endchar
        </CharString>
        <CharString name="lig.41">
          269.5 582 rmoveto
          -34.83301 85 -505.08398 -244 0 -93 505.08398 -245 34.83301 86 -429 206 rlineto
          -132 -289 rmoveto
          504.16699 -245 34.83301 85 -504.16699 242 rlineto
          endchar
        </CharString>
        <CharString name="lig.42">
          652 vmoveto
          -429.91699 -290 0 -97 429.91699 -292 430.83301 292 0 97 rlineto
          -430.83301 -274 rmoveto
          -341.91699 225 341.91699 226 341.91699 -226 rlineto
          endchar
        </CharString>
        <CharString name="lig.43">
          17 -21 270 94 270 -20 hstem
          -186.08301 630 rmoveto
          -259.41699 -317 259.41699 -317 71.5 67 -105.41699 126 rlineto
          -25.66699 31 -24.75 25 -27.5 21 rrcurveto
          738.83398 94 -739.75 hlineto
          31.16602 22 17.41699 19 30.25 36 rrcurveto
          105.41699 126 rlineto
          endchar
        </CharString>
        <CharString name="lig.44">
          -22.91699 590 rmoveto
          73 callsubr
          418.91699 83 rmoveto
          74 callsubr
          endchar
        </CharString>
        <CharString name="lig.45">
          13 -21 275 89 277 -20 hstem
          183.33301 89.83398 vstem
          -27.5 633 rmoveto
          69 callsubr
          300.66699 88 rmoveto
          -89.83398 -252 -226.41602 -89 226.41602 -252 89.83398 252 228.25 89 -228.25 hlineto
          endchar
        </CharString>
        <CharString name="lig.46">
          337.33301 812 rmoveto
          -335.5 -756 -389.58301 257 314.41699 207 -47.66699 81 -354.75 -239 0 -97 438.16699 -297 -37.58398 -86 81.58398 -40 411.58301 929 rlineto
          endchar
        </CharString>
        <CharString name="lig.47">
          -137 83 75 -21 160 80 65 90 57 81 221 83 hstem
          418.91699 754 rmoveto
          83 vlineto
          -127.41699 0 -83.41699 -39 11.91699 -128 rrcurveto
          13.75 -137 -287.83301 0 20.16602 157 -86.16602 0 -19.25 -157 -116.41699 0 20.16699 157 -86.16699 0 -19.25 -157 -77.91699 0 0 -81 67.83398 0 -26.58398 -212 -75.16602 0 0 -80 rlineto
          66 0 -19.25 -160 86.16602 0 19.25 160 116.41699 0 -19.25 -160 85.25 0 19.25 160 331.83301 0 -12.83301 -131 rlineto
          -11.91699 -127 83.41699 -39 127.41699 0 rrcurveto
          83 vlineto
          -62.33398 0 -46.75 15 5.5 58 rrcurveto
          16.5 184 rlineto
          9.16699 97 -38.5 36 -77 14 74.25 14 41.25 39 -9.16699 94 rrcurveto
          -16.5 184 rlineto
          -5.5 57 45.83398 16 63.25 0 rrcurveto
          -594 -514 rmoveto
          53 callsubr
          385 -212 rmoveto
          -325.41699 0 25.66699 212 297.91699 0 rlineto
          -11.91699 -39 -39.41699 -18 -79.75 0 rrcurveto
          -90 vlineto
          85.25 0 38.5 -20 9.16699 -45 rrcurveto
          endchar
        </CharString>
        <CharString name="lig.48">
          -118 88 51 -21 160 80 212 81 196 89 hstemhm
          158.58301 250.25 -250.25 97.16699 hintmask 11111100
          408.83301 729 rmoveto
          89 -250.25 vlineto
          hintmask 11111010
          -285 -212.66602 vlineto
          20.16602 157 -86.16602 0 -19.25 -157 -116.41699 0 20.16699 157 -86.16699 0 -19.25 -157 -77.91699 0 0 -81 67.83398 0 -26.58398 -212 -75.16602 0 0 -80 66 0 -19.25 -160 rlineto
          86.16602 0 19.25 160 116.41699 0 -19.25 -160 85.25 0 19.25 160 257.58301 0 rlineto
          hintmask 11111100
          -278 250.25 88 vlineto
          hintmask 11111010
          -153.08301 759 hlineto
          -430.83301 -489 rmoveto
          53 callsubr
          59.58301 -212 rmoveto
          25.66699 212 221.83301 0 0 -212 rlineto
          endchar
        </CharString>
</ttFont>
